<?xml version="1.0" encoding="UTF-8"?>
<svg version="1.1" xmlns="http://www.w3.org/2000/svg" width="256" height="256">
<path d="M0 0 C84.48 0 168.96 0 256 0 C256 84.48 256 168.96 256 256 C171.52 256 87.04 256 0 256 C0 171.52 0 87.04 0 0 Z " fill="#FEC1F8" transform="translate(0,0)"/>
<path d="M0 0 C10.39953065 6.65338539 17.05259628 15.87511889 20.06640625 27.89453125 C21.37842644 33.96833308 21.2577402 39.99989833 21.1875 46.1875 C21.17887939 47.38624756 21.17025879 48.58499512 21.16137695 49.82006836 C20.88043032 77.57721878 20.88043032 77.57721878 15.1875 87 C13 89 13 89 10.125 89.875 C6.27517589 91.26093668 5.05822543 93.10987406 2.58984375 96.24609375 C0.10400498 98.98845642 -2.70890713 100.35445357 -6 102 C-5.89386164 104.45224694 -5.89386164 104.45224694 -5 107 C-1.67510326 108.6595369 1.4673046 109.31570853 5.125 109.8125 C11.31320737 110.88257875 16.43218859 113.16475986 22 116 C22.91910156 116.43183594 23.83820313 116.86367187 24.78515625 117.30859375 C44.53878455 127.1159507 55.74942197 148.96442011 62.625 169 C70 191.19537214 70 191.19537214 70 202 C6.97 202 -56.06 202 -121 202 C-121 192.98118532 -121 192.98118532 -120.1171875 189.1875 C-119.92286133 188.34791748 -119.72853516 187.50833496 -119.52832031 186.64331055 C-119.31272461 185.77101807 -119.09712891 184.89872559 -118.875 184 C-118.6490918 183.07936768 -118.42318359 182.15873535 -118.19042969 181.21020508 C-113.49917058 162.7066855 -105.92731612 145.2999076 -93 131 C-92.29101562 130.20980469 -91.58203125 129.41960937 -90.8515625 128.60546875 C-80.73035883 117.89830065 -66.53011037 110.46273057 -52 108 C-52.33 102.72 -52.66 97.44 -53 92 C-53.556875 93.2375 -54.11375 94.475 -54.6875 95.75 C-56.43981624 99.64403608 -58.25867869 101.86210211 -62 104 C-65.78453097 104.48107492 -69.50557324 104.37665399 -73.3125 104.25 C-74.33923828 104.23195313 -75.36597656 104.21390625 -76.42382812 104.1953125 C-78.95017885 104.14831063 -81.47460469 104.08262272 -84 104 C-82.77323093 101.44146812 -81.50737649 99.29004258 -79.875 96.9375 C-77.73098227 94.15935564 -77.73098227 94.15935564 -78 91 C-80.31 91 -82.62 91 -85 91 C-84.58022012 88.48132071 -84.19466952 86.36110453 -82.9765625 84.1015625 C-80.92871231 79.69458888 -81.46770031 74.56363033 -83 70.0625 C-85.4048306 62.69770628 -84.42658076 54.89151876 -81 48 C-78.13478523 43.75981148 -74.81333515 39.9482547 -70 38 C-67.27922542 37.77623536 -64.73932579 37.86071225 -62 38 C-62.061875 36.9275 -62.12375 35.855 -62.1875 34.75 C-62.12448255 22.88171406 -57.60776202 13.79506227 -49.6875 5.25 C-36.31572759 -7.5005175 -15.85496951 -8.7917193 0 0 Z " fill="#F9F9F9" transform="translate(149,54)"/>
<path d="M0 0 C10.39953065 6.65338539 17.05259628 15.87511889 20.06640625 27.89453125 C21.37842644 33.96833308 21.2577402 39.99989833 21.1875 46.1875 C21.17887939 47.38624756 21.17025879 48.58499512 21.16137695 49.82006836 C20.88043032 77.57721878 20.88043032 77.57721878 15.1875 87 C13 89 13 89 10.125 89.875 C6.27517589 91.26093668 5.05822543 93.10987406 2.58984375 96.24609375 C0.10400498 98.98845642 -2.70890713 100.35445357 -6 102 C-5.89386164 104.45224694 -5.89386164 104.45224694 -5 107 C-1.67510326 108.6595369 1.4673046 109.31570853 5.125 109.8125 C11.31320737 110.88257875 16.43218859 113.16475986 22 116 C22.91910156 116.43183594 23.83820313 116.86367187 24.78515625 117.30859375 C44.53878455 127.1159507 55.74942197 148.96442011 62.625 169 C70 191.19537214 70 191.19537214 70 202 C69.34 202 68.68 202 68 202 C67.35220924 199.60468067 66.70670991 197.20878252 66.0625 194.8125 C65.88009766 194.13896484 65.69769531 193.46542969 65.50976562 192.77148438 C64.73390088 189.87962488 64.00454109 187.02636647 63.49609375 184.07421875 C63.33238281 183.38972656 63.16867188 182.70523438 63 182 C62.34 181.67 61.68 181.34 61 181 C61 179.68 61 178.36 61 177 C60.67 178.65 60.34 180.3 60 182 C59.67 182 59.34 182 59 182 C58.87095943 176.45125563 58.87095943 176.45125563 59.65234375 173.71875 C61.09159258 162.46350072 49.01494665 145.50149831 42.6328125 136.6171875 C38.68768151 131.52969534 36.32381836 128.75121124 30 127 C29.67 126.67 29.34 126.34 29 126 C28.54625 126.495 28.0925 126.99 27.625 127.5 C26 129 26 129 24 129 C23.75 123.375 23.75 123.375 26 120 C20.69905784 118.19695845 15.39691512 116.49276376 10 115 C9.79375 115.5775 9.5875 116.155 9.375 116.75 C7.50249112 119.81410544 5.03041481 121.15539968 2 123 C2.78375 123.433125 3.5675 123.86625 4.375 124.3125 C7 126 7 126 9 129 C9.125 131.6875 9.125 131.6875 9 134 C8.34 134 7.68 134 7 134 C6.731875 133.05125 6.46375 132.1025 6.1875 131.125 C5.25013412 127.74732727 5.25013412 127.74732727 2 126 C-0.64632287 126.3121764 -0.64632287 126.3121764 -3 127 C-3.99 130.96 -3.99 130.96 -5 135 C-5.66 135 -6.32 135 -7 135 C-6.25 128.375 -6.25 128.375 -4 125 C-4.556875 124.99742187 -5.11375 124.99484375 -5.6875 124.9921875 C-12.74348291 124.6346208 -17.05190605 121.94809395 -22 117 C-26.34055713 117.16694451 -28.42385861 117.47745316 -31.6875 120.4375 C-32.8321875 121.7059375 -32.8321875 121.7059375 -34 123 C-38.68279685 125.93052448 -43.66003577 125.59250643 -49 125 C-54.9831907 123.19992895 -58.86877227 119.54435051 -63 115 C-65.97 115.99 -65.97 115.99 -69 117 C-68.195625 117.86625 -67.39125 118.7325 -66.5625 119.625 C-64.03075864 122.62876093 -63.28342624 125.03203262 -63 129 C-63.66 129 -64.32 129 -65 129 C-65.474375 127.865625 -65.94875 126.73125 -66.4375 125.5625 C-67.63622083 122.24259834 -67.63622083 122.24259834 -69 121 C-71.41537838 120.58282721 -71.41537838 120.58282721 -74 121 C-76.27436849 123.35860436 -77.62660359 126.04191542 -79 129 C-79 127.02 -79 125.04 -79 123 C-87.43272784 128.93879343 -95.32103322 136.64206645 -100 146 C-98.88625 146.433125 -97.7725 146.86625 -96.625 147.3125 C-93 149 -93 149 -91 152 C-90.875 154.6875 -90.875 154.6875 -91 157 C-92.74627478 154.38058783 -93.38722388 152.96175123 -94 150 C-94.99 150 -95.98 150 -97 150 C-96.484375 150.4125 -95.96875 150.825 -95.4375 151.25 C-94.963125 151.8275 -94.48875 152.405 -94 153 C-94.3125 155.1875 -94.3125 155.1875 -95 157 C-95.3403125 156.0409375 -95.3403125 156.0409375 -95.6875 155.0625 C-96.85250896 152.72806339 -96.85250896 152.72806339 -99.625 152.25 C-100.40875 152.1675 -101.1925 152.085 -102 152 C-102.66 154.31 -103.32 156.62 -104 159 C-104.99 158.67 -105.98 158.34 -107 158 C-107.67291712 160.01875136 -108.34449625 162.0379531 -109.01171875 164.05859375 C-109.72516908 166.18202496 -110.45958898 168.29845042 -111.20703125 170.41015625 C-114.26623825 179.19959992 -116.399479 187.82628205 -118 197 C-116.35837891 196.67902344 -116.35837891 196.67902344 -114.68359375 196.3515625 C-111 196 -111 196 -108.0625 198.375 C-106 201 -106 201 -106 202 C-110.95 202 -115.9 202 -121 202 C-121.2494275 195.66160698 -120.39370136 190.14461123 -118.875 184 C-118.6490918 183.07936768 -118.42318359 182.15873535 -118.19042969 181.21020508 C-113.49917058 162.7066855 -105.92731612 145.2999076 -93 131 C-92.29101562 130.20980469 -91.58203125 129.41960937 -90.8515625 128.60546875 C-80.73035883 117.89830065 -66.53011037 110.46273057 -52 108 C-52.33 102.72 -52.66 97.44 -53 92 C-53.556875 93.2375 -54.11375 94.475 -54.6875 95.75 C-56.43981624 99.64403608 -58.25867869 101.86210211 -62 104 C-65.78453097 104.48107492 -69.50557324 104.37665399 -73.3125 104.25 C-74.33923828 104.23195313 -75.36597656 104.21390625 -76.42382812 104.1953125 C-78.95017885 104.14831063 -81.47460469 104.08262272 -84 104 C-82.77323093 101.44146812 -81.50737649 99.29004258 -79.875 96.9375 C-77.73098227 94.15935564 -77.73098227 94.15935564 -78 91 C-80.31 91 -82.62 91 -85 91 C-84.58022012 88.48132071 -84.19466952 86.36110453 -82.9765625 84.1015625 C-80.92871231 79.69458888 -81.46770031 74.56363033 -83 70.0625 C-85.4048306 62.69770628 -84.42658076 54.89151876 -81 48 C-78.13478523 43.75981148 -74.81333515 39.9482547 -70 38 C-67.27922542 37.77623536 -64.73932579 37.86071225 -62 38 C-62.061875 36.9275 -62.12375 35.855 -62.1875 34.75 C-62.12448255 22.88171406 -57.60776202 13.79506227 -49.6875 5.25 C-36.31572759 -7.5005175 -15.85496951 -8.7917193 0 0 Z " fill="#040304" transform="translate(149,54)"/>
<path d="M0 0 C0.59683594 0.74894531 1.19367188 1.49789062 1.80859375 2.26953125 C7.29582344 9.10656076 13.16336878 15.10835999 19.7421875 20.8984375 C22.80918709 23.75318798 22.97029654 24.41583195 23.1875 28.6875 C23.15016694 32.77173664 22.28762871 36.13711388 21 40 C16.05 40.495 16.05 40.495 11 41 C11.99 41.66 12.98 42.32 14 43 C14 43.66 14 44.32 14 45 C13.34 45 12.68 45 12 45 C12.33 45.99 12.66 46.98 13 48 C14.32 48 15.64 48 17 48 C18.66299965 45.58944746 18.66299965 45.58944746 20 43 C20.66 42.67 21.32 42.34 22 42 C22.38765321 54.6346231 22.5759914 63.03330729 14 73 C14 73.99 14 74.98 14 76 C10.51174392 80.08453917 6.14478374 82.0569992 0.86328125 82.52734375 C-0.63212916 82.58305608 -2.12858272 82.61543564 -3.625 82.625 C-4.34099365 82.6355542 -5.0569873 82.6461084 -5.79467773 82.65698242 C-11.20561353 82.51549153 -14.49448254 80.96820179 -19 78 C-19 78.99 -19 79.98 -19 81 C-17.948125 81.37125 -17.948125 81.37125 -16.875 81.75 C-14 83 -14 83 -11.125 84.9375 C-6.00003447 88.31997725 -1.09597919 90.2565879 5 91 C5 91.66 5 92.32 5 93 C-1.64713716 95.67960809 -7.48837295 96.46754992 -14.625 96.375 C-15.52734375 96.38660156 -16.4296875 96.39820313 -17.359375 96.41015625 C-23.00235755 96.38547848 -27.02266475 95.70606102 -32 93 C-36.68868003 88.0578778 -38.22524015 83.75357128 -39.125 77.0625 C-39.29257813 75.85722656 -39.46015625 74.65195313 -39.6328125 73.41015625 C-39.93922155 70.56446373 -40.07588456 67.85651173 -40 65 C-37.69 65.99 -35.38 66.98 -33 68 C-33.433125 67.40574219 -33.86625 66.81148438 -34.3125 66.19921875 C-38.73168503 59.62158918 -40.3047513 54.8572891 -39 47 C-33.91342606 24.94228404 -33.91342606 24.94228404 -28 21 C-28.2302825 23.52401744 -28.48354207 26.04225203 -28.75 28.5625 C-28.811875 29.26697266 -28.87375 29.97144531 -28.9375 30.69726562 C-29.5278304 36.03483632 -31.12179714 39.47139908 -34 44 C-35.3533429 47.6089144 -35.26824727 51.17747642 -35 55 C-33.82725006 57.87391821 -33.82725006 57.87391821 -32 60 C-31.01 60.33 -30.02 60.66 -29 61 C-29.32226562 60.45085937 -29.64453125 59.90171875 -29.9765625 59.3359375 C-31.84702062 55.06672393 -31.54988206 50.56468362 -31 46 C-29.3942058 42.95452824 -27.6969837 40.78956549 -25.44140625 38.234375 C-23.6218132 35.41375922 -23.2933365 32.99020974 -22.75 29.6875 C-21.37278795 23.32235417 -19.43262596 19.65782385 -14 16 C-12.65600062 15.41362189 -11.30147731 14.85077457 -9.9375 14.3125 C-4.09897496 11.77450569 -2.30264397 5.54727865 0 0 Z " fill="#F8F8F8" transform="translate(137,72)"/>
<path d="M0 0 C2.78750144 1.39375072 2.89266287 3.16244861 4 6 C4.99 6.99 4.99 6.99 6 8 C6.37890625 10.06640625 6.37890625 10.06640625 6.5625 12.5625 C6.64113281 13.45839844 6.71976562 14.35429687 6.80078125 15.27734375 C6.92509897 16.97635262 7.03001598 18.67702702 7.10546875 20.37890625 C7.47005355 26.04475115 8.87233734 30.90935674 13 35 C18.33892599 37.87994631 22.93366828 38.5074365 28.9375 38.6875 C29.71673828 38.72166016 30.49597656 38.75582031 31.29882812 38.79101562 C33.19874393 38.8726071 35.09934403 38.93799885 37 39 C36.505 39.99 36.505 39.99 36 41 C34.7625 41.268125 33.525 41.53625 32.25 41.8125 C27.92254624 42.7784495 25.97631275 44.69298583 23 48 C18.3145494 50.92840662 13.34167742 50.59269652 8 50 C2.0168093 48.19992895 -1.86877227 44.54435051 -6 40 C-7.98 40.66 -9.96 41.32 -12 42 C-10.7934375 43.299375 -10.7934375 43.299375 -9.5625 44.625 C-7.03075864 47.62876093 -6.28342624 50.03203262 -6 54 C-6.66 54 -7.32 54 -8 54 C-8.474375 52.865625 -8.94875 51.73125 -9.4375 50.5625 C-10.63622083 47.24259834 -10.63622083 47.24259834 -12 46 C-14.41537838 45.58282721 -14.41537838 45.58282721 -17 46 C-19.27436849 48.35860436 -20.62660359 51.04191542 -22 54 C-22 52.02 -22 50.04 -22 48 C-30.43272784 53.93879343 -38.32103322 61.64206645 -43 71 C-41.88625 71.433125 -40.7725 71.86625 -39.625 72.3125 C-36 74 -36 74 -34 77 C-33.875 79.6875 -33.875 79.6875 -34 82 C-35.74627478 79.38058783 -36.38722388 77.96175123 -37 75 C-37.99 75 -38.98 75 -40 75 C-39.484375 75.4125 -38.96875 75.825 -38.4375 76.25 C-37.963125 76.8275 -37.48875 77.405 -37 78 C-37.3125 80.1875 -37.3125 80.1875 -38 82 C-38.3403125 81.0409375 -38.3403125 81.0409375 -38.6875 80.0625 C-39.85250896 77.72806339 -39.85250896 77.72806339 -42.625 77.25 C-43.40875 77.1675 -44.1925 77.085 -45 77 C-45.66 79.31 -46.32 81.62 -47 84 C-48.485 83.505 -48.485 83.505 -50 83 C-50.67291712 85.01875136 -51.34449625 87.0379531 -52.01171875 89.05859375 C-52.72516908 91.18202496 -53.45958898 93.29845042 -54.20703125 95.41015625 C-57.26623825 104.19959992 -59.399479 112.82628205 -61 122 C-59.90558594 121.78601563 -58.81117187 121.57203125 -57.68359375 121.3515625 C-54 121 -54 121 -51.0625 123.375 C-49 126 -49 126 -49 127 C-53.95 127 -58.9 127 -64 127 C-64.2494275 120.66160698 -63.39370136 115.14461123 -61.875 109 C-61.6490918 108.07936768 -61.42318359 107.15873535 -61.19042969 106.21020508 C-56.49917058 87.7066855 -48.92731612 70.2999076 -36 56 C-35.29101562 55.20980469 -34.58203125 54.41960937 -33.8515625 53.60546875 C-23.39574786 42.54431747 -9.70519892 36.26782198 5 33 C4.67 25.74 4.34 18.48 4 11 C3.34 11 2.68 11 2 11 C1.01 5.555 1.01 5.555 0 0 Z " fill="#1D1D1D" transform="translate(92,129)"/>
<path d="M0 0 C3.83699537 1.38214349 7.3888715 3.11296196 11 5 C11.91652344 5.43183594 12.83304688 5.86367187 13.77734375 6.30859375 C33.53776148 16.09180197 44.75290825 37.97457919 51.625 58 C59 80.19537214 59 80.19537214 59 91 C58.34 91 57.68 91 57 91 C56.35220924 88.60468067 55.70670991 86.20878252 55.0625 83.8125 C54.88009766 83.13896484 54.69769531 82.46542969 54.50976562 81.77148438 C53.73390088 78.87962488 53.00454109 76.02636647 52.49609375 73.07421875 C52.33238281 72.38972656 52.16867188 71.70523438 52 71 C51.34 70.67 50.68 70.34 50 70 C50 68.68 50 67.36 50 66 C49.67 67.65 49.34 69.3 49 71 C48.67 71 48.34 71 48 71 C47.87095943 65.45125563 47.87095943 65.45125563 48.65234375 62.71875 C50.09159258 51.46350072 38.01494665 34.50149831 31.6328125 25.6171875 C27.68768151 20.52969534 25.32381836 17.75121124 19 16 C18.67 15.67 18.34 15.34 18 15 C17.54625 15.495 17.0925 15.99 16.625 16.5 C15 18 15 18 13 18 C12.75 12.375 12.75 12.375 15 9 C9.69905784 7.19695845 4.39691512 5.49276376 -1 4 C-1.20625 4.5775 -1.4125 5.155 -1.625 5.75 C-3.49750888 8.81410544 -5.96958519 10.15539968 -9 12 C-8.21625 12.433125 -7.4325 12.86625 -6.625 13.3125 C-4 15 -4 15 -2 18 C-1.875 20.6875 -1.875 20.6875 -2 23 C-2.66 23 -3.32 23 -4 23 C-4.268125 22.05125 -4.53625 21.1025 -4.8125 20.125 C-5.74986588 16.74732727 -5.74986588 16.74732727 -9 15 C-11.64632287 15.3121764 -11.64632287 15.3121764 -14 16 C-14.66 18.64 -15.32 21.28 -16 24 C-16.66 24 -17.32 24 -18 24 C-17.25 17.375 -17.25 17.375 -15 14 C-15.59167969 13.96261719 -16.18335938 13.92523438 -16.79296875 13.88671875 C-25.37393768 13.17280453 -25.37393768 13.17280453 -29 10 C-29.625 7.390625 -29.625 7.390625 -30 5 C-29.19175781 4.74605469 -28.38351563 4.49210938 -27.55078125 4.23046875 C-26.48214844 3.88628906 -25.41351563 3.54210937 -24.3125 3.1875 C-23.25675781 2.85105469 -22.20101562 2.51460937 -21.11328125 2.16796875 C-17.99117057 1.13007166 -17.99117057 1.13007166 -15.48828125 -0.66796875 C-10.6019491 -3.28372898 -5.14240322 -1.29739531 0 0 Z " fill="#282628" transform="translate(160,165)"/>
<path d="M0 0 C0.66 0.33 1.32 0.66 2 1 C3.39195915 5.17587745 1.82323219 7.13474776 0 11 C-0.33 11 -0.66 11 -1 11 C-1 9.02 -1 7.04 -1 5 C-9.43272784 10.93879343 -17.32103322 18.64206645 -22 28 C-20.88625 28.433125 -19.7725 28.86625 -18.625 29.3125 C-15 31 -15 31 -13 34 C-12.875 36.6875 -12.875 36.6875 -13 39 C-14.74627478 36.38058783 -15.38722388 34.96175123 -16 32 C-16.99 32 -17.98 32 -19 32 C-18.2265625 32.61875 -18.2265625 32.61875 -17.4375 33.25 C-16.963125 33.8275 -16.48875 34.405 -16 35 C-16.3125 37.1875 -16.3125 37.1875 -17 39 C-17.3403125 38.0409375 -17.3403125 38.0409375 -17.6875 37.0625 C-18.85250896 34.72806339 -18.85250896 34.72806339 -21.625 34.25 C-22.40875 34.1675 -23.1925 34.085 -24 34 C-24.66 36.31 -25.32 38.62 -26 41 C-27.485 40.505 -27.485 40.505 -29 40 C-29.67291712 42.01875136 -30.34449625 44.0379531 -31.01171875 46.05859375 C-31.72516908 48.18202496 -32.45958898 50.29845042 -33.20703125 52.41015625 C-36.26623825 61.19959992 -38.399479 69.82628205 -40 79 C-38.90558594 78.78601563 -37.81117187 78.57203125 -36.68359375 78.3515625 C-33 78 -33 78 -30.0625 80.375 C-28 83 -28 83 -28 84 C-32.95 84 -37.9 84 -43 84 C-43.2494275 77.66160698 -42.39370136 72.14461123 -40.875 66 C-40.6490918 65.07936768 -40.42318359 64.15873535 -40.19042969 63.21020508 C-34.32247836 40.06551198 -22.949095 15.1923343 -2.4375 1.4375 C-1.2309375 0.7259375 -1.2309375 0.7259375 0 0 Z " fill="#151415" transform="translate(71,172)"/>
<path d="M0 0 C0.99 0.33 1.98 0.66 3 1 C1.92130607 1.96355244 0.83681257 2.92061417 -0.25 3.875 C-0.85328125 4.40867188 -1.4565625 4.94234375 -2.078125 5.4921875 C-3.97418746 6.9797487 -5.81290005 8.00322436 -8 9 C-7.48967606 12.77639718 -6.79233071 14.44722581 -4 17 C-14.37357631 22.37129841 -14.37357631 22.37129841 -20 24 C-20 24.99 -20 25.98 -20 27 C-21.32 25.68 -22.64 24.36 -24 23 C-21.32449708 20.32449708 -19.05120106 20.16790611 -15.375 19.375 C-14.18648437 19.11460937 -12.99796875 18.85421875 -11.7734375 18.5859375 C-10.40058594 18.29589844 -10.40058594 18.29589844 -9 18 C-9 17.34 -9 16.68 -9 16 C-9.86625 16.05671875 -10.7325 16.1134375 -11.625 16.171875 C-17.42363512 15.87657414 -22.00516633 12.77414838 -27 10 C-27.68449219 9.62101563 -28.36898437 9.24203125 -29.07421875 8.8515625 C-32.82266178 6.58252919 -32.82266178 6.58252919 -33.64453125 3.8828125 C-33.76183594 3.26148438 -33.87914063 2.64015625 -34 2 C-33.030625 2.66 -32.06125 3.32 -31.0625 4 C-24.46365024 7.27585756 -16.16508423 7.29541283 -9 6 C-6.12371814 4.66873526 -4.03495253 3.29763758 -1.6640625 1.21484375 C-1.11492187 0.81394531 -0.56578125 0.41304687 0 0 Z " fill="#151415" transform="translate(151,147)"/>
<path d="M0 0 C3 1 3 1 4 3 C7.54518884 1.60240095 7.54518884 1.60240095 11 0 C13.8125 -0.375 13.8125 -0.375 17 0 C19.57285724 2.172635 21.48996919 3.97993838 23 7 C23.039992 8.99960012 23.04346799 11.00047242 23 13 C22.34 13 21.68 13 21 13 C20.34 10.36 19.68 7.72 19 5 C18.67 5 18.34 5 18 5 C18.33 6.98 18.66 8.96 19 11 C16.48916886 9.74458443 16.12874554 8.49936512 15 6 C13.35 6.33 11.7 6.66 10 7 C8.49758946 12.75924041 9.53060555 15.89428502 11.87890625 21.2734375 C15.55241774 30.20762224 16.55213079 39.42486515 17 49 C16.34 49 15.68 49 15 49 C14.87471924 48.37134033 14.74943848 47.74268066 14.62036133 47.0949707 C11.53376844 31.79078925 7.6411883 18.27363572 0.91796875 4.14453125 C0 2 0 2 0 0 Z " fill="#0F0F0F" transform="translate(175,207)"/>
<path d="M0 0 C1.2375 0.804375 1.2375 0.804375 2.5 1.625 C5.46982099 2.45695325 8.46844455 3.06360084 11.5 3.625 C10.20889977 6.54505847 9.62565442 7.54123039 6.875 9.375 C1.21234528 11.47227953 -3.25098797 11.44694233 -8.6875 9 C-12.60217216 6.85349337 -14.89106227 4.21228938 -17.5 0.625 C-11.89961564 -1.67259358 -5.51094931 -3.03102212 0 0 Z " fill="#F9F9F9" transform="translate(105.5,166.375)"/>
<path d="M0 0 C0.86367187 0.09023437 1.72734375 0.18046875 2.6171875 0.2734375 C4.84860645 0.58625324 6.95442758 1.02935454 9.125 1.625 C7.63021886 5.42989745 5.43057786 7.28690835 2.125 9.625 C-3.03679143 11.34559714 -9.15554939 11.95907011 -14.15234375 9.5078125 C-16.0625 8.125 -16.0625 8.125 -18.875 5.625 C-16.54328982 3.29328982 -15.0200503 2.93561716 -11.875 2.0625 C-3.25048206 -0.35687785 -3.25048206 -0.35687785 0 0 Z " fill="#F5F5F5" transform="translate(148.875,165.375)"/>
<path d="M0 0 C5.89862382 1.96620794 9.16323281 9.70183465 12 15 C19.85826985 31.39285214 25.0540214 48.9343479 27 67 C26.34 67 25.68 67 25 67 C24.35220924 64.60468067 23.70670991 62.20878252 23.0625 59.8125 C22.78889648 58.80219727 22.78889648 58.80219727 22.50976562 57.77148438 C21.73390088 54.87962488 21.00454109 52.02636647 20.49609375 49.07421875 C20.33238281 48.38972656 20.16867188 47.70523438 20 47 C19.34 46.67 18.68 46.34 18 46 C18 44.68 18 43.36 18 42 C17.67 43.65 17.34 45.3 17 47 C16.67 47 16.34 47 16 47 C15.87095943 41.45125563 15.87095943 41.45125563 16.65234375 38.71875 C17.8858058 29.07279959 8.69155518 16.53156073 3.953125 8.4609375 C2.37307276 5.66108493 1.08597408 3.01531102 0 0 Z " fill="#241E23" transform="translate(192,189)"/>
<path d="M0 0 C2.9375 1.625 2.9375 1.625 5 4 C5.3125 7.25 5.3125 7.25 5 10 C1.85069107 11.04976964 -0.38814456 11.10131595 -3.6875 11.0625 C-4.68136719 11.05347656 -5.67523438 11.04445313 -6.69921875 11.03515625 C-7.83810547 11.01775391 -7.83810547 11.01775391 -9 11 C-10.39935013 8.20129973 -10.25265405 6.09501208 -10 3 C-7.71588862 -1.03078478 -4.21879674 -0.50916512 0 0 Z " fill="#E3E3E3" transform="translate(75,245)"/>
<path d="M0 0 C0.33 0.66 0.66 1.32 1 2 C1.66 2 2.32 2 3 2 C1.68 8.27 0.36 14.54 -1 21 C2.465 20.505 2.465 20.505 6 20 C8.9375 22.375 8.9375 22.375 11 25 C11 25.33 11 25.66 11 26 C6.05 26 1.1 26 -4 26 C-4.22615016 19.83740819 -3.44149898 14.48027281 -2 8.5 C-1.71382812 7.26636719 -1.71382812 7.26636719 -1.421875 6.0078125 C-0.95572696 4.00337593 -0.47897024 2.00141137 0 0 Z " fill="#2B252A" transform="translate(32,230)"/>
<path d="M0 0 C0.66 0 1.32 0 2 0 C1.51611999 3.09683208 0.73174362 5.68768486 -0.4140625 8.625 C-2.07926461 13.01084924 -3.12993001 17.4091429 -4.0625 22 C-4.23168945 22.81509033 -4.40087891 23.63018066 -4.57519531 24.4699707 C-6.14415513 32.26564532 -7.17136374 40.09524616 -8 48 C-8.66 48 -9.32 48 -10 48 C-10.16051911 41.26979025 -9.78666751 34.83748648 -8.75 28.1875 C-8.61722656 27.32310303 -8.48445313 26.45870605 -8.34765625 25.56811523 C-6.91052557 16.71542321 -5.21496095 7.48292574 0 0 Z " fill="#292929" transform="translate(69,208)"/>
<path d="M0 0 C2.375 0.3125 2.375 0.3125 5 1 C7.1519437 4.22791555 7.20086443 5.28400809 7 9 C6.01 8.34 5.02 7.68 4 7 C4.33 8.65 4.66 10.3 5 12 C4.01 11.67 3.02 11.34 2 11 C3.3089572 14.12197478 3.3089572 14.12197478 6 16 C6.4140625 18.06640625 6.4140625 18.06640625 6.625 20.5625 C6.69976562 21.38878906 6.77453125 22.21507813 6.8515625 23.06640625 C6.90054688 23.70449219 6.94953125 24.34257813 7 25 C6.34 25 5.68 25 5 25 C-3.20512066 10.09682166 -3.20512066 10.09682166 -2 3 C-1.34 2.01 -0.68 1.02 0 0 Z " fill="#F0F0F0" transform="translate(85,102)"/>
<path d="M0 0 C2.78750144 1.39375072 2.89266287 3.16244861 4 6 C4.66 6.66 5.32 7.32 6 8 C6.37890625 10.06640625 6.37890625 10.06640625 6.5625 12.5625 C6.64113281 13.45839844 6.71976562 14.35429687 6.80078125 15.27734375 C6.92509897 16.97635262 7.03001598 18.67702702 7.10546875 20.37890625 C7.47887559 26.18185043 8.98496166 30.66985738 13 35 C15.33779526 36.44236644 17.34997853 37.16862071 20 38 C19.67 38.66 19.34 39.32 19 40 C15.62537285 39.45276317 13.91765 38.9451 11 37 C8.25481679 36.75812349 8.25481679 36.75812349 5.3125 36.875 C4.31863281 36.89304688 3.32476562 36.91109375 2.30078125 36.9296875 C1.54152344 36.95289063 0.78226562 36.97609375 0 37 C-0.495 35.515 -0.495 35.515 -1 34 C1.97 33.505 1.97 33.505 5 33 C4.67 25.74 4.34 18.48 4 11 C3.34 11 2.68 11 2 11 C1.34 7.37 0.68 3.74 0 0 Z " fill="#242224" transform="translate(92,129)"/>
<path d="M0 0 C-1 2 -1 2 -4 4 C-7 5 -10 6 -13 7 C-12.195625 7.86625 -11.39125 8.7325 -10.5625 9.625 C-8.03075864 12.62876093 -7.28342624 15.03203262 -7 19 C-7.66 19 -8.32 19 -9 19 C-9.474375 17.865625 -9.94875 16.73125 -10.4375 15.5625 C-11.63622083 12.24259834 -11.63622083 12.24259834 -13 11 C-15.33297433 10.95907063 -17.66705225 10.95758277 -20 11 C-20.33 10.34 -20.66 9.68 -21 9 C-18.37048142 5.89493019 -15.28109747 4.50668704 -11.625 2.8125 C-10.50351563 2.28269531 -9.38203125 1.75289062 -8.2265625 1.20703125 C-5.17843287 0.06675031 -3.20572066 -0.270145 0 0 Z " fill="#121012" transform="translate(93,164)"/>
<path d="M0 0 C3.41057082 2.27371388 3.48453084 2.72135179 4.3515625 6.5078125 C4.56296875 7.41273438 4.774375 8.31765625 4.9921875 9.25 C5.20101562 10.19875 5.40984375 11.1475 5.625 12.125 C5.8415625 13.05054688 6.058125 13.97609375 6.28125 14.9296875 C7.50432929 20.27499701 8.42267013 25.54744012 9 31 C8.34 31 7.68 31 7 31 C6.35220924 28.60468067 5.70670991 26.20878252 5.0625 23.8125 C4.78889648 22.80219727 4.78889648 22.80219727 4.50976562 21.77148438 C3.73390088 18.87962488 3.00454109 16.02636647 2.49609375 13.07421875 C2.33238281 12.38972656 2.16867188 11.70523438 2 11 C1.34 10.67 0.68 10.34 0 10 C0 8.68 0 7.36 0 6 C-0.33 7.65 -0.66 9.3 -1 11 C-1.33 11 -1.66 11 -2 11 C-2.19622241 6.78121808 -1.80230168 3.82989106 0 0 Z " fill="#191619" transform="translate(210,225)"/>
<path d="M0 0 C3.36008858 1.14385994 4.36214938 1.84929875 5.9375 5 C6.125 7.75 6.125 7.75 5.9375 10 C4.79319741 8.28354611 3.66032777 6.55904417 2.5625 4.8125 C2.02625 4.214375 1.49 3.61625 0.9375 3 C-0.3825 3 -1.7025 3 -3.0625 3 C-1.61495745 4.44754255 -0.02287087 4.55733561 1.9375 5 C2.2675 6.32 2.5975 7.64 2.9375 9 C-0.84437881 10.83691257 -3.00818308 11.15837626 -7.0625 10 C-7.38607362 6.44069018 -7.4505551 4.58208265 -5.4375 1.5625 C-3.0625 0 -3.0625 0 0 0 Z " fill="#3F3F3F" transform="translate(51.0625,229)"/>
<path d="M0 0 C1.8125 1.375 1.8125 1.375 3 3 C3 3.66 3 4.32 3 5 C3.66 5 4.32 5 5 5 C5 5.66 5 6.32 5 7 C-0.61 7 -6.22 7 -12 7 C-10.26061532 1.78184596 -5.45621836 -1.03225753 0 0 Z " fill="#0C0C0C" transform="translate(142,135)"/>
<path d="M0 0 C2.7682485 1.81368005 2.97690674 2.89293126 3.6875 6.1875 C3.790625 7.115625 3.89375 8.04375 4 9 C3.34 9 2.68 9 2 9 C1.34 7.02 0.68 5.04 0 3 C-2.97 2.505 -2.97 2.505 -6 2 C-4.99582818 3.18216948 -4.99582818 3.18216948 -3.0625 3.4375 C-1 4 -1 4 1 6 C1 6.99 1 7.98 1 9 C-0.65 9 -2.3 9 -4 9 C-4.33 7.68 -4.66 6.36 -5 5 C-5 6.65 -5 8.3 -5 10 C-6.32 10 -7.64 10 -9 10 C-9.36090226 2.66165414 -9.36090226 2.66165414 -7.875 -0.0625 C-4.96809988 -1.51595006 -3.0525661 -0.89033178 0 0 Z " fill="#313131" transform="translate(157,230)"/>
<path d="M0 0 C3.02245069 0.08792584 4.0062956 0.29784214 6.625 2 C8.50456836 4.97598323 8.43924507 6.91830418 8.125 10.375 C7.83625 9.776875 7.5475 9.17875 7.25 8.5625 C6.07757974 6.18172208 6.07757974 6.18172208 4.125 3.375 C0.54142759 3.12484127 0.54142759 3.12484127 -2.875 3.375 C-2.875 3.705 -2.875 4.035 -2.875 4.375 C-2.545 4.045 -2.215 3.715 -1.875 3.375 C0.5625 3.1875 0.5625 3.1875 3.125 3.375 C3.785 4.035 4.445 4.695 5.125 5.375 C4.75 7.5 4.75 7.5 4.125 9.375 C3.795 8.385 3.465 7.395 3.125 6.375 C1.475 6.045 -0.175 5.715 -1.875 5.375 C-1.875 6.035 -1.875 6.695 -1.875 7.375 C-0.555 7.375 0.765 7.375 2.125 7.375 C2.125 8.035 2.125 8.695 2.125 9.375 C-0.515 9.705 -3.155 10.035 -5.875 10.375 C-6.0703125 4.3203125 -6.0703125 4.3203125 -5.875 2.375 C-3.875 0.375 -3.875 0.375 0 0 Z " fill="#1E1E1E" transform="translate(174.875,244.625)"/>
<path d="M0 0 C2.57285724 2.172635 4.48996919 3.97993838 6 7 C6.039992 8.99960012 6.04346799 11.00047242 6 13 C5.34 13 4.68 13 4 13 C3.89042969 12.43410156 3.78085938 11.86820313 3.66796875 11.28515625 C3.50941406 10.55167969 3.35085937 9.81820312 3.1875 9.0625 C3.03667969 8.33160156 2.88585937 7.60070312 2.73046875 6.84765625 C2.48941406 6.23792969 2.24835938 5.62820312 2 5 C-2.00211819 3.6659606 -4.07963644 4.59987016 -8 6 C-9.90170054 7.47761659 -9.90170054 7.47761659 -11 9 C-11 7.68 -11 6.36 -11 5 C-11.66 4.67 -12.32 4.34 -13 4 C-5.16961498 -1.01144641 -5.16961498 -1.01144641 0 0 Z " fill="#595959" transform="translate(192,207)"/>
<path d="M0 0 C5.76671034 8.6500655 6.65874474 20.88178149 7 31 C6.34 31 5.68 31 5 31 C4.18507328 27.29219569 3.3734916 23.58366684 2.5625 19.875 C2.33240234 18.82828125 2.10230469 17.7815625 1.86523438 16.703125 C-1.24031181 2.48062362 -1.24031181 2.48062362 0 0 Z " fill="#1E1E1E" transform="translate(185,225)"/>
<path d="M0 0 C1.76462683 3.08809695 2 4.23312136 2 8 C1.34 8 0.68 8 0 8 C-0.33 7.01 -0.66 6.02 -1 5 C-1.99 6.485 -1.99 6.485 -3 8 C-3.33 7.01 -3.66 6.02 -4 5 C-4.66 5 -5.32 5 -6 5 C-6 5.66 -6 6.32 -6 7 C-7.32 7.33 -8.64 7.66 -10 8 C-10.1875 5.125 -10.1875 5.125 -10 2 C-6.3558226 -0.4294516 -4.28758728 -0.16179575 0 0 Z " fill="#979797" transform="translate(89,211)"/>
<path d="M0 0 C2.375 0.8125 2.375 0.8125 4.375 2.8125 C4.375 4.1325 4.375 5.4525 4.375 6.8125 C0.415 6.8125 -3.545 6.8125 -7.625 6.8125 C-6.625 2.8125 -6.625 2.8125 -4.875 1 C-2.625 -0.1875 -2.625 -0.1875 0 0 Z " fill="#353535" transform="translate(140.625,249.1875)"/>
<path d="M0 0 C-0.33 0.99 -0.66 1.98 -1 3 C-1.66 2.67 -2.32 2.34 -3 2 C-3.17015625 2.52207031 -3.3403125 3.04414063 -3.515625 3.58203125 C-5.55240658 9.7682136 -7.74962705 15.88858108 -10 22 C-10.66 22 -11.32 22 -12 22 C-11.55919457 14.50630773 -9.19502624 7.77823324 -6 1 C-4 0 -4 0 0 0 Z " fill="#262126" transform="translate(45,210)"/>
<path d="M0 0 C0.33 0 0.66 0 1 0 C1.1875 2.3125 1.1875 2.3125 1 5 C-0.375 6.5625 -0.375 6.5625 -2 8 C-3.17574711 10.09989652 -3.17574711 10.09989652 -4 12 C-5.65 11.67 -7.3 11.34 -9 11 C-9 10.01 -9 9.02 -9 8 C-8.34 8 -7.68 8 -7 8 C-8.32 6.35 -9.64 4.7 -11 3 C-7.37 3 -3.74 3 0 3 C0 2.01 0 1.02 0 0 Z " fill="#808080" transform="translate(158,109)"/>
<path d="M0 0 C3.125 0.375 3.125 0.375 5.5 2.125 C7.125 4.375 7.125 4.375 7.125 8.375 C2.375 6.5 2.375 6.5 0.125 5.375 C-0.205 6.365 -0.535 7.355 -0.875 8.375 C-1.205 7.055 -1.535 5.735 -1.875 4.375 C-2.205 6.025 -2.535 7.675 -2.875 9.375 C-3.535 9.375 -4.195 9.375 -4.875 9.375 C-5 6 -5 6 -4.875 2.375 C-2.875 0.375 -2.875 0.375 0 0 Z " fill="#282828" transform="translate(151.875,203.625)"/>
<path d="M0 0 C0.33 0 0.66 0 1 0 C1.13277344 0.75925781 1.26554688 1.51851563 1.40234375 2.30078125 C1.57894531 3.29464844 1.75554687 4.28851563 1.9375 5.3125 C2.11152344 6.29863281 2.28554687 7.28476563 2.46484375 8.30078125 C2.95746847 11.08189213 2.95746847 11.08189213 4 14 C4.125 17.625 4.125 17.625 4 21 C3 22 3 22 0.49609375 22.09765625 C-0.51324219 22.08605469 -1.52257812 22.07445313 -2.5625 22.0625 C-3.57441406 22.05347656 -4.58632812 22.04445313 -5.62890625 22.03515625 C-6.41136719 22.02355469 -7.19382813 22.01195313 -8 22 C-8 21.01 -8 20.02 -8 19 C-4.7 19.33 -1.4 19.66 2 20 C1.67515625 18.82244141 1.67515625 18.82244141 1.34375 17.62109375 C-1.51771957 6.82434515 -1.51771957 6.82434515 -1 1 C-0.67 0.67 -0.34 0.34 0 0 Z " fill="#252525" transform="translate(143,105)"/>
<path d="M0 0 C3.625 0.3125 3.625 0.3125 5.5625 2.0625 C6.625 4.3125 6.625 4.3125 6.625 8.3125 C4.21954362 9.51522819 2.67503047 9.41321472 0 9.375 C-1.22589844 9.36146484 -1.22589844 9.36146484 -2.4765625 9.34765625 C-3.41628906 9.33025391 -3.41628906 9.33025391 -4.375 9.3125 C-4.045 8.6525 -3.715 7.9925 -3.375 7.3125 C-1.725 7.3125 -0.075 7.3125 1.625 7.3125 C1.625 6.6525 1.625 5.9925 1.625 5.3125 C0.305 5.3125 -1.015 5.3125 -2.375 5.3125 C-2.375 4.6525 -2.375 3.9925 -2.375 3.3125 C-0.725 3.3125 0.925 3.3125 2.625 3.3125 C2.625 2.9825 2.625 2.6525 2.625 2.3125 C0.25125139 1.97824265 0.25125139 1.97824265 -2.375 2.3125 C-4.21815671 4.2129467 -4.21815671 4.2129467 -5.375 6.3125 C-4.31367697 0.39941453 -4.31367697 0.39941453 0 0 Z " fill="#DFDFDF" transform="translate(175.375,246.6875)"/>
<path d="M0 0 C4.45724247 1.4189423 6.99490298 3.61905528 10.25 6.9375 C11.12140625 7.81277344 11.9928125 8.68804687 12.890625 9.58984375 C15 12 15 12 16 15 C15.01 15 14.02 15 13 15 C11.78625061 13.49101428 10.57572166 11.97901072 9.3984375 10.44140625 C7.93552339 8.69700542 7.93552339 8.69700542 4.8125 8.0625 C3.884375 7.711875 2.95625 7.36125 2 7 C0.625 3.375 0.625 3.375 0 0 Z " fill="#242123" transform="translate(177,174)"/>
<path d="M0 0 C2.91320408 0.73225202 4.65067852 2.22417871 6.36328125 4.67578125 C7.7923346 8.02424939 7.46974324 10.95175971 7.16015625 14.54296875 C6.50015625 14.54296875 5.84015625 14.54296875 5.16015625 14.54296875 C5.01320313 13.49496094 5.01320313 13.49496094 4.86328125 12.42578125 C4.71375 11.51570312 4.56421875 10.605625 4.41015625 9.66796875 C4.2709375 8.76304687 4.13171875 7.858125 3.98828125 6.92578125 C3.37771404 4.42174166 3.37771404 4.42174166 1.2734375 3.21484375 C-1.78429011 2.24270115 -3.7880117 2.63391239 -6.83984375 3.54296875 C-8.65347367 5.3499115 -8.65347367 5.3499115 -9.83984375 7.54296875 C-10.49984375 8.53296875 -11.15984375 9.52296875 -11.83984375 10.54296875 C-12.34693804 6.99330874 -11.97022361 5.73222984 -9.90234375 2.73046875 C-6.33221875 0.18037946 -4.30626829 -0.26599654 0 0 Z " fill="#222222" transform="translate(122.83984375,224.45703125)"/>
<path d="M0 0 C3.18882208 0.2311502 4.67962127 0.68844069 7.5625 2.25 C9.93723207 5.06999433 10.31460718 6.98923871 10.5625 10.625 C9.9025 10.625 9.2425 10.625 8.5625 10.625 C8.294375 9.67625 8.02625 8.7275 7.75 7.75 C6.81263412 4.37232727 6.81263412 4.37232727 3.5625 2.625 C-0.52491805 2.13303014 -0.52491805 2.13303014 -4.08203125 3.8515625 C-5.77566182 6.0674365 -5.92490671 7.55121265 -6.125 10.3125 C-6.22361328 11.52486328 -6.22361328 11.52486328 -6.32421875 12.76171875 C-6.36160156 13.37660156 -6.39898437 13.99148437 -6.4375 14.625 C-7.0975 14.625 -7.7575 14.625 -8.4375 14.625 C-8.7516159 10.0703195 -8.74807242 7.38117632 -7 3.125 C-4.22755553 0.42017612 -3.67355551 0.18367778 0 0 Z " fill="#272727" transform="translate(151.4375,200.375)"/>
<path d="M0 0 C5.53026034 3.33902511 5.53026034 3.33902511 6.59765625 7.11328125 C6.875 9.3125 6.875 9.3125 7 13 C6.34 13 5.68 13 5 13 C4.57682292 10.98177083 4.15364583 8.96354167 3.73046875 6.9453125 C3.07691162 4.62953451 3.07691162 4.62953451 0 3 C-3.4103976 2.78685015 -5.74531799 2.915106 -9 4 C-9.80212628 5.87387216 -9.80212628 5.87387216 -10.1875 8.0625 C-10.34605469 8.79597656 -10.50460938 9.52945313 -10.66796875 10.28515625 C-10.83232422 11.13400391 -10.83232422 11.13400391 -11 12 C-11.33 12 -11.66 12 -12 12 C-12.35671933 8.16526716 -12.29771416 6.44657125 -10.125 3.1875 C-6.82949019 -0.20493657 -4.68335942 -0.54038763 0 0 Z " fill="#1F1F1F" transform="translate(88,207)"/>
<path d="M0 0 C0.33 0 0.66 0 1 0 C0.85775413 2.52108103 0.71129879 5.04180403 0.5625 7.5625 C0.52318359 8.26697266 0.48386719 8.97144531 0.44335938 9.69726562 C0.17481721 14.1798541 -0.30616197 18.56293497 -1 23 C-1.66 23 -2.32 23 -3 23 C-3.29862397 15.50122022 -2.6547456 8.33161007 -1 1 C-0.67 0.67 -0.34 0.34 0 0 Z " fill="#202020" transform="translate(62,233)"/>
<path d="M0 0 C3.26672932 0.62794581 4.29493737 1.23474607 7.0625 3.4375 C11.55590287 6.83207946 16.5262993 7.33682107 22 8 C22 8.66 22 9.32 22 10 C15.42258205 10.54811816 10.44973552 9.90959287 5 6 C3.08629074 4.09558059 1.5964184 2.1950753 0 0 Z " fill="#141414" transform="translate(87,169)"/>
<path d="M0 0 C1.134375 0.020625 2.26875 0.04125 3.4375 0.0625 C4.0975 1.7125 4.7575 3.3625 5.4375 5.0625 C1.4775 5.0625 -2.4825 5.0625 -6.5625 5.0625 C-4.06692478 0.07134956 -4.06692478 0.07134956 0 0 Z " fill="#A2A2A2" transform="translate(206.5625,250.9375)"/>
<path d="M0 0 C1.546875 0.185625 1.546875 0.185625 3.125 0.375 C4.115 2.025 5.105 3.675 6.125 5.375 C2.165 5.375 -1.795 5.375 -5.875 5.375 C-3.40988372 0.44476744 -3.40988372 0.44476744 0 0 Z " fill="#5D5D5D" transform="translate(102.875,250.625)"/>
<path d="M0 0 C2.9375 1.6875 2.9375 1.6875 5 4 C5.3125 6.75 5.3125 6.75 5 9 C4.34 9 3.68 9 3 9 C2.67 7.02 2.34 5.04 2 3 C-0.97 2.67 -3.94 2.34 -7 2 C-7.33 4.64 -7.66 7.28 -8 10 C-8.66 9.67 -9.32 9.34 -10 9 C-10.35789474 3.63157895 -10.35789474 3.63157895 -8.9375 1.125 C-5.8385295 -0.67440223 -3.50712967 -0.42327427 0 0 Z " fill="#323232" transform="translate(75,245)"/>
<path d="M0 0 C4.01868507 1.33956169 5.12247846 3.90964739 7.1875 7.375 C7.55552734 7.96539062 7.92355469 8.55578125 8.30273438 9.1640625 C10.01741309 11.98898773 11 13.63751052 11 17 C10.34 17 9.68 17 9 17 C7.36136603 14.56866946 5.85078666 12.15228465 4.375 9.625 C3.95476562 8.92632812 3.53453125 8.22765625 3.1015625 7.5078125 C0 2.27140828 0 2.27140828 0 0 Z " fill="#141114" transform="translate(192,189)"/>
<path d="M0 0 C2.29013653 3.4352048 2.17842973 4.985331 2 9 C1.34 9 0.68 9 0 9 C-0.33 7.02 -0.66 5.04 -1 3 C-3.31 3 -5.62 3 -8 3 C-8.33 4.65 -8.66 6.3 -9 8 C-9.33 8 -9.66 8 -10 8 C-10.21917317 5.29686424 -10.32851983 3.56041618 -8.9375 1.1875 C-5.91496844 -0.66501934 -3.45067281 -0.37643703 0 0 Z " fill="#1C1C1C" transform="translate(124,228)"/>
<path d="M0 0 C2 0.6875 2 0.6875 4 2.6875 C4 3.6775 4 4.6675 4 5.6875 C1.03 5.6875 -1.94 5.6875 -5 5.6875 C-4.625 3.25 -4.625 3.25 -4 0.6875 C-2 -0.3125 -2 -0.3125 0 0 Z " fill="#636363" transform="translate(78,176.3125)"/>
<path d="M0 0 C2.78750144 1.39375072 2.89266287 3.16244861 4 6 C4.66 6.66 5.32 7.32 6 8 C6.1953125 11.0390625 6.1953125 11.0390625 6.125 14.625 C6.10695313 15.81351563 6.08890625 17.00203125 6.0703125 18.2265625 C6.04710938 19.14179688 6.02390625 20.05703125 6 21 C4.05841983 17.48375245 3.81688932 15.0284349 4 11 C3.34 11 2.68 11 2 11 C1.34 7.37 0.68 3.74 0 0 Z " fill="#503E4E" transform="translate(92,129)"/>
<path d="M0 0 C1.67542976 0.28604898 3.34385343 0.61781233 5 1 C5.33 2.32 5.66 3.64 6 5 C3.36 5.33 0.72 5.66 -2 6 C-1.125 1.125 -1.125 1.125 0 0 Z " fill="#585858" transform="translate(112,197)"/>
<path d="M0 0 C2.375 -0.125 2.375 -0.125 5 0 C5.66 0.66 6.32 1.32 7 2 C6.625 4.125 6.625 4.125 6 6 C5.67 5.01 5.34 4.02 5 3 C3.35 2.67 1.7 2.34 0 2 C0 2.66 0 3.32 0 4 C1.32 4 2.64 4 4 4 C4 4.66 4 5.32 4 6 C1.36 6.33 -1.28 6.66 -4 7 C-2.68 4.69 -1.36 2.38 0 0 Z " fill="#4E4E4E" transform="translate(173,248)"/>
<path d="M0 0 C2.5 0.125 2.5 0.125 5 1 C6.3125 3.0625 6.3125 3.0625 7 5 C6.01 5.33 5.02 5.66 4 6 C4 5.34 4 4.68 4 4 C3.34 4 2.68 4 2 4 C2 4.99 2 5.98 2 7 C1.34 7 0.68 7 0 7 C-0.66 5.35 -1.32 3.7 -2 2 C-1.34 1.34 -0.68 0.68 0 0 Z " fill="#8D8D8D" transform="translate(47,205)"/>
<path d="M0 0 C2.875 -0.4375 2.875 -0.4375 6 0 C8.375 2 8.375 2 10 4 C9.01 5.485 9.01 5.485 8 7 C7.34 5.68 6.68 4.36 6 3 C3.55519921 3.18828772 3.55519921 3.18828772 1 4 C-0.36020151 5.96758273 -0.36020151 5.96758273 -1 8 C-1.625 5.6875 -1.625 5.6875 -2 3 C-1.34 2.01 -0.68 1.02 0 0 Z " fill="#D3D3D3" transform="translate(110,195)"/>
<path d="M0 0 C0.66 1.65 1.32 3.3 2 5 C1.4225 4.649375 0.845 4.29875 0.25 3.9375 C-2.4388193 2.81715862 -3.31641572 2.9936559 -6 4 C-7.3479743 4.63654342 -8.68596724 5.29605388 -10 6 C-7.83322503 -0.036016 -6.28508493 -0.13663228 0 0 Z " fill="#1E1E1E" transform="translate(127,99)"/>
<path d="M0 0 C0.598125 0.20625 1.19625 0.4125 1.8125 0.625 C2.9375 4.375 2.9375 4.375 1.8125 6.625 C-0.1875 6.625 -0.1875 6.625 -1.8125 5.125 C-2.26625 4.63 -2.72 4.135 -3.1875 3.625 C-3.5175 4.285 -3.8475 4.945 -4.1875 5.625 C-4.5175 4.305 -4.8475 2.985 -5.1875 1.625 C-2.1875 -0.375 -2.1875 -0.375 0 0 Z " fill="#969696" transform="translate(189.1875,212.375)"/>
<path d="M0 0 C2.5625 0.375 2.5625 0.375 4.375 2.375 C4.766875 3.035 5.15875 3.695 5.5625 4.375 C2.5625 4.375 2.5625 4.375 0.5 3.8125 C-1.5049281 3.14486497 -1.5049281 3.14486497 -3.4375 4.375 C-4.16443904 6.35388961 -4.83566251 8.35454558 -5.4375 10.375 C-6.0975 10.045 -6.7575 9.715 -7.4375 9.375 C-3.8599924 0.59384498 -3.8599924 0.59384498 0 0 Z " fill="#E2E2E2" transform="translate(77.4375,173.625)"/>
<path d="M0 0 C3.3 0 6.6 0 10 0 C10 0.66 10 1.32 10 2 C8.25 3.6875 8.25 3.6875 6 5 C3.75 4.6875 3.75 4.6875 2 4 C2 3.34 2 2.68 2 2 C1.34 2 0.68 2 0 2 C0 1.34 0 0.68 0 0 Z " fill="#0B0B0B" transform="translate(119,112)"/>
<path d="M0 0 C2.31 0.33 4.62 0.66 7 1 C7.33 1.99 7.66 2.98 8 4 C4.7 4 1.4 4 -2 4 C-1.34 2.68 -0.68 1.36 0 0 Z " fill="#AAAAAA" transform="translate(33,252)"/>
<path d="M0 0 C1.2684375 0.12375 1.2684375 0.12375 2.5625 0.25 C4.5625 3.25 4.5625 3.25 4.5625 6.25 C3.9025 6.25 3.2425 6.25 2.5625 6.25 C2.2325 5.26 1.9025 4.27 1.5625 3.25 C-0.45258358 2.51676204 -0.45258358 2.51676204 -2.4375 2.25 C-2.4375 2.91 -2.4375 3.57 -2.4375 4.25 C-1.1175 4.58 0.2025 4.91 1.5625 5.25 C-0.51303648 5.8034764 -2.28115964 6.25 -4.4375 6.25 C-3.37788848 0.3464501 -3.37788848 0.3464501 0 0 Z " fill="#3B3B3B" transform="translate(72.4375,247.75)"/>
<path d="M0 0 C1.76462683 3.08809695 2 4.23312136 2 8 C1.34 8 0.68 8 0 8 C-0.66 6.02 -1.32 4.04 -2 2 C-4.45224694 2.10613836 -4.45224694 2.10613836 -7 3 C-8.37466625 5.47636012 -8.37466625 5.47636012 -9 8 C-9.33 8 -9.66 8 -10 8 C-10.1875 5.125 -10.1875 5.125 -10 2 C-6.3558226 -0.4294516 -4.28758728 -0.16179575 0 0 Z " fill="#191919" transform="translate(89,211)"/>
<path d="M0 0 C3 2 3 2 3.6875 4.625 C3.790625 5.40875 3.89375 6.1925 4 7 C3.34 7 2.68 7 2 7 C2 7.99 2 8.98 2 10 C1.34 10 0.68 10 0 10 C0 8.68 0 7.36 0 6 C-0.33 7.65 -0.66 9.3 -1 11 C-1.33 11 -1.66 11 -2 11 C-2.19622241 6.78121808 -1.80230168 3.82989106 0 0 Z " fill="#262325" transform="translate(210,225)"/>
<path d="M0 0 C0.99 0 1.98 0 3 0 C3.6875 3.3125 3.6875 3.3125 4 7 C2.6875 8.9375 2.6875 8.9375 1 10 C0.34 10 -0.32 10 -1 10 C-1.08004482 6.4780279 -1.04005702 3.38018531 0 0 Z " fill="#3C3B3C" transform="translate(174,173)"/>
<path d="M0 0 C-7.11389522 6.51936219 -7.11389522 6.51936219 -12 8 C-12 7.01 -12 6.02 -12 5 C-10.13671875 3.359375 -10.13671875 3.359375 -7.6875 1.75 C-6.88699219 1.20859375 -6.08648437 0.6671875 -5.26171875 0.109375 C-3 -1 -3 -1 0 0 Z " fill="#1D191C" transform="translate(154,148)"/>
<path d="M0 0 C3.63 0 7.26 0 11 0 C9.68 1.65 8.36 3.3 7 5 C3.90837736 3.61410019 2.50816459 2.50816459 0 0 Z " fill="#040404" transform="translate(147,112)"/>
<path d="M0 0 C5.625387 3.30185759 5.625387 3.30185759 7.375 6.5625 C8 9 8 9 8 12 C7.34 12 6.68 12 6 12 C5.4121875 10.3603125 5.4121875 10.3603125 4.8125 8.6875 C3.2974477 5.08925078 1.60153162 3.65475777 -2 2 C-1.34 1.34 -0.68 0.68 0 0 Z " fill="#4A4A4A" transform="translate(78,171)"/>
<path d="M0 0 C0.66 0 1.32 0 2 0 C1.33501617 4.38889325 -0.18757677 7.9811485 -2 12 C-2.66 12 -3.32 12 -4 12 C-3.53680089 7.27536912 -2.90108294 3.82942948 0 0 Z " fill="#1A1A1A" transform="translate(69,208)"/>
<path d="M0 0 C1.010625 0.0825 2.02125 0.165 3.0625 0.25 C3.7225 1.24 4.3825 2.23 5.0625 3.25 C4.4025 3.91 3.7425 4.57 3.0625 5.25 C2.0725 4.59 1.0825 3.93 0.0625 3.25 C-0.2675 4.24 -0.5975 5.23 -0.9375 6.25 C-1.2675 4.93 -1.5975 3.61 -1.9375 2.25 C-2.2675 3.9 -2.5975 5.55 -2.9375 7.25 C-3.2675 7.25 -3.5975 7.25 -3.9375 7.25 C-3.98004356 5.25045254 -3.97830783 3.24958364 -3.9375 1.25 C-2.9375 0.25 -2.9375 0.25 0 0 Z " fill="#878787" transform="translate(151.9375,205.75)"/>
<path d="M0 0 C4.85963179 0.60745397 8.7405518 2.72758967 13 5 C12.34 5.66 11.68 6.32 11 7 C7.37 5.35 3.74 3.7 0 2 C0 1.34 0 0.68 0 0 Z " fill="#161316" transform="translate(162,167)"/>
<path d="M0 0 C0.66 0.33 1.32 0.66 2 1 C0.515 2.485 0.515 2.485 -1 4 C3.29 4 7.58 4 12 4 C12 4.66 12 5.32 12 6 C6.39 6 0.78 6 -5 6 C-3.86695008 2.60085025 -2.87481525 1.94745549 0 0 Z " fill="#585858" transform="translate(135,136)"/>
<path d="M0 0 C1.65 0 3.3 0 5 0 C5.33 1.65 5.66 3.3 6 5 C5.01 5.33 4.02 5.66 3 6 C2.01 5.01 1.02 4.02 0 3 C-0.33 3.66 -0.66 4.32 -1 5 C-0.67 3.35 -0.34 1.7 0 0 Z " fill="#949494" transform="translate(118,230)"/>
<path d="M0 0 C0.66 0.99 1.32 1.98 2 3 C-1.17320782 6.53586014 -3.16743695 8.58578031 -8 9 C-8 8.01 -8 7.02 -8 6 C-7.05125 5.566875 -6.1025 5.13375 -5.125 4.6875 C-1.79958063 3.20697799 -1.79958063 3.20697799 0 0 Z " fill="#262626" transform="translate(117,170)"/>
<path d="M0 0 C1.98 0.495 1.98 0.495 4 1 C4.33 3.97 4.66 6.94 5 10 C4.34 10 3.68 10 3 10 C2.30289269 8.71349294 1.61757124 7.42059335 0.9375 6.125 C0.36322266 5.04605469 0.36322266 5.04605469 -0.22265625 3.9453125 C-0.47917969 3.30335937 -0.73570313 2.66140625 -1 2 C-0.67 1.34 -0.34 0.68 0 0 Z " fill="#949494" transform="translate(87,117)"/>
<path d="M0 0 C7.26153846 -0.61538462 7.26153846 -0.61538462 11 2.5 C11.66 3.325 12.32 4.15 13 5 C12.01 5.495 12.01 5.495 11 6 C10.608125 5.505 10.21625 5.01 9.8125 4.5 C7.41854121 2.51879272 6.03802209 2.77214834 3 3 C2.01 3 1.02 3 0 3 C0 2.01 0 1.02 0 0 Z " fill="#383838" transform="translate(30,250)"/>
<path d="M0 0 C1.67542976 0.28604898 3.34385343 0.61781233 5 1 C4.67 2.32 4.34 3.64 4 5 C2.68 5 1.36 5 0 5 C-0.5625 3.0625 -0.5625 3.0625 -1 1 C-0.67 0.67 -0.34 0.34 0 0 Z " fill="#2D2D2D" transform="translate(121,179)"/>
<path d="M0 0 C0.33 0 0.66 0 1 0 C1 3.96 1 7.92 1 12 C0.01 12 -0.98 12 -2 12 C-2.28571429 3.42857143 -2.28571429 3.42857143 0 0 Z " fill="#100D10" transform="translate(30,244)"/>
<path d="M0 0 C3.42146435 0.14559423 5.33818327 0.38230438 7.875 2.75 C9.18152386 5.36304771 9.24038873 7.11533524 9 10 C7.87791213 8.31686819 6.77563716 6.61858318 5.75 4.875 C3.37708732 2.33259355 1.38328859 2.30073676 -2 2 C-1.34 1.34 -0.68 0.68 0 0 Z " fill="#323232" transform="translate(48,229)"/>
<path d="M0 0 C1.8125 2.0625 1.8125 2.0625 3 4 C1.1128125 3.7525 1.1128125 3.7525 -0.8125 3.5 C-3.26456585 3.17841759 -5.51650694 3 -8 3 C-7.67 2.01 -7.34 1.02 -7 0 C-4.24438552 -1.37780724 -2.90228766 -0.92023755 0 0 Z " fill="#E8E8E8" transform="translate(153,180)"/>
<path d="M0 0 C2.375 2 2.375 2 4 4 C3.34 4.66 2.68 5.32 2 6 C1.67 4.68 1.34 3.36 1 2 C-2.3 2.66 -5.6 3.32 -9 4 C-9 3.34 -9 2.68 -9 2 C-5.50875983 -0.32749345 -4.10777749 -0.50299316 0 0 Z " fill="#C1C1C1" transform="translate(88,209)"/>
<path d="M0 0 C1.134375 0.020625 2.26875 0.04125 3.4375 0.0625 C4.0975 1.7125 4.7575 3.3625 5.4375 5.0625 C4.7775 5.0625 4.1175 5.0625 3.4375 5.0625 C2.7775 4.0725 2.1175 3.0825 1.4375 2.0625 C-1.03516765 2.40694881 -1.03516765 2.40694881 -3.5625 3.0625 C-3.8925 3.7225 -4.2225 4.3825 -4.5625 5.0625 C-5.2225 5.0625 -5.8825 5.0625 -6.5625 5.0625 C-4.14811644 0.07277397 -4.14811644 0.07277397 0 0 Z " fill="#1F1F1F" transform="translate(206.5625,250.9375)"/>
<path d="M0 0 C2.375 0.25 2.375 0.25 5 1 C5.66 2.32 6.32 3.64 7 5 C4.03 4.67 1.06 4.34 -2 4 C-1.34 2.68 -0.68 1.36 0 0 Z " fill="#1D1D1D" transform="translate(151,100)"/>
<path d="M0 0 C0.33 0 0.66 0 1 0 C1.14285714 7.42857143 1.14285714 7.42857143 0 11 C-0.66 11 -1.32 11 -2 11 C-2.28571429 3.57142857 -2.28571429 3.57142857 0 0 Z " fill="#121212" transform="translate(62,233)"/>
<path d="M0 0 C0.66 0.33 1.32 0.66 2 1 C3.39195915 5.17587745 1.82323219 7.13474776 0 11 C-0.33 11 -0.66 11 -1 11 C-1.33 7.7 -1.66 4.4 -2 1 C-1.34 0.67 -0.68 0.34 0 0 Z " fill="#2F2D2F" transform="translate(71,172)"/>
<path d="M0 0 C2.3125 0.1875 2.3125 0.1875 5 1 C6.875 3.4375 6.875 3.4375 8 6 C7.67 6.66 7.34 7.32 7 8 C6.34 7.67 5.68 7.34 5 7 C4.375 4.9375 4.375 4.9375 4 3 C2.35 3.33 0.7 3.66 -1 4 C-0.67 2.68 -0.34 1.36 0 0 Z " fill="#E1E1E1" transform="translate(48,231)"/>
<path d="M0 0 C1.46726798 3.81489674 0.43336419 6.29011622 -1 10 C-1.66 10 -2.32 10 -3 10 C-2.25 2.25 -2.25 2.25 0 0 Z " fill="#0F0C0F" transform="translate(36,222)"/>
<path d="M0 0 C2.875 0.1875 2.875 0.1875 6 1 C7.375 3.5625 7.375 3.5625 8 6 C7.1646875 5.2265625 7.1646875 5.2265625 6.3125 4.4375 C4.05914993 2.70523302 4.05914993 2.70523302 1.25 3.3125 C0.5075 3.539375 -0.235 3.76625 -1 4 C-0.67 2.68 -0.34 1.36 0 0 Z " fill="#CECECE" transform="translate(151,231)"/>
<path d="M0 0 C0.763125 0.0825 1.52625 0.165 2.3125 0.25 C2.6425 1.57 2.9725 2.89 3.3125 4.25 C0.3425 3.755 0.3425 3.755 -2.6875 3.25 C-3.0175 3.91 -3.3475 4.57 -3.6875 5.25 C-4.3475 4.92 -5.0075 4.59 -5.6875 4.25 C-3.34903846 0.31153846 -3.34903846 0.31153846 0 0 Z " fill="#EDEDED" transform="translate(139.6875,250.75)"/>
<path d="M0 0 C3.375 -0.1875 3.375 -0.1875 7 0 C9 3 9 3 8.625 5.1875 C8.41875 5.785625 8.2125 6.38375 8 7 C7.608125 6.195625 7.21625 5.39125 6.8125 4.5625 C5.23051809 1.76935262 5.23051809 1.76935262 2.3125 1.1875 C1.1678125 1.0946875 1.1678125 1.0946875 0 1 C0 0.67 0 0.34 0 0 Z " fill="#1B1B1B" transform="translate(185,211)"/>
<path d="M0 0 C3.125 0.375 3.125 0.375 6 1 C6 1.33 6 1.66 6 2 C4.02 2.66 2.04 3.32 0 4 C-0.33 5.65 -0.66 7.3 -1 9 C-1.33 9 -1.66 9 -2 9 C-2.125 5.625 -2.125 5.625 -2 2 C-1.34 1.34 -0.68 0.68 0 0 Z " fill="#323232" transform="translate(171,245)"/>
<path d="M0 0 C0.66 0 1.32 0 2 0 C2.99 2.97 3.98 5.94 5 9 C4.01 8.67 3.02 8.34 2 8 C1.26953125 6.15234375 1.26953125 6.15234375 0.8125 3.9375 C0.65394531 3.20402344 0.49539062 2.47054687 0.33203125 1.71484375 C0.22246094 1.14894531 0.11289063 0.58304688 0 0 Z " fill="#120F12" transform="translate(207,217)"/>
<path d="M0 0 C0.33 0.66 0.66 1.32 1 2 C3.02463255 2.65213292 3.02463255 2.65213292 5 3 C3.824375 3.185625 3.824375 3.185625 2.625 3.375 C-0.14057822 3.79117993 -0.14057822 3.79117993 -2 6 C-2.66 6 -3.32 6 -4 6 C-2.25 1.125 -2.25 1.125 0 0 Z " fill="#090709" transform="translate(47,199)"/>
<path d="M0 0 C2.92879371 0.62759865 5.36095629 1.58622659 8 3 C8 3.66 8 4.32 8 5 C4.62537285 4.45276317 2.91765 3.9451 0 2 C0 1.34 0 0.68 0 0 Z " fill="#232323" transform="translate(131,173)"/>
<path d="M0 0 C0.99 0 1.98 0 3 0 C3.33 2.64 3.66 5.28 4 8 C3.34 8 2.68 8 2 8 C1.34 5.36 0.68 2.72 0 0 Z " fill="#2F292E" transform="translate(215,248)"/>
</svg>
