<?xml version="1.0" encoding="UTF-8"?>
<svg version="1.1" xmlns="http://www.w3.org/2000/svg" width="256" height="256">
<path d="M0 0 C84.48 0 168.96 0 256 0 C256 84.48 256 168.96 256 256 C171.52 256 87.04 256 0 256 C0 171.52 0 87.04 0 0 Z " fill="#545454" transform="translate(0,0)"/>
<path d="M0 0 C0 3.3 0 6.6 0 10 C0.66 9.67 1.32 9.34 2 9 C3.79537449 9.75672809 5.56204521 10.58197971 7.3125 11.4375 C18.10586009 16.06691012 28.04452269 14.31625259 39 11 C37.83139535 20.29651163 37.83139535 20.29651163 34.5625 23.0625 C29.8591455 24.78323945 25.9060405 25.15135831 20.9375 25.125 C20.20466797 25.12886719 19.47183594 25.13273437 18.71679688 25.13671875 C13.25336982 25.12668491 13.25336982 25.12668491 11 24 C11.495 24.99 11.495 24.99 12 26 C14.68777802 26.0544207 17.37443212 26.09387266 20.0625 26.125 C20.81466797 26.14175781 21.56683594 26.15851563 22.34179688 26.17578125 C29.21127016 26.23525721 34.60153819 24.55938473 41 22 C41 36.52 41 51.04 41 66 C37.44136808 62.44136808 33.99889105 58.84995245 30.625 55.125 C22.45183706 45.60492812 22.45183706 45.60492812 12 39 C13.52365848 44.01855012 16.56789224 47.24589903 20 51.0625 C21.08715931 52.27914409 22.17062541 53.49910049 23.25 54.72265625 C23.72953125 55.25640869 24.2090625 55.79016113 24.703125 56.34008789 C26.10224912 58.13087195 27.05008806 59.94083063 28 62 C26.741875 61.855625 25.48375 61.71125 24.1875 61.5625 C18.79870505 60.96183814 13.40116209 60.47449461 8 60 C7.42608031 62.19262912 7.42608031 62.19262912 8 65 C9.97384536 67.67314085 12.37476245 69.8825599 14.78125 72.1640625 C15.46932739 72.83795013 16.15740479 73.51183777 16.86633301 74.20614624 C19.06603194 76.35798903 21.28154241 78.49251425 23.5 80.625 C25.71665245 82.76630834 27.92949553 84.91112092 30.13366699 87.0652771 C31.50592902 88.40542381 32.88573879 89.73789231 34.27355957 91.06192017 C34.89420288 91.66619843 35.51484619 92.27047668 36.15429688 92.89306641 C36.70500854 93.42203522 37.25572021 93.95100403 37.82312012 94.4960022 C39 96 39 96 39 99 C2.04 99 -34.92 99 -73 99 C-71.8775413 87.77541296 -71.8775413 87.77541296 -70.3359375 82.984375 C-69.86027344 81.44910156 -69.86027344 81.44910156 -69.375 79.8828125 C-68.70308408 77.77782592 -68.0285642 75.67366892 -67.3515625 73.5703125 C-67.03703125 72.55195313 -66.7225 71.53359375 -66.3984375 70.484375 C-66.10630371 69.57397461 -65.81416992 68.66357422 -65.51318359 67.72558594 C-64.76747845 63.76504729 -65.36973111 60.46119481 -66.95703125 56.78125 C-68.57127637 52.47659635 -69.0538494 48.03856146 -69.6875 43.5 C-69.82994141 42.56285156 -69.97238281 41.62570313 -70.11914062 40.66015625 C-70.3134668 39.29697266 -70.3134668 39.29697266 -70.51171875 37.90625 C-70.62990967 37.08447266 -70.74810059 36.26269531 -70.86987305 35.41601562 C-71.01388107 32.74227569 -70.70618373 30.57898629 -70 28 C-61.45078338 19.40760551 -44.84211028 16.69997798 -33.5546875 13.3984375 C-32.69351318 13.14126953 -31.83233887 12.88410156 -30.94506836 12.61914062 C-29.31519422 12.13546266 -27.68066541 11.66711146 -26.04125977 11.21679688 C-21.08236999 9.74621086 -19.1373496 8.24503963 -16 4 C-13.125 2.3828125 -13.125 2.3828125 -10 1.125 C-8.96875 0.69445312 -7.9375 0.26390625 -6.875 -0.1796875 C-4 -1 -4 -1 0 0 Z " fill="#DBDBDB" transform="translate(99,157)"/>
<path d="M0 0 C5.66318667 0.08061476 10.02377911 0.58688704 14.4375 4.3125 C18.51063854 9.33039277 21.58146821 13.78743566 21.5625 20.3125 C21.56636719 21.6428125 21.56636719 21.6428125 21.5703125 23 C21.4375 25.3125 21.4375 25.3125 20.4375 27.3125 C17.78889573 27.90605614 15.14552678 28.05459269 12.4375 28.3125 C12.7675 28.6425 13.0975 28.9725 13.4375 29.3125 C14.6440625 29.2815625 14.6440625 29.2815625 15.875 29.25 C18.4375 29.3125 18.4375 29.3125 20.4375 31.3125 C20.70990673 34.33076653 20.52425125 37.27620622 20.4375 40.3125 C15.4875 40.8075 15.4875 40.8075 10.4375 41.3125 C11.7575 42.3025 13.0775 43.2925 14.4375 44.3125 C15.035625 43.9825 15.63375 43.6525 16.25 43.3125 C18.4375 42.3125 18.4375 42.3125 21.4375 42.3125 C22.17850587 65.96979856 22.17850587 65.96979856 14.1328125 75.55078125 C9.20002661 80.67678686 5.28809798 82.56182756 -1.8503418 82.84179688 C-2.600979 82.85275391 -3.35161621 82.86371094 -4.125 82.875 C-4.84534424 82.88982422 -5.56568848 82.90464844 -6.30786133 82.91992188 C-11.76035483 82.81510223 -15.0250259 81.31164516 -19.5625 78.3125 C-19.5625 79.3025 -19.5625 80.2925 -19.5625 81.3125 C-19.04429688 81.56902344 -18.52609375 81.82554687 -17.9921875 82.08984375 C-16.09348002 83.04530266 -14.20483945 84.02077351 -12.3203125 85.00390625 C-11.10947201 85.62779247 -9.89853202 86.25148564 -8.6875 86.875 C-8.08808594 87.19146484 -7.48867187 87.50792969 -6.87109375 87.83398438 C-3.10305056 89.75887412 0.23375737 90.84327491 4.4375 91.3125 C4.4375 89.3325 4.4375 87.3525 4.4375 85.3125 C5.4275 86.3025 5.4275 86.3025 6.4375 87.3125 C6.15886046 92.23513194 4.94410116 95.17115895 2.4375 99.3125 C2.18553871 102.02203551 2.18553871 102.02203551 2.4375 104.3125 C3.30375 104.209375 4.17 104.10625 5.0625 104 C11.22180187 104.57030573 14.34635681 109.15572245 18.125 113.625 C18.68574219 114.32238281 19.24648437 115.01976562 19.82421875 115.73828125 C21.4196806 117.66169441 21.4196806 117.66169441 24.4375 117.3125 C24.7675 115.3325 25.0975 113.3525 25.4375 111.3125 C26.0975 111.3125 26.7575 111.3125 27.4375 111.3125 C27.5625 114.6875 27.5625 114.6875 27.4375 118.3125 C26.7775 118.9725 26.1175 119.6325 25.4375 120.3125 C22.4675 119.8175 22.4675 119.8175 19.4375 119.3125 C19.1075 140.7625 18.7775 162.2125 18.4375 184.3125 C12.4975 184.3125 6.5575 184.3125 0.4375 184.3125 C-0.5525 182.6625 -1.5425 181.0125 -2.5625 179.3125 C-3.99250836 177.63217054 -3.99250836 177.63217054 -5.56518555 176.16210938 C-6.14556076 175.59802368 -6.72593597 175.03393799 -7.32389832 174.45275879 C-7.94275406 173.85991089 -8.5616098 173.26706299 -9.19921875 172.65625 C-10.51148614 171.37412604 -11.82332238 170.09156068 -13.13476562 168.80859375 C-15.19717453 166.80209872 -17.26323522 164.79977103 -19.3371582 162.80517578 C-21.34398043 160.87078057 -23.33490892 158.9211278 -25.32421875 156.96875 C-25.94914719 156.3759021 -26.57407562 155.7830542 -27.21794128 155.17224121 C-31.45587869 150.98502554 -31.45587869 150.98502554 -32.01489258 147.45898438 C-31.5625 145.3125 -31.5625 145.3125 -30.5625 144.3125 C-28.87164009 144.37787595 -27.18342493 144.51614726 -25.5 144.6875 C-24.51257813 144.78675781 -23.52515625 144.88601562 -22.5078125 144.98828125 C-18.85320935 145.39057841 -15.20752691 145.83108135 -11.5625 146.3125 C-12.93641236 144.62411436 -14.31169161 142.93684099 -15.6875 141.25 C-16.50347656 140.24710938 -17.31945312 139.24421875 -18.16015625 138.2109375 C-20.09741686 135.87362469 -22.082289 133.61855309 -24.125 131.375 C-26.5625 128.3125 -26.5625 128.3125 -26.5625 124.3125 C-15.47834697 126.29006915 -4.6998236 142.12940186 1.4375 150.3125 C1.7675 136.1225 2.0975 121.9325 2.4375 107.3125 C0.1275 108.6325 -2.1825 109.9525 -4.5625 111.3125 C-9.04935551 112.71510131 -13.71492057 112.42578041 -18.375 112.375 C-19.55739258 112.36823242 -19.55739258 112.36823242 -20.76367188 112.36132812 C-22.69664761 112.34961312 -24.62958393 112.33167998 -26.5625 112.3125 C-26.8925 111.3225 -27.2225 110.3325 -27.5625 109.3125 C-26.34433594 109.34730469 -25.12617187 109.38210937 -23.87109375 109.41796875 C-22.24740972 109.44612512 -20.62371065 109.47342329 -19 109.5 C-18.20013672 109.52513672 -17.40027344 109.55027344 -16.57617188 109.57617188 C-11.15119064 109.64260022 -7.27439758 109.11018919 -2.5625 106.3125 C-1.31474628 104.1026624 -1.31474628 104.1026624 -1.125 101.625 C-0.94130859 100.41263672 -0.94130859 100.41263672 -0.75390625 99.17578125 C-0.65916016 98.25345703 -0.65916016 98.25345703 -0.5625 97.3125 C-1.20574219 97.5290625 -1.84898437 97.745625 -2.51171875 97.96875 C-15.06300122 101.83619224 -24.80933937 101.24202248 -36.5625 95.3125 C-37.5525 96.3025 -37.5525 96.3025 -38.5625 97.3125 C-39.76522819 94.90704362 -39.66321472 93.36253047 -39.625 90.6875 C-39.61597656 89.87023437 -39.60695313 89.05296875 -39.59765625 88.2109375 C-39.58605469 87.58445312 -39.57445313 86.95796875 -39.5625 86.3125 C-38.9025 86.3125 -38.2425 86.3125 -37.5625 86.3125 C-37.7275 85.095625 -37.8925 83.87875 -38.0625 82.625 C-38.50176429 78.56180535 -38.72098776 74.52352144 -38.8125 70.4375 C-38.83828125 69.34695312 -38.8640625 68.25640625 -38.890625 67.1328125 C-38.5625 64.3125 -38.5625 64.3125 -37.04272461 62.87646484 C-35.1232294 61.20611782 -35.1232294 61.20611782 -35.55078125 57.46875 C-35.60282715 56.72326904 -35.65487305 55.97778809 -35.70849609 55.2097168 C-36.15626441 48.76303479 -36.51843777 43.34059298 -32.4375 38 C-31.28858728 36.68110554 -30.13873992 35.36298609 -28.97998047 34.05273438 C-25.83361036 30.18994999 -23.22334333 25.91547577 -20.5 21.75 C-6.25563013 0.14875716 -6.25563013 0.14875716 0 0 Z " fill="#FAFAFA" transform="translate(137.5625,71.6875)"/>
<path d="M0 0 C2.33880287 2.14155443 4.19537225 4.40011257 6 7 C8.28763228 10.09937276 10.32249026 12.31241387 13.5 14.4375 C17.57747291 17.22873145 20.35968355 20.45355758 21.59057617 25.34863281 C22.01154079 28.0747364 22.14229026 30.66453028 22.17578125 33.421875 C22.21155273 34.96101563 22.21155273 34.96101563 22.24804688 36.53125 C22.29069879 38.66126054 22.32212003 40.79152833 22.34179688 42.921875 C22.56475798 51.21810216 24.40901695 57.11352543 29 64 C28.8125 66.125 28.8125 66.125 28 68 C26.515 68.495 26.515 68.495 25 69 C24.26676204 71.01508358 24.26676204 71.01508358 24 73 C22.68 73 21.36 73 20 73 C20.39906567 75.54555524 20.8184966 78.08491297 21.25 80.625 C21.35957031 81.33785156 21.46914062 82.05070312 21.58203125 82.78515625 C22.43951394 87.70439903 23.95118898 90.93491865 27 95 C27.69429379 96.3191582 28.37530495 97.64649406 29 99 C28 100 28 100 24.4375 100.0625 C23.303125 100.041875 22.16875 100.02125 21 100 C21 100.66 21 101.32 21 102 C14.6 103.35384615 14.6 103.35384615 11.5625 101.5625 C11.046875 101.046875 10.53125 100.53125 10 100 C9.505 101.485 9.505 101.485 9 103 C6.3125 103.3125 6.3125 103.3125 3 103 C0.125 100.5 0.125 100.5 -2 98 C-1.52949219 97.32195312 -1.05898437 96.64390625 -0.57421875 95.9453125 C7.55369733 83.79550834 8.44592189 74.23646918 8 60 C6.02 61.485 6.02 61.485 4 63 C0.90837736 61.61410019 -0.49183541 60.50816459 -3 58 C0.63 58 4.26 58 8 58 C7.7834375 55.8034375 7.7834375 55.8034375 7.5625 53.5625 C7.48128906 52.73878906 7.40007812 51.91507813 7.31640625 51.06640625 C7.21069185 49.01337975 7.21069185 49.01337975 6 48 C3.32941149 47.85884839 0.67567762 47.95752893 -2 48 C-1.34 47.01 -0.68 46.02 0 45 C1.9453125 44.70703125 1.9453125 44.70703125 4.125 44.8125 C5.40375 44.874375 6.6825 44.93625 8 45 C8.71868517 37.2541709 8.32073347 31.58022376 3.8203125 25.0703125 C-0.64095082 19.99634348 -5.44899261 18.75249883 -12.0625 18.125 C-15.54176216 18.26869919 -17.32441004 18.41270496 -19.97265625 20.71484375 C-21.85201588 23.38504503 -23.41267227 26.14633748 -25 29 C-26.54183448 31.40312074 -28.1488341 33.7611385 -29.75 36.125 C-30.59843046 37.40052703 -31.44606946 38.67658082 -32.29296875 39.953125 C-35.18097311 44.28459811 -38.11528178 48.58365702 -41.0625 52.875 C-41.53977539 53.57125488 -42.01705078 54.26750977 -42.50878906 54.98486328 C-45.87591597 59.87591597 -45.87591597 59.87591597 -47 61 C-46.99244505 64.80014218 -46.92099154 68.5892364 -46.78515625 72.38671875 C-46.77097656 73.18464844 -46.75679687 73.98257813 -46.7421875 74.8046875 C-46.70907471 75.90272705 -46.70907471 75.90272705 -46.67529297 77.02294922 C-47.09046433 79.55081216 -48.17750925 80.27391379 -50 82 C-50.3265789 84.99934412 -50.3265789 84.99934412 -50.125 88.3125 C-49.97155468 92.7163808 -50.1484137 96.6700112 -51 101 C-51.66 100.34 -52.32 99.68 -53 99 C-53.886875 99.680625 -54.77375 100.36125 -55.6875 101.0625 C-59 103 -59 103 -61.875 102.75 C-62.926875 102.37875 -62.926875 102.37875 -64 102 C-64 100.68 -64 99.36 -64 98 C-64.99 98.99 -64.99 98.99 -66 100 C-73.30434783 100.46376812 -73.30434783 100.46376812 -77 98 C-77 96 -77 96 -75 93.875 C-74.34 93.25625 -73.68 92.6375 -73 92 C-73.66 92 -74.32 92 -75 92 C-74.55880035 89.52928194 -74.14982044 88.17215871 -72.48046875 86.25390625 C-69.56289137 81.81210638 -70.51064002 76.11318438 -71 71 C-71.61289 68.94502829 -71.61289 68.94502829 -72.5 67.25 C-74.40626735 63.11975407 -74.63896142 59.48932632 -74 55 C-73.34909953 53.65889941 -72.68433959 52.32434948 -72 51 C-72.14681461 48.82676431 -72.14681461 48.82676431 -73 47 C-73.66 46.67 -74.32 46.34 -75 46 C-74.25 44.0625 -74.25 44.0625 -73 42 C-71.02 41.505 -71.02 41.505 -69 41 C-71.64 40.34 -74.28 39.68 -77 39 C-77 38.34 -77 37.68 -77 37 C-76.3709375 36.731875 -75.741875 36.46375 -75.09375 36.1875 C-64.26972368 31.23192168 -58.26902603 23.36870381 -51.47509766 13.89916992 C-46.69440163 7.30535663 -41.6939363 1.44265842 -34.375 -2.375 C-33.47523437 -2.85710938 -32.57546875 -3.33921875 -31.6484375 -3.8359375 C-20.71686078 -8.64067181 -9.64504684 -6.52543228 0 0 Z " fill="#020202" transform="translate(150,54)"/>
<path d="M0 0 C6.00072209 1.73331669 11.41743278 4.56567369 17 7.3125 C28.37445162 12.82605639 39.51323432 17.6318203 52 20 C51.68844971 20.556875 51.37689941 21.11375 51.0559082 21.6875 C49.91728781 24.18114447 49.49721364 26.29129193 49.10546875 29 C48.95746826 29.96397705 48.80946777 30.9279541 48.65698242 31.92114258 C48.50205322 32.93716553 48.34712402 33.95318848 48.1875 35 C46.16783686 47.26353156 43.04045838 56.44540625 35.64453125 66.5 C30.95464924 73.62951185 29.93752939 80.56223546 29 89 C17.45 89 5.9 89 -6 89 C-6 67.22 -6 45.44 -6 23 C-3.69 23.33 -1.38 23.66 1 24 C2.73108461 22.26891539 2.17235649 19.98133093 2.1875 17.625 C2.15122447 11.57424158 1.30020206 5.89734505 0 0 Z " fill="#020202" transform="translate(162,167)"/>
<path d="M0 0 C0 6.27 0 12.54 0 19 C1.98 19 3.96 19 6 19 C6.14492255 25.80943782 6.28700066 32.61893106 6.42724609 39.4284668 C6.47511793 41.73739923 6.52360369 44.04631903 6.57275391 46.35522461 C6.64393211 49.70423163 6.7127848 53.05328029 6.78125 56.40234375 C6.80312378 57.40829086 6.82499756 58.41423798 6.84753418 59.45066833 C7.02486462 68.30581711 7 77.13662674 7 86 C-4.22 86 -15.44 86 -27 86 C-27.66 83.03 -28.32 80.06 -29 77 C-29.66 76.34 -30.32 75.68 -31 75 C-33.49875746 72.50124254 -33.62082494 70.35800035 -34.2421875 66.96875 C-35.27502651 62.92257654 -36.83326715 59.1622459 -38.4375 55.3125 C-38.88863159 54.22545776 -38.88863159 54.22545776 -39.34887695 53.11645508 C-40.66990795 49.9830055 -42.03147849 46.93927499 -43.59765625 43.91796875 C-46.52038505 37.83641329 -47.43230043 31.68856888 -48.125 25.0625 C-48.21136719 24.28326172 -48.29773438 23.50402344 -48.38671875 22.70117188 C-48.59651323 20.8013663 -48.79901994 18.90075826 -49 17 C-40.3447209 12.36886365 -32.09715627 8.38954173 -22.53515625 5.94140625 C-17.32007144 4.55263781 -12.26998715 2.73957266 -7.1796875 0.953125 C-4 0 -4 0 0 0 Z " fill="#010101" transform="translate(79,170)"/>
<path d="M0 0 C0.79222206 0.42510361 0.79222206 0.42510361 1.60044861 0.85879517 C2.65662132 1.4094313 2.65662132 1.4094313 3.73413086 1.97119141 C4.4272789 2.33709381 5.12042694 2.70299622 5.83457947 3.07998657 C9.38860207 4.58996972 12.75701615 4.50586732 16.5625 4.375 C17.27857422 4.37371094 17.99464844 4.37242187 18.73242188 4.37109375 C25.35967867 4.26254905 30.84322479 2.46271008 37 0 C37 14.52 37 29.04 37 44 C33.44136808 40.44136808 29.99889105 36.84995245 26.625 33.125 C18.45183706 23.60492812 18.45183706 23.60492812 8 17 C9.52365848 22.01855012 12.56789224 25.24589903 16 29.0625 C17.08715931 30.27914409 18.17062541 31.49910049 19.25 32.72265625 C19.72953125 33.25640869 20.2090625 33.79016113 20.703125 34.34008789 C22.10224912 36.13087195 23.05008806 37.94083063 24 40 C22.741875 39.855625 21.48375 39.71125 20.1875 39.5625 C14.79870505 38.96183814 9.40116209 38.47449461 4 38 C3.42608031 40.19262912 3.42608031 40.19262912 4 43 C5.97384536 45.67314085 8.37476245 47.8825599 10.78125 50.1640625 C11.81336609 51.17489395 11.81336609 51.17489395 12.86633301 52.20614624 C15.06603194 54.35798903 17.28154241 56.49251425 19.5 58.625 C21.71665245 60.76630834 23.92949553 62.91112092 26.13366699 65.0652771 C27.50592902 66.40542381 28.88573879 67.73789231 30.27355957 69.06192017 C30.89420288 69.66619843 31.51484619 70.27047668 32.15429688 70.89306641 C32.98036438 71.68651962 32.98036438 71.68651962 33.82312012 72.4960022 C35 74 35 74 35 77 C24.11 77 13.22 77 2 77 C1.3788559 71.40970306 0.86735469 66.29067985 0.79467773 60.73608398 C0.78477814 60.07152695 0.77487854 59.40696991 0.76467896 58.72227478 C0.73352955 56.56358183 0.70849452 54.404867 0.68359375 52.24609375 C0.66298379 50.73437484 0.64198638 49.22266117 0.62062073 47.71095276 C0.56581688 43.76061281 0.51622645 39.81022451 0.46777344 35.85980225 C0.41725106 31.81729913 0.36172657 27.77486493 0.30664062 23.73242188 C0.19957014 15.82167311 0.09801497 7.91086612 0 0 Z " fill="#080808" transform="translate(103,179)"/>
<path d="M0 0 C6.33887519 1.89215983 11.9653889 4.37564521 17.75 7.5625 C42.04020764 20.78406272 42.04020764 20.78406272 68.25 29.1875 C72 30 72 30 74 32 C73.66027679 34.37806244 72.82950354 36.47875406 72.0234375 38.7421875 C71.01077107 41.96571346 70.38411727 45.03745347 69.875 48.375 C69.70742187 49.43460938 69.53984375 50.49421875 69.3671875 51.5859375 C68.45918871 60.02839434 69.61136244 65.90212496 72.375 73.875 C75.4807764 82.97770237 78 91.31810778 78 101 C68.43 101 58.86 101 49 101 C49 89.23001778 51.89056969 80.87293981 59.25390625 71.70703125 C64.151342 64.1143624 65.78848944 55.94595202 67.0625 47.125 C67.3552432 45.10519974 67.6582353 43.0868519 67.97265625 41.0703125 C68.09906494 40.19133301 68.22547363 39.31235352 68.35571289 38.40673828 C69.07923479 35.70401797 70.19716284 34.11337518 72 32 C70.71480469 31.90460938 69.42960937 31.80921875 68.10546875 31.7109375 C62.83027693 31.11599879 58.23401847 29.55978642 53.3125 27.625 C52.42344971 27.28210938 51.53439941 26.93921875 50.6184082 26.5859375 C40.08638338 22.41025294 30.02899632 17.25044892 20 12 C20.2165625 12.73605469 20.433125 13.47210938 20.65625 14.23046875 C20.9346875 15.20628906 21.213125 16.18210938 21.5 17.1875 C21.7784375 18.15042969 22.056875 19.11335938 22.34375 20.10546875 C22.96677608 22.85345876 23.12302812 25.19598416 23 28 C22.34 28 21.68 28 21 28 C21 29.98 21 31.96 21 34 C19.21484375 34.6953125 19.21484375 34.6953125 17 35 C15.25390625 33.7421875 15.25390625 33.7421875 13.5625 31.875 C12.96308594 31.23046875 12.36367187 30.5859375 11.74609375 29.921875 C11.16988281 29.28765625 10.59367188 28.6534375 10 28 C9.04777441 27.03559761 8.09030275 26.07631286 7.125 25.125 C6.08333333 24.08333333 5.04166667 23.04166667 4 22 C1.66702567 21.95907063 -0.66705225 21.95758277 -3 22 C-3.38166869 18.08789588 -3.04616904 15.72289818 -1 12.4375 C0.942069 9.09956891 1.45257173 7.73371677 1 4 C0.34 5.32 -0.32 6.64 -1 8 C-1.04241723 5.66705225 -1.04092937 3.33297433 -1 1 C-0.67 0.67 -0.34 0.34 0 0 Z " fill="#E6E6E6" transform="translate(142,155)"/>
<path d="M0 0 C3.69230769 0.69230769 3.69230769 0.69230769 5 2 C5.15798416 3.37129214 5.24989031 4.750287 5.31420898 6.12915039 C5.35586685 7.01678574 5.39752472 7.90442108 5.44044495 8.81895447 C5.47943405 9.79780106 5.51842316 10.77664764 5.55859375 11.78515625 C5.60084579 12.80617935 5.64309784 13.82720245 5.68663025 14.87916565 C6.16748805 27.72968408 6.10831693 40.58023203 6.0625 53.4375 C6.05746722 55.93424388 6.05290751 58.43098876 6.04882812 60.92773438 C6.03798113 66.95184834 6.020818 72.97591259 6 79 C1.38 79 -3.24 79 -8 79 C-8.35500343 66.51823059 -8.66948935 54.03595471 -8.94281006 41.55212402 C-8.99583147 39.18602226 -9.05319447 36.82007001 -9.11181641 34.45410156 C-9.20497567 30.5946622 -9.26210783 26.73524981 -9.3125 22.875 C-9.35697266 21.18262207 -9.35697266 21.18262207 -9.40234375 19.45605469 C-9.44759802 13.37124149 -9.24322234 9.55024585 -5 5 C-4.34 5 -3.68 5 -3 5 C-2.690625 4.360625 -2.38125 3.72125 -2.0625 3.0625 C-1 1 -1 1 0 0 Z " fill="#040404" transform="translate(96,177)"/>
<path d="M0 0 C4.27889914 0.81762404 6.04548341 2.8182129 9 6 C9.53792175 6.42924271 10.07584351 6.85848541 10.63006592 7.30073547 C12.62947074 9.78079473 12.36736913 11.65840646 12.35644531 14.81323242 C12.35944641 16.00845016 12.36244751 17.20366791 12.36553955 18.43510437 C12.35319275 19.72882462 12.34084595 21.02254486 12.328125 22.35546875 C12.32506496 23.69964893 12.3231907 25.04383229 12.32244873 26.38801575 C12.3178446 29.20842599 12.30342342 32.0285509 12.28125 34.84887695 C12.25310357 38.44534277 12.24205162 42.04158282 12.2375679 45.63814831 C12.23237968 49.08561692 12.21785099 52.53303018 12.203125 55.98046875 C12.19675018 57.90586739 12.19675018 57.90586739 12.19024658 59.87016296 C12.14159929 66.00188958 11.945618 71.93828544 11 78 C7.04 78 3.08 78 -1 78 C-1.13454999 51.98010162 -0.83663974 26.00703544 0 0 Z " fill="#040404" transform="translate(142,178)"/>
<path d="M0 0 C11.08211801 1.97720608 21.89131861 17.31924224 28 26 C28.33 20.72 28.66 15.44 29 10 C29.33 10 29.66 10 30 10 C30 26.5 30 43 30 60 C29.01 60 28.02 60 27 60 C25.98697075 58.34122047 24.99057453 56.67228582 24 55 C21.90157348 52.6644922 19.62978601 50.51500333 17.36328125 48.34375 C16.05101386 47.06162604 14.73917762 45.77906068 13.42773438 44.49609375 C11.36532547 42.48959872 9.29926478 40.48727103 7.2253418 38.49267578 C5.21851957 36.55828057 3.22759108 34.6086278 1.23828125 32.65625 C0.61335281 32.0634021 -0.01157562 31.4705542 -0.65544128 30.85974121 C-4.89337869 26.67252554 -4.89337869 26.67252554 -5.45239258 23.14648438 C-5 21 -5 21 -4 20 C-2.30914009 20.06537595 -0.62092493 20.20364726 1.0625 20.375 C2.04992187 20.47425781 3.03734375 20.57351562 4.0546875 20.67578125 C7.70929065 21.07807841 11.35497309 21.51858135 15 22 C13.62608764 20.31161436 12.25080839 18.62434099 10.875 16.9375 C10.05902344 15.93460938 9.24304688 14.93171875 8.40234375 13.8984375 C6.46508314 11.56112469 4.480211 9.30605309 2.4375 7.0625 C0 4 0 4 0 0 Z " fill="#F3F3F3" transform="translate(111,196)"/>
<path d="M0 0 C4.62093479 3.96080125 9.06476844 7.89600642 13.37109375 12.16796875 C13.93828629 12.72946121 14.50547882 13.29095367 15.08985901 13.86946106 C16.27343306 15.04367597 17.45562787 16.21928265 18.63647461 17.39624023 C20.45050472 19.2004342 22.2749269 20.9936974 24.09960938 22.78710938 C25.25325799 23.93423867 26.40627627 25.0820023 27.55859375 26.23046875 C28.10535263 26.76488083 28.65211151 27.29929291 29.21543884 27.84989929 C33 31.65726985 33 31.65726985 33 35 C22.11 35 11.22 35 0 35 C0 23.45 0 11.9 0 0 Z " fill="#020202" transform="translate(105,221)"/>
<path d="M0 0 C2.41315523 3.61973284 3.33030881 7.28819148 4.4375 11.4375 C4.76463989 12.64442505 4.76463989 12.64442505 5.09838867 13.87573242 C5.73853807 16.2488594 6.36993132 18.62418004 7 21 C7.32742187 22.21429688 7.65484375 23.42859375 7.9921875 24.6796875 C9.22719501 29.39624 10 33.06431707 10 38 C1.75 38 -6.5 38 -15 38 C-15 30.84742917 -14.94285414 28.88570827 -12 23 C-11.53013672 22.00806641 -11.53013672 22.00806641 -11.05078125 20.99609375 C-9.53679323 17.84245072 -7.97348403 14.96105466 -6 12.0625 C-3.49730906 8.2302545 -1.76025285 4.21337118 0 0 Z " fill="#030303" transform="translate(208,218)"/>
<path d="M0 0 C5.95110577 1.52592456 12.64694343 4.5427583 16.20703125 9.7734375 C18.51266968 14.97532126 19.13028993 20.18593545 19.0625 25.8125 C19.05347656 26.78832031 19.04445312 27.76414063 19.03515625 28.76953125 C19.02355469 29.50558594 19.01195312 30.24164063 19 31 C17.21484375 31.6953125 17.21484375 31.6953125 15 32 C13.25390625 30.7421875 13.25390625 30.7421875 11.5625 28.875 C10.96308594 28.23046875 10.36367187 27.5859375 9.74609375 26.921875 C9.16988281 26.28765625 8.59367188 25.6534375 8 25 C7.04777441 24.03559761 6.09030275 23.07631286 5.125 22.125 C4.08333333 21.08333333 3.04166667 20.04166667 2 19 C-0.33297433 18.95907063 -2.66705225 18.95758277 -5 19 C-5.47467372 14.13459437 -4.45693593 11.71237362 -1.95703125 7.74609375 C-0.5928007 5.25706903 -0.27294382 2.79767411 0 0 Z " fill="#060606" transform="translate(144,158)"/>
<path d="M0 0 C0.66 0 1.32 0 2 0 C2.26554687 0.60328125 2.53109375 1.2065625 2.8046875 1.828125 C3.15789063 2.62734375 3.51109375 3.4265625 3.875 4.25 C4.39707031 5.43335938 4.39707031 5.43335938 4.9296875 6.640625 C5.95067007 8.97469474 5.95067007 8.97469474 7.125 11.03125 C8.59352831 14.33543871 8.11920673 17.42379817 8 21 C8.928125 21.0928125 8.928125 21.0928125 9.875 21.1875 C12 22 12 22 13.25 24.1875 C14 27 14 27 14 33 C7.07 33 0.14 33 -7 33 C-6.4868784 25.06934841 -5.14923764 17.93298815 -2.9375 10.3125 C-2.65583984 9.31283203 -2.37417969 8.31316406 -2.08398438 7.28320312 C-1.39791232 4.85288007 -0.70319922 2.42541145 0 0 Z " fill="#040404" transform="translate(36,223)"/>
<path d="M0 0 C0.12375 1.9490625 0.12375 1.9490625 0.25 3.9375 C0.80338263 9.14094865 2.64679993 13.37021568 5 18 C4.030625 17.814375 3.06125 17.62875 2.0625 17.4375 C-0.95660325 17.40075635 -1.9216064 17.93509491 -4.29296875 19.8984375 C-5.82287235 21.4821568 -7.32318433 23.09512178 -8.7890625 24.73828125 C-11.04666364 27.04773542 -13.13462413 28.52923398 -16 30 C-16.66 30 -17.32 30 -18 30 C-17.85775413 27.47891897 -17.71129879 24.95819597 -17.5625 22.4375 C-17.52318359 21.73302734 -17.48386719 21.02855469 -17.44335938 20.30273438 C-17.17544463 15.83061907 -16.88322703 11.39957465 -16 7 C-11.96367096 3.45590621 -5.52110137 0 0 0 Z " fill="#070707" transform="translate(98,158)"/>
<path d="M0 0 C4 1.33333333 8 2.66666667 12 4 C20.7930419 4.65789666 28.59026371 3.5456499 37 1 C35.83139535 10.29651163 35.83139535 10.29651163 32.5625 13.0625 C27.96385691 14.7449304 24.04982227 15.21473384 19.1875 15.25 C18.48818359 15.270625 17.78886719 15.29125 17.06835938 15.3125 C12.27540285 15.34836871 8.98442794 14.68934302 5 12 C3.3203125 9.58984375 3.3203125 9.58984375 2.125 6.9375 C1.71507813 6.05964844 1.30515625 5.18179688 0.8828125 4.27734375 C0 2 0 2 0 0 Z " fill="#090909" transform="translate(101,167)"/>
<path d="M0 0 C0 0.66 0 1.32 0 2 C-0.99 2.38671875 -1.98 2.7734375 -3 3.171875 C-9.81994134 5.85566819 -16.51707243 8.56007925 -23 12 C-21.65721794 26.91194809 -18.09744726 39.17212154 -11.5859375 52.65234375 C-8.96144581 58.19221906 -7.75652571 61.7914055 -8 68 C-7.38125 68.226875 -6.7625 68.45375 -6.125 68.6875 C-3.28576732 70.44114371 -2.87037313 71.80863187 -2 75 C-1.875 78.3125 -1.875 78.3125 -2 81 C-2.66 81 -3.32 81 -4 81 C-4.66 77.37 -5.32 73.74 -6 70 C-7.32 69.67 -8.64 69.34 -10 69 C-10.14695312 68.05640625 -10.14695312 68.05640625 -10.296875 67.09375 C-11.22799625 61.76388356 -12.50380212 57.39663789 -15.1953125 52.69140625 C-16 51 -16 51 -16 48 C-16.66 48 -17.32 48 -18 48 C-18.12503906 49.00546875 -18.25007813 50.0109375 -18.37890625 51.046875 C-18.92663866 54.87811397 -19.88686178 58.52320782 -20.9375 62.25 C-22.65154728 68.4498609 -23.99607744 74.64622693 -25 81 C-25.99 81 -26.98 81 -28 81 C-27.53420783 72.03785968 -25.08686225 64.06853386 -22.3515625 55.5703125 C-22.03703125 54.55195313 -21.7225 53.53359375 -21.3984375 52.484375 C-21.10630371 51.57397461 -20.81416992 50.66357422 -20.51318359 49.72558594 C-19.76747845 45.76504729 -20.36973111 42.46119481 -21.95703125 38.78125 C-23.57127637 34.47659635 -24.0538494 30.03856146 -24.6875 25.5 C-24.82994141 24.56285156 -24.97238281 23.62570313 -25.11914062 22.66015625 C-25.24869141 21.75136719 -25.37824219 20.84257812 -25.51171875 19.90625 C-25.62990967 19.08447266 -25.74810059 18.26269531 -25.86987305 17.41601562 C-26.01428292 14.73481464 -25.72725597 12.58217033 -25 10 C-18.79924258 4.47521614 -8.3258845 0 0 0 Z " fill="#E0E0E0" transform="translate(54,175)"/>
<path d="M0 0 C8.08801574 1.70274016 16.02229131 3.84386252 24 6 C24 13.26 24 20.52 24 28 C18.37773153 22.37773153 18.37773153 22.37773153 16.1328125 19.73046875 C15.64264648 19.15514404 15.15248047 18.57981934 14.64746094 17.98706055 C14.14504883 17.39320557 13.64263672 16.79935059 13.125 16.1875 C12.070705 14.94758282 11.01601914 13.70799787 9.9609375 12.46875 C9.45530273 11.87449219 8.94966797 11.28023437 8.42871094 10.66796875 C6.02670514 7.86371318 3.57254023 5.10600326 1.109375 2.35546875 C0 1 0 1 0 0 Z " fill="#070707" transform="translate(115,222)"/>
<path d="M0 0 C1.56073255 2.34109882 2.86373867 4.56333403 4.125 7.0625 C4.47820312 7.75472656 4.83140625 8.44695312 5.1953125 9.16015625 C6 11 6 11 6 13 C7.32 13.33 8.64 13.66 10 14 C9.67 14.99 9.34 15.98 9 17 C7.35 16.01 5.7 15.02 4 14 C4.33 39.08 4.66 64.16 5 90 C4.01 90 3.02 90 2 90 C1.85393663 82.78571395 1.71205769 75.57135329 1.57275391 68.35693359 C1.52515843 65.91550949 1.47669107 63.47410219 1.42724609 61.03271484 C1.09878772 44.77737719 0.93401752 28.53178295 0.99206543 12.27304077 C0.99820099 10.51536923 1 8.75768225 1 7 C0.67 6.67 0.34 6.34 0 6 C-0.04080783 4.00041636 -0.04254356 1.99954746 0 0 Z " fill="#DADADA" transform="translate(100,166)"/>
<path d="M0 0 C0.66 0 1.32 0 2 0 C2.125 3.375 2.125 3.375 2 7 C1.34 7.66 0.68 8.32 0 9 C-2.97 8.505 -2.97 8.505 -6 8 C-6.33 29.45 -6.66 50.9 -7 73 C-7.99 73 -8.98 73 -10 73 C-10 49.57 -10 26.14 -10 2 C-6 4 -6 4 -4 6 C-3.01 6 -2.02 6 -1 6 C-0.67 4.02 -0.34 2.04 0 0 Z " fill="#F5F5F5" transform="translate(163,183)"/>
<path d="M0 0 C0.99 0.61875 1.98 1.2375 3 1.875 C9.46536323 5.1779573 16.88032578 5.34333102 24 6 C24 8.64 24 11.28 24 14 C15.97265863 13.63512085 7.55748943 9.82518985 1.75 4.25 C0 2 0 2 0 0 Z " fill="#0C0C0C" transform="translate(117,149)"/>
<path d="M0 0 C1.56073255 2.34109882 2.86373867 4.56333403 4.125 7.0625 C4.47820312 7.75472656 4.83140625 8.44695312 5.1953125 9.16015625 C6 11 6 11 6 13 C7.32 13.33 8.64 13.66 10 14 C9.67 14.99 9.34 15.98 9 17 C7.35 16.01 5.7 15.02 4 14 C4 23.24 4 32.48 4 42 C3.34 42 2.68 42 2 42 C1.22289135 37.88627953 0.88124985 34.01608818 0.90234375 29.83203125 C0.90556641 28.69185547 0.90878906 27.55167969 0.91210938 26.37695312 C0.92467773 24.61254883 0.92467773 24.61254883 0.9375 22.8125 C0.94201172 21.62462891 0.94652344 20.43675781 0.95117188 19.21289062 C0.95988163 17.01927689 0.97064603 14.82566966 0.98413086 12.63208008 C0.99544954 10.75474672 1 8.87736748 1 7 C0.67 6.67 0.34 6.34 0 6 C-0.04080783 4.00041636 -0.04254356 1.99954746 0 0 Z " fill="#D4D4D4" transform="translate(100,166)"/>
<path d="M0 0 C0 0.66 0 1.32 0 2 C-0.99 2.38671875 -1.98 2.7734375 -3 3.171875 C-9.81994134 5.85566819 -16.51707243 8.56007925 -23 12 C-22.835 13.093125 -22.67 14.18625 -22.5 15.3125 C-21.83377888 20.53905159 -21.91298457 25.7404008 -22 31 C-24.38171031 27.19726926 -24.65510945 23.10996803 -25.125 18.75 C-25.21136719 18.00492188 -25.29773438 17.25984375 -25.38671875 16.4921875 C-25.59786867 14.66222154 -25.79984545 12.83120121 -26 11 C-18.88860535 5.52535492 -9.22061397 0 0 0 Z " fill="#ECECEC" transform="translate(54,175)"/>
<path d="M0 0 C0.33 0 0.66 0 1 0 C2.00697917 7.65304172 -2.55992478 14.14208563 -7 20 C-7.71247732 21.6476038 -8.37400383 23.31763529 -9 25 C-9.515625 26.093125 -10.03125 27.18625 -10.5625 28.3125 C-12.14643369 32.37563426 -12.62102716 35.67970959 -13 40 C-13.66 40 -14.32 40 -15 40 C-15.97263272 28.52293385 -11.35319827 19.31425195 -4.58203125 10.30078125 C-2.3293828 7.02470733 -1.18950388 3.77842407 0 0 Z " fill="#D8D8D8" transform="translate(206,216)"/>
<path d="M0 0 C2 3 2 3 1.6796875 5.25 C1.28136719 6.61125 1.28136719 6.61125 0.875 8 C-0.69478324 13.71598201 -1.98703353 19.44792581 -3.1875 25.25 C-3.36619629 26.10851562 -3.54489258 26.96703125 -3.72900391 27.8515625 C-4.15464986 29.90063124 -4.57761561 31.95025645 -5 34 C-5.99 34 -6.98 34 -8 34 C-7.57542786 26.08278265 -5.75639895 18.93323301 -3.4375 11.375 C-3.10814453 10.27542969 -2.77878906 9.17585937 -2.43945312 8.04296875 C-1.63438902 5.35942175 -0.82112916 2.67866599 0 0 Z " fill="#DADADA" transform="translate(34,222)"/>
<path d="M0 0 C2.34188834 3.51283252 3.35192835 7.05182796 4.5 11.0625 C4.72067139 11.82602783 4.94134277 12.58955566 5.16870117 13.3762207 C9.4068907 28.26907665 9.4068907 28.26907665 9 36 C8.34 36 7.68 36 7 36 C6.01863352 31.98048805 5.04013547 27.96028945 4.06420898 23.93945312 C3.73230113 22.57370479 3.39963079 21.20814151 3.06616211 19.84277344 C2.58503436 17.87223526 2.10671663 15.90103234 1.62890625 13.9296875 C1.34088135 12.74616699 1.05285645 11.56264648 0.75610352 10.34326172 C0.05231681 7.23132914 -0.59588525 4.16532059 -1 1 C-0.67 0.67 -0.34 0.34 0 0 Z " fill="#DBDBDB" transform="translate(211,220)"/>
<path d="M0 0 C-1.155 0.5775 -2.31 1.155 -3.5 1.75 C-4.22445312 2.11738281 -4.94890625 2.48476562 -5.6953125 2.86328125 C-7.19472887 3.6028239 -8.71036263 4.31062895 -10.2421875 4.98046875 C-14.68688769 6.91389098 -14.68688769 6.91389098 -17.5 10.75 C-17.665 11.4925 -17.83 12.235 -18 13 C-18.99 12.34 -19.98 11.68 -21 11 C-17.38734066 3.93889311 -8.09061043 -2.5108791 0 0 Z " fill="#E6E6E6" transform="translate(99,157)"/>
<path d="M0 0 C0.33 0 0.66 0 1 0 C1.12117187 0.67546875 1.24234375 1.3509375 1.3671875 2.046875 C1.53476563 2.93890625 1.70234375 3.8309375 1.875 4.75 C2.03742188 5.63171875 2.19984375 6.5134375 2.3671875 7.421875 C2.89733338 9.99604024 2.89733338 9.99604024 4.0859375 12.16015625 C5.37116537 14.74708927 4.8718309 16.31185474 4 19 C1.29120665 20.35439668 -1.00933268 20.06501451 -4 20 C-4 19.34 -4 18.68 -4 18 C-0.535 17.505 -0.535 17.505 3 17 C2.71125 16.43152344 2.4225 15.86304687 2.125 15.27734375 C-0.29940592 10.23491617 -1.58326965 6.59938865 -1 1 C-0.67 0.67 -0.34 0.34 0 0 Z " fill="#1F1F1F" transform="translate(143,109)"/>
<path d="M0 0 C5.9536174 0.44932962 10.80454426 1.93983874 16.3671875 4.078125 C19.61605036 5.21570903 22.58204642 5.6961819 26 6 C22.23958806 8.2193968 19.96701318 7.9184055 15.7265625 6.84765625 C10.37810603 5.18488397 5.18884791 3.10120271 0 1 C0 0.67 0 0.34 0 0 Z " fill="#D6D6D6" transform="translate(186,178)"/>
<path d="M0 0 C0.66 0 1.32 0 2 0 C1.814375 0.70125 1.62875 1.4025 1.4375 2.125 C0.85359236 4.96039854 0.85359236 4.96039854 1.4375 7.625 C2.23619457 12.41716743 2.07762043 17.15303508 2 22 C-0.33172742 18.22576325 -0.72506022 14.19031374 -1.25 9.875 C-1.353125 9.14667969 -1.45625 8.41835937 -1.5625 7.66796875 C-1.79882188 5.78781971 -1.9084833 3.89273166 -2 2 C-1.34 1.34 -0.68 0.68 0 0 Z " fill="#EDEDED" transform="translate(30,184)"/>
<path d="M0 0 C2 0.66666667 4 1.33333333 6 2 C5.91284983 3.93833996 5.80467036 5.8757429 5.6875 7.8125 C5.62949219 8.89144531 5.57148437 9.97039062 5.51171875 11.08203125 C5 14 5 14 2 17 C2.33 12.38 2.66 7.76 3 3 C2.01 3 1.02 3 0 3 C0 2.01 0 1.02 0 0 Z " fill="#D4D4D4" transform="translate(76,167)"/>
<path d="M0 0 C3.72245768 5.58368652 5.53020564 12.28406188 5 19 C4.34 19 3.68 19 3 19 C2.29853686 16.77518771 1.61434046 14.54492632 0.9375 12.3125 C0.55464844 11.07113281 0.17179688 9.82976562 -0.22265625 8.55078125 C-0.96785758 5.1468214 -0.99851065 3.28440924 0 0 Z " fill="#E1E1E1" transform="translate(211,220)"/>
<path d="M0 0 C3.63 0 7.26 0 11 0 C11 0.66 11 1.32 11 2 C9.25 3.6875 9.25 3.6875 7 5 C4.75 4.6875 4.75 4.6875 3 4 C3 3.34 3 2.68 3 2 C2.01 2 1.02 2 0 2 C0 1.34 0 0.68 0 0 Z " fill="#101010" transform="translate(118,112)"/>
<path d="M0 0 C9.59453303 2.89066059 9.59453303 2.89066059 13 6 C10 7 10 7 7 5.5625 C6.01 5.046875 5.02 4.53125 4 4 C3.01 4 2.02 4 1 4 C0.34 5.32 -0.32 6.64 -1 8 C-1.04241723 5.66705225 -1.04092937 3.33297433 -1 1 C-0.67 0.67 -0.34 0.34 0 0 Z " fill="#D2D2D2" transform="translate(142,155)"/>
<path d="M0 0 C0 0.99 0 1.98 0 3 C-2 4.6875 -2 4.6875 -4 6 C-7.09162264 4.61410019 -8.49183541 3.50816459 -11 1 C-5.555 0.505 -5.555 0.505 0 0 Z " fill="#090909" transform="translate(158,111)"/>
<path d="M0 0 C0.66 0.33 1.32 0.66 2 1 C-3.02117061 6.43960149 -3.02117061 6.43960149 -7 7 C-9.08674954 6.91620565 -11.17149066 6.76583244 -13.25 6.5625 C-14.32765625 6.46066406 -15.4053125 6.35882813 -16.515625 6.25390625 C-17.33546875 6.17011719 -18.1553125 6.08632812 -19 6 C-19 5.67 -19 5.34 -19 5 C-18.13117188 4.97421875 -17.26234375 4.9484375 -16.3671875 4.921875 C-7.40073814 4.53488157 -7.40073814 4.53488157 0 0 Z " fill="#363636" transform="translate(148,149)"/>
<path d="M0 0 C-0.33 0.99 -0.66 1.98 -1 3 C-3.8914086 4.1194613 -6.67762612 4.10768197 -9.75 4.0625 C-10.54921875 4.05347656 -11.3484375 4.04445313 -12.171875 4.03515625 C-12.77515625 4.02355469 -13.3784375 4.01195313 -14 4 C-14.33 3.34 -14.66 2.68 -15 2 C-14.06027344 1.90912109 -14.06027344 1.90912109 -13.1015625 1.81640625 C-11.87566406 1.69072266 -11.87566406 1.69072266 -10.625 1.5625 C-9.81289062 1.48128906 -9.00078125 1.40007812 -8.1640625 1.31640625 C-4.91207355 0.84093494 -3.56824114 0 0 0 Z " fill="#262626" transform="translate(133,99)"/>
<path d="M0 0 C0.33 0 0.66 0 1 0 C1.33 4.95 1.66 9.9 2 15 C1.34 15 0.68 15 0 15 C-2 13 -2 13 -2.01171875 10.72265625 C-1.90472656 9.84480469 -1.79773438 8.96695313 -1.6875 8.0625 C-1.58824219 7.18722656 -1.48898438 6.31195313 -1.38671875 5.41015625 C-1 3 -1 3 0 0 Z " fill="#F4F4F4" transform="translate(209,206)"/>
<path d="M0 0 C1.68178661 2.52267991 2.90106742 4.81091823 4.125 7.5625 C4.47820313 8.34753906 4.83140625 9.13257813 5.1953125 9.94140625 C6 12 6 12 6 14 C5.34 14 4.68 14 4 14 C3.13116294 12.42466914 2.28040932 10.83935491 1.4375 9.25 C0.96183594 8.36828125 0.48617187 7.4865625 -0.00390625 6.578125 C-1.07998186 3.79298812 -1.06528748 2.73019786 0 0 Z " fill="#DCDCDC" transform="translate(40,224)"/>
<path d="M0 0 C5.01113235 1.4317521 6.94469549 3.98445693 10 8 C9.34 8.66 8.68 9.32 8 10 C7.443125 9.2575 6.88625 8.515 6.3125 7.75 C4.06972822 5.08292005 1.77925025 3.08443768 -1 1 C-0.67 0.67 -0.34 0.34 0 0 Z " fill="#DFDFDF" transform="translate(144,176)"/>
<path d="M0 0 C0.99 0 1.98 0 3 0 C3 1.98 3 3.96 3 6 C2.319375 5.79375 1.63875 5.5875 0.9375 5.375 C-2.78833331 4.89936171 -5.46992554 5.82330851 -9 7 C-9 6.34 -9 5.68 -9 5 C-8.43410156 4.72285156 -7.86820312 4.44570312 -7.28515625 4.16015625 C-6.55167969 3.79792969 -5.81820312 3.43570313 -5.0625 3.0625 C-3.96615234 2.52302734 -3.96615234 2.52302734 -2.84765625 1.97265625 C-1.03750973 1.13628173 -1.03750973 1.13628173 0 0 Z " fill="#5B5B5B" transform="translate(97,152)"/>
<path d="M0 0 C2 3 2 3 1.7578125 5.26171875 C1.54898438 6.06222656 1.34015625 6.86273438 1.125 7.6875 C0.92132813 8.49574219 0.71765625 9.30398437 0.5078125 10.13671875 C0.25644531 11.05904297 0.25644531 11.05904297 0 12 C-0.99 11.67 -1.98 11.34 -3 11 C-2.01 7.37 -1.02 3.74 0 0 Z " fill="#CECECE" transform="translate(34,222)"/>
<path d="M0 0 C0.66 0.33 1.32 0.66 2 1 C-0.77280706 4.08089673 -3.06326356 5.68775452 -7 7 C-6.875 5.1875 -6.875 5.1875 -6 3 C-3.0625 1.1875 -3.0625 1.1875 0 0 Z " fill="#DEDEDE" transform="translate(39,179)"/>
<path d="M0 0 C0.33 0 0.66 0 1 0 C0.125 7.625 0.125 7.625 -1 11 C-1.66 11 -2.32 11 -3 11 C-2.53199289 6.94393835 -2.12046792 3.53411321 0 0 Z " fill="#EEEEEE" transform="translate(32,232)"/>
<path d="M0 0 C0.33 0.99 0.66 1.98 1 3 C0.34 3 -0.32 3 -1 3 C-1.33 3.66 -1.66 4.32 -2 5 C-4.64 5 -7.28 5 -10 5 C-9.34 4.01 -8.68 3.02 -8 2 C-6.0546875 1.70703125 -6.0546875 1.70703125 -3.875 1.8125 C-2.59625 1.874375 -1.3175 1.93625 0 2 C0 1.34 0 0.68 0 0 Z " fill="#232323" transform="translate(158,97)"/>
<path d="M0 0 C0.99 0.33 1.98 0.66 3 1 C3.33 2.98 3.66 4.96 4 7 C3.34 7 2.68 7 2 7 C2 6.01 2 5.02 2 4 C1.34 4 0.68 4 0 4 C-0.33 4.66 -0.66 5.32 -1 6 C-0.67 4.02 -0.34 2.04 0 0 Z " fill="#F3F3F3" transform="translate(36,219)"/>
<path d="M0 0 C0.66 0 1.32 0 2 0 C1.625 1.9375 1.625 1.9375 1 4 C-1.70879335 5.35439668 -4.00933268 5.06501451 -7 5 C-7 4.34 -7 3.68 -7 3 C-3.535 2.505 -3.535 2.505 0 2 C0 1.34 0 0.68 0 0 Z " fill="#2D2D2D" transform="translate(146,124)"/>
<path d="M0 0 C-0.33 0.99 -0.66 1.98 -1 3 C-3.31 3.33 -5.62 3.66 -8 4 C-5.52914451 0.29371676 -4.37054922 0 0 0 Z " fill="#E9E9E9" transform="translate(76,168)"/>
<path d="M0 0 C2.31 0.33 4.62 0.66 7 1 C6.67 2.32 6.34 3.64 6 5 C4.02 4.01 2.04 3.02 0 2 C0 1.34 0 0.68 0 0 Z " fill="#101010" transform="translate(135,137)"/>
<path d="M0 0 C0.66 0 1.32 0 2 0 C2.25 2.25 2.25 2.25 2 5 C0 7.3125 0 7.3125 -2 9 C-1.34 6.03 -0.68 3.06 0 0 Z " fill="#E2E2E2" transform="translate(195,236)"/>
</svg>
