<?xml version="1.0" encoding="UTF-8"?>
<svg version="1.1" xmlns="http://www.w3.org/2000/svg" width="256" height="256">
<path d="M0 0 C84.48 0 168.96 0 256 0 C256 84.48 256 168.96 256 256 C171.52 256 87.04 256 0 256 C0 171.52 0 87.04 0 0 Z " fill="#DFCFFE" transform="translate(0,0)"/>
<path d="M0 0 C1.8125 1.0703125 1.8125 1.0703125 3.8125 3.0703125 C5.12997324 3.76779833 6.46164193 4.43991207 7.8125 5.0703125 C5.875 5.6328125 5.875 5.6328125 3.8125 6.0703125 C3.3175 5.5753125 3.3175 5.5753125 2.8125 5.0703125 C-0.81090109 4.55268377 -2.20565525 5.08078668 -5.4375 6.9453125 C-8.22335649 8.78010949 -8.22335649 8.78010949 -9.1875 11.0703125 C-9.55702728 16.70560348 -9.36951224 19.27217299 -6.1875 24.0703125 C6.63527288 22.92239621 6.63527288 22.92239621 18.8125 19.0703125 C19.58559461 17.03286317 19.58559461 17.03286317 19.8125 15.0703125 C19.02875 14.5134375 18.245 13.9565625 17.4375 13.3828125 C14.6508282 10.92788734 14.10863998 9.44027644 12.8125 6.0703125 C10.79932781 4.26683172 10.79932781 4.26683172 8.8125 3.0703125 C11.91902645 3.4061532 13.41664303 3.66080529 15.625 5.9453125 C16.8125 8.0703125 16.8125 8.0703125 16.8125 11.0703125 C18.1325 11.4003125 19.4525 11.7303125 20.8125 12.0703125 C21.3075 15.5353125 21.3075 15.5353125 21.8125 19.0703125 C22.369375 19.16828125 22.92625 19.26625 23.5 19.3671875 C33.34982355 21.29722049 41.63653834 25.31146618 47.625 33.6953125 C50.87397911 39.27850962 51.59756133 45.36771829 50.26171875 51.66796875 C49.13486455 55.22189353 47.89205246 57.95098381 45.8125 61.0703125 C44.8225 60.7403125 43.8325 60.4103125 42.8125 60.0703125 C42.79848145 61.11989136 42.79848145 61.11989136 42.78417969 62.19067383 C42.72983953 65.42204875 42.64632065 68.65207303 42.5625 71.8828125 C42.54832031 72.98302734 42.53414062 74.08324219 42.51953125 75.21679688 C42.21110375 85.67248917 40.08760045 94.59661615 32.76171875 102.3515625 C30.15063667 104.65391945 27.37060195 106.4050048 24.31640625 108.0625 C23.57197266 108.56136719 23.57197266 108.56136719 22.8125 109.0703125 C22.8125 109.7303125 22.8125 110.3903125 22.8125 111.0703125 C24.029375 110.9671875 25.24625 110.8640625 26.5 110.7578125 C43.2676603 110.86261038 60.54633201 125.08695394 71.98828125 136.1796875 C83.56093821 148.49389336 89.30787189 163.70216273 95.57910156 179.11157227 C97.00726459 182.53752391 98.54799369 185.90123235 100.14648438 189.25073242 C101.07061871 191.77550266 100.77084438 193.59458953 99.8125 196.0703125 C98.8225 196.4003125 97.8325 196.7303125 96.8125 197.0703125 C96.8125 200.7003125 96.8125 204.3303125 96.8125 208.0703125 C37.7425 208.0703125 -21.3275 208.0703125 -82.1875 208.0703125 C-82.1875 206.0903125 -82.1875 204.1103125 -82.1875 202.0703125 C-82.73019531 201.81636719 -83.27289063 201.56242188 -83.83203125 201.30078125 C-84.90517578 200.78451172 -84.90517578 200.78451172 -86 200.2578125 C-86.70769531 199.92136719 -87.41539063 199.58492187 -88.14453125 199.23828125 C-90.27994787 198.01745989 -91.62894406 196.96985453 -93.1875 195.0703125 C-93.19527025 187.24566838 -90.3556174 181.02653135 -87.125 174.0078125 C-86.62766357 172.90816162 -86.13032715 171.80851074 -85.61791992 170.67553711 C-84.15723373 167.46607253 -82.67585509 164.26702242 -81.1875 161.0703125 C-80.80045898 160.22758789 -80.41341797 159.38486328 -80.01464844 158.51660156 C-72.26235149 141.72594543 -63.49310067 131.43119287 -46.44165039 124.13623047 C-41.89683315 122.13145473 -38.43765294 119.8536646 -34.83105469 116.42529297 C-30.86147753 113.15269148 -26.27015054 112.0703125 -21.1875 112.0703125 C-21.5175 110.4203125 -21.8475 108.7703125 -22.1875 107.0703125 C-23.13625 107.8746875 -24.085 108.6790625 -25.0625 109.5078125 C-29.96206556 113.66179199 -33.90359954 113.41192654 -40.1875 113.0703125 C-46.62919634 112.35114385 -50.68252629 110.79504102 -55.1875 106.0703125 C-55.9033234 104.42415969 -56.5792796 102.75918495 -57.1875 101.0703125 C-56.50042969 100.82796875 -55.81335937 100.585625 -55.10546875 100.3359375 C-53.75388672 99.83320313 -53.75388672 99.83320313 -52.375 99.3203125 C-51.48167969 98.99546875 -50.58835938 98.670625 -49.66796875 98.3359375 C-46.94454839 96.94634979 -45.80425616 95.62704318 -44.1875 93.0703125 C-45.0125 93.5653125 -45.8375 94.0603125 -46.6875 94.5703125 C-50.6924158 96.28670499 -53.93372435 96.91311665 -58.1875 96.0703125 C-62.58450415 94.22970611 -65.49944661 92.08089092 -68.1875 88.1328125 C-69.94022093 82.76510465 -69.1621403 78.19860762 -67.75 72.8203125 C-67.48316406 71.78390625 -67.21632813 70.7475 -66.94140625 69.6796875 C-66.1875 67.0703125 -66.1875 67.0703125 -65.1875 65.0703125 C-64.5275 65.0703125 -63.8675 65.0703125 -63.1875 65.0703125 C-62.5275 66.7203125 -61.8675 68.3703125 -61.1875 70.0703125 C-58.4015814 70.74043672 -58.4015814 70.74043672 -55.1875 70.0703125 C-47.16663351 60.87566067 -45.36869597 46.42534009 -43.1875 34.7578125 C-40.39734258 20.15866705 -35.60752412 9.12488547 -23.3125 0.0078125 C-15.63385985 -4.7529444 -7.88189985 -3.80020171 0 0 Z " fill="#1B1B1B" transform="translate(119.1875,47.9296875)"/>
<path d="M0 0 C1.8125 1.0703125 1.8125 1.0703125 3.8125 3.0703125 C5.12997324 3.76779833 6.46164193 4.43991207 7.8125 5.0703125 C5.875 5.6328125 5.875 5.6328125 3.8125 6.0703125 C3.3175 5.5753125 3.3175 5.5753125 2.8125 5.0703125 C-0.81090109 4.55268377 -2.20565525 5.08078668 -5.4375 6.9453125 C-8.22335649 8.78010949 -8.22335649 8.78010949 -9.1875 11.0703125 C-9.55702728 16.70560348 -9.36951224 19.27217299 -6.1875 24.0703125 C6.63527288 22.92239621 6.63527288 22.92239621 18.8125 19.0703125 C19.58559461 17.03286317 19.58559461 17.03286317 19.8125 15.0703125 C19.02875 14.5134375 18.245 13.9565625 17.4375 13.3828125 C14.6508282 10.92788734 14.10863998 9.44027644 12.8125 6.0703125 C10.79932781 4.26683172 10.79932781 4.26683172 8.8125 3.0703125 C11.91902645 3.4061532 13.41664303 3.66080529 15.625 5.9453125 C16.8125 8.0703125 16.8125 8.0703125 16.8125 11.0703125 C18.1325 11.4003125 19.4525 11.7303125 20.8125 12.0703125 C21.3075 15.5353125 21.3075 15.5353125 21.8125 19.0703125 C22.369375 19.16828125 22.92625 19.26625 23.5 19.3671875 C33.34982355 21.29722049 41.63653834 25.31146618 47.625 33.6953125 C50.87397911 39.27850962 51.59756133 45.36771829 50.26171875 51.66796875 C49.13486455 55.22189353 47.89205246 57.95098381 45.8125 61.0703125 C44.3275 60.5753125 44.3275 60.5753125 42.8125 60.0703125 C42.8031543 60.77003174 42.79380859 61.46975098 42.78417969 62.19067383 C42.72983953 65.42204875 42.64632065 68.65207303 42.5625 71.8828125 C42.54832031 72.98302734 42.53414063 74.08324219 42.51953125 75.21679688 C42.27717046 83.43282764 41.49157088 92.09837816 35.67480469 98.37817383 C35.06024414 98.93657959 34.44568359 99.49498535 33.8125 100.0703125 C33.4825 99.4103125 33.1525 98.7503125 32.8125 98.0703125 C33.74387598 96.46449184 34.68157619 94.8599376 35.70703125 93.3125 C39.29715277 86.03076942 39.18535562 78.2668746 39.375 70.3203125 C39.43500632 68.09624851 39.49865481 65.87227902 39.56640625 63.6484375 C39.60229858 62.18519043 39.60229858 62.18519043 39.63891602 60.69238281 C39.79414299 58.34760406 40.15284883 56.31811125 40.8125 54.0703125 C39.3275 53.5753125 39.3275 53.5753125 37.8125 53.0703125 C37.4825 52.4103125 37.1525 51.7503125 36.8125 51.0703125 C35.3275 50.5753125 35.3275 50.5753125 33.8125 50.0703125 C33.4825 48.4203125 33.1525 46.7703125 32.8125 45.0703125 C32.4825 46.0603125 32.1525 47.0503125 31.8125 48.0703125 C30.20754433 47.95588789 28.60351881 47.82836556 27 47.6953125 C26.10667969 47.62570313 25.21335937 47.55609375 24.29296875 47.484375 C21.8125 47.0703125 21.8125 47.0703125 18.8125 45.0703125 C18.10470795 42.31487513 17.56728688 39.74012468 17.125 36.9453125 C16.691875 34.3465625 16.25875 31.7478125 15.8125 29.0703125 C15.4825 34.6803125 15.1525 40.2903125 14.8125 46.0703125 C10.8834375 46.10125 10.8834375 46.10125 6.875 46.1328125 C6.0487915 46.1419165 5.22258301 46.15102051 4.37133789 46.16040039 C2.51816241 46.16755195 0.66500692 46.1205977 -1.1875 46.0703125 C-1.5175 45.7403125 -1.8475 45.4103125 -2.1875 45.0703125 C-2.29964844 45.699375 -2.41179687 46.3284375 -2.52734375 46.9765625 C-4.29111423 54.63109582 -7.8333717 58.57727204 -14.1875 63.0703125 C-15.5028341 63.77182402 -16.83093541 64.45228763 -18.1875 65.0703125 C-17.75339605 69.3874633 -17.75339605 69.3874633 -15.5625 73.0078125 C-14.1875 75.0703125 -14.1875 75.0703125 -14.3125 78.6328125 C-15.14365817 81.89807676 -15.54498638 83.11715026 -18.1875 85.0703125 C-19.1775 84.7403125 -20.1675 84.4103125 -21.1875 84.0703125 C-20.8575 83.7403125 -20.5275 83.4103125 -20.1875 83.0703125 C-20.11601801 81.71787333 -20.10350546 80.36196883 -20.125 79.0078125 C-20.145625 77.7084375 -20.16625 76.4090625 -20.1875 75.0703125 C-21.2703125 74.668125 -21.2703125 74.668125 -22.375 74.2578125 C-25.16340126 73.08048752 -27.62845724 71.67885366 -30.1875 70.0703125 C-29.5275 71.3903125 -28.8675 72.7103125 -28.1875 74.0703125 C-29.1775 73.7403125 -30.1675 73.4103125 -31.1875 73.0703125 C-31.0946875 71.7090625 -31.0946875 71.7090625 -31 70.3203125 C-31.20422076 66.78048608 -31.83301835 65.62100095 -34.1875 63.0703125 C-32.8675 63.7303125 -31.5475 64.3903125 -30.1875 65.0703125 C-30.8475 63.0903125 -31.5075 61.1103125 -32.1875 59.0703125 C-29.1875 60.0703125 -29.1875 60.0703125 -28.1875 62.0703125 C-28.6825 58.6053125 -28.6825 58.6053125 -29.1875 55.0703125 C-32.1575 54.5753125 -32.1575 54.5753125 -35.1875 54.0703125 C-39.03188623 59.63348516 -38.84081751 64.5031988 -38.1875 71.0703125 C-36.96334346 75.96644758 -36.96334346 75.96644758 -34.1875 80.0703125 C-31.22945427 80.40371721 -31.22945427 80.40371721 -28.1875 80.0703125 C-27.1975 78.5853125 -27.1975 78.5853125 -26.1875 77.0703125 C-25.1975 77.0703125 -24.2075 77.0703125 -23.1875 77.0703125 C-22.67593054 80.52703451 -22.18043468 83.98588802 -21.6875 87.4453125 C-21.54441406 88.41082031 -21.40132812 89.37632812 -21.25390625 90.37109375 C-20.36884906 96.65078523 -19.99955326 102.73059048 -20.1875 109.0703125 C-21.1775 108.0803125 -21.1775 108.0803125 -22.1875 107.0703125 C-23.13625 107.8746875 -24.085 108.6790625 -25.0625 109.5078125 C-29.96206556 113.66179199 -33.90359954 113.41192654 -40.1875 113.0703125 C-46.62919634 112.35114385 -50.68252629 110.79504102 -55.1875 106.0703125 C-55.9033234 104.42415969 -56.5792796 102.75918495 -57.1875 101.0703125 C-56.50042969 100.82796875 -55.81335937 100.585625 -55.10546875 100.3359375 C-53.75388672 99.83320313 -53.75388672 99.83320313 -52.375 99.3203125 C-51.48167969 98.99546875 -50.58835937 98.670625 -49.66796875 98.3359375 C-46.94454839 96.94634979 -45.80425616 95.62704318 -44.1875 93.0703125 C-45.0125 93.5653125 -45.8375 94.0603125 -46.6875 94.5703125 C-50.6924158 96.28670499 -53.93372435 96.91311665 -58.1875 96.0703125 C-62.58450415 94.22970611 -65.49944661 92.08089092 -68.1875 88.1328125 C-69.94022093 82.76510465 -69.1621403 78.19860762 -67.75 72.8203125 C-67.48316406 71.78390625 -67.21632812 70.7475 -66.94140625 69.6796875 C-66.1875 67.0703125 -66.1875 67.0703125 -65.1875 65.0703125 C-64.5275 65.0703125 -63.8675 65.0703125 -63.1875 65.0703125 C-62.5275 66.7203125 -61.8675 68.3703125 -61.1875 70.0703125 C-58.4015814 70.74043672 -58.4015814 70.74043672 -55.1875 70.0703125 C-47.16663351 60.87566067 -45.36869597 46.42534009 -43.1875 34.7578125 C-40.39734258 20.15866705 -35.60752412 9.12488547 -23.3125 0.0078125 C-15.63385985 -4.7529444 -7.88189985 -3.80020171 0 0 Z " fill="#050405" transform="translate(119.1875,47.9296875)"/>
<path d="M0 0 C0.66 0.33 1.32 0.66 2 1 C2.63860769 3.69797102 3.16825242 6.33366623 3.625 9.0625 C3.82609375 10.20041992 3.82609375 10.20041992 4.03125 11.36132812 C4.36200122 13.23952258 4.68200734 15.11960338 5 17 C8.96 17.99 12.92 18.98 17 20 C17 18.35 17 16.7 17 15 C19 17 19 17 19.5 19.5625 C19.665 20.366875 19.83 21.17125 20 22 C20.66 22.33 21.32 22.66 22 23 C22 20.36 22 17.72 22 15 C22.33 15 22.66 15 23 15 C23.04898438 15.71027344 23.09796875 16.42054687 23.1484375 17.15234375 C23.26058594 18.53099609 23.26058594 18.53099609 23.375 19.9375 C23.47941406 21.31228516 23.47941406 21.31228516 23.5859375 22.71484375 C23.79089844 23.84599609 23.79089844 23.84599609 24 25 C24.66 25.33 25.32 25.66 26 26 C25.93032041 29.94748343 25.84198718 33.89409994 25.73754883 37.84082031 C25.68857841 39.83116913 25.65370054 41.82184881 25.61914062 43.8125 C25.36497878 52.96232652 24.89645553 62.16229848 19 69.625 C18.505 70.27726562 18.01 70.92953125 17.5 71.6015625 C16 73 16 73 13 73 C13.103125 72.0925 13.20625 71.185 13.3125 70.25 C13.31120774 66.86163936 13.31120774 66.86163936 10.8125 64.5625 C8.12274792 62.72397955 8.12274792 62.72397955 5.1875 63.25 C4.465625 63.4975 3.74375 63.745 3 64 C2.55115267 67.94027788 2.55115267 67.94027788 4.75 69.921875 C5.4925 70.52515625 6.235 71.1284375 7 71.75 C7.7425 72.36359375 8.485 72.9771875 9.25 73.609375 C9.8275 74.06828125 10.405 74.5271875 11 75 C10.015625 76.47265625 10.015625 76.47265625 8 78 C5.15524301 78.32756019 2.5914179 78.46421419 -0.25 78.4375 C-0.98863281 78.45748047 -1.72726563 78.47746094 -2.48828125 78.49804688 C-8.09333202 78.49310415 -11.34832956 77.10726663 -16 74 C-16 74.99 -16 75.98 -16 77 C-15.484375 77.25652344 -14.96875 77.51304687 -14.4375 77.77734375 C-12.51682955 78.74075697 -10.6012103 79.71424049 -8.6875 80.69140625 C-7.45838069 81.31519749 -6.22921283 81.93889307 -5 82.5625 C-4.38382813 82.87896484 -3.76765625 83.19542969 -3.1328125 83.52148438 C-0.13256908 85.03770181 2.67801213 86.39373721 6 87 C5.35374248 91.54288675 4.235524 95.7235726 2.8203125 100.0859375 C2.60688202 100.74655182 2.39345154 101.40716614 2.17355347 102.08779907 C1.72333818 103.47845404 1.2710842 104.86845049 0.81689453 106.2578125 C0.1297432 108.36048589 -0.55090086 110.4651775 -1.23046875 112.5703125 C-3.34691656 119.10207826 -5.50339 125.60140352 -8 132 C-10.69666661 128.72757451 -13.08174053 125.41685361 -15.3125 121.8125 C-17.56194974 118.22102186 -19.88114617 114.73793264 -22.375 111.3125 C-36.05442087 91.71260085 -36.05442087 91.71260085 -35.1171875 81.33203125 C-34.96066692 76.88162935 -35.72735032 72.7470046 -36.5 68.375 C-37.63081052 61.8169433 -38.32843609 55.67820045 -38 49 C-41.27773504 49.75150023 -41.27773504 49.75150023 -43 53 C-45.875 53.5625 -45.875 53.5625 -49 53 C-53.31869951 47.86424923 -54.1511067 43.59769914 -54.25 37.0625 C-54.27578125 36.04285156 -54.3015625 35.02320313 -54.328125 33.97265625 C-53.95198802 30.56503428 -53.04235095 28.72963372 -51 26 C-48.5625 24.9375 -48.5625 24.9375 -46 25 C-43.6875 26.5625 -43.6875 26.5625 -42 29 C-41.75 32.25 -41.75 32.25 -42 35 C-42.99 34.34 -43.98 33.68 -45 33 C-44.67 34.65 -44.34 36.3 -44 38 C-44.99 37.67 -45.98 37.34 -47 37 C-46.34 37.99 -45.68 38.98 -45 40 C-44.875 42.6875 -44.875 42.6875 -45 45 C-45 44.01 -45 43.02 -45 42 C-40.9986972 42.61558505 -38.22175647 44.63737859 -35 47 C-33.64560332 49.70879335 -33.93498549 52.00933268 -34 55 C-33.34 55 -32.68 55 -32 55 C-29.64900152 52.12262918 -29.64900152 52.12262918 -30.1875 48.5625 C-30.72920499 45.04907046 -30.72920499 45.04907046 -32.625 42.875 C-34 41 -34 41 -33.85546875 38.5703125 C-32.77238009 35.3161009 -31.62033139 34.68961808 -28.6875 33 C-23.10460432 29.49961302 -20.24897937 26.7136687 -18.75 20.1875 C-18.486338 18.79418272 -18.2316422 17.39899699 -18 16 C-17.34 16.33 -16.68 16.66 -16 17 C-13.5622375 17.07015144 -11.14089364 16.99732254 -8.703125 16.9375 C-6 17 -6 17 0 18 C0 12.06 0 6.12 0 0 Z " fill="#F9F9F9" transform="translate(134,76)"/>
<path d="M0 0 C18.54354762 6.18118254 34.26635511 24.42067189 42.83203125 41.4296875 C45.58804577 47.12397542 48.09122351 52.92763445 50.5625 58.75 C51.0167334 59.81041504 51.4709668 60.87083008 51.93896484 61.96337891 C52.35227051 62.96030762 52.76557617 63.95723633 53.19140625 64.984375 C53.56467041 65.87866211 53.93793457 66.77294922 54.32250977 67.69433594 C55 70 55 70 54 73 C51.99047852 74.13500977 51.99047852 74.13500977 49.37890625 75.19140625 C48.44369141 75.57876953 47.50847656 75.96613281 46.54492188 76.36523438 C45.56072266 76.76033203 44.57652344 77.15542969 43.5625 77.5625 C41.62455302 78.35118454 39.68826651 79.14396523 37.75390625 79.94140625 C36.89095947 80.28888916 36.0280127 80.63637207 35.13891602 80.99438477 C32.8519361 81.92202678 32.8519361 81.92202678 31 84 C30.67 85.65 30.34 87.3 30 89 C3.93 89 -22.14 89 -49 89 C-45.3860876 84.78376886 -42.06758897 80.98143397 -38.125 77.1875 C-33.30811985 72.42109614 -29.14239545 67.35094141 -25 62 C-23.60515465 60.29085989 -22.20932595 58.58252181 -20.8125 56.875 C-18.44215791 53.88630779 -16.10050932 50.8929362 -13.9375 47.75 C-13.53402344 47.16734375 -13.13054687 46.5846875 -12.71484375 45.984375 C-11.59861701 43.39295721 -11.59861701 43.39295721 -13 38 C-9.04 37.34 -5.08 36.68 -1 36 C-0.67 24.12 -0.34 12.24 0 0 Z " fill="#FDFDFD" transform="translate(161,167)"/>
<path d="M0 0 C2.36963177 2.36963177 2.45094674 3.44396458 3 6.69140625 C3.2475 8.10969727 3.2475 8.10969727 3.5 9.55664062 C3.7475 11.04454102 3.7475 11.04454102 4 12.5625 C4.33160274 14.50159883 4.66491818 16.44040559 5 18.37890625 C5.16242188 19.31879395 5.32484375 20.25868164 5.4921875 21.22705078 C6.2160398 25.17970192 7.09501504 29.08513204 8 33 C11.96 33.33 15.92 33.66 20 34 C19.773125 35.19625 19.54625 36.3925 19.3125 37.625 C19.20721359 44.97165199 25.1925357 50.30540653 29.76318359 55.51708984 C32.02360627 58.22727684 33.02107978 59.46620565 32.87890625 63.06640625 C32.00388732 67.96470809 29.93170426 72.4083487 27.9375 76.9375 C27.56044922 77.81212891 27.18339844 78.68675781 26.79492188 79.58789062 C25.87077032 81.72864676 24.9390249 83.86573647 24 86 C18.4541445 86.20060134 12.9104836 86.34422973 7.36181641 86.43945312 C5.48220969 86.47921959 3.60284258 86.533456 1.72412109 86.60351562 C-12.11439269 87.1059283 -21.14569494 85.08784054 -33 78 C-39.16783418 75.21852575 -45.55822167 73.05390034 -52 71 C-53.88072047 64.30897524 -50.65396029 59.09033199 -48 53 C-47.60135742 52.07993164 -47.20271484 51.15986328 -46.79199219 50.21191406 C-45.42022533 47.0708397 -44.02647207 43.94042664 -42.625 40.8125 C-42.17930664 39.80340576 -41.73361328 38.79431152 -41.27441406 37.75463867 C-38.17008388 30.94260616 -34.50678505 24.97140464 -30 19 C-29.29488281 18.03835937 -28.58976562 17.07671875 -27.86328125 16.0859375 C-20.83731842 8.2203942 -9.47821872 4.20827795 0 0 Z " fill="#FDFDFD" transform="translate(82,170)"/>
<path d="M0 0 C1.54265031 0.08841276 3.08417123 0.19659695 4.625 0.3125 C5.48351562 0.37050781 6.34203125 0.42851562 7.2265625 0.48828125 C10.52922412 1.09764558 13.0664134 2.39556041 16 4 C16.02929984 8.31248547 16.04689903 12.62494493 16.0625 16.9375 C16.07087891 18.14986328 16.07925781 19.36222656 16.08789062 20.61132812 C16.10563447 27.15880877 15.98261148 33.52026137 15 40 C14 41 14 41 10.83984375 41.09765625 C9.55207031 41.08605469 8.26429688 41.07445312 6.9375 41.0625 C5.64714844 41.05347656 4.35679687 41.04445312 3.02734375 41.03515625 C2.02832031 41.02355469 1.02929688 41.01195312 0 41 C0.680625 41.886875 1.36125 42.77375 2.0625 43.6875 C4 47 4 47 3.828125 49.3984375 C0.7387433 59.10375925 -9.02500115 67.88414006 -15.65478516 75.45947266 C-16.7919834 76.76178135 -17.91867602 78.07325248 -19.04296875 79.38671875 C-23.13842895 84.15694584 -27.5028533 88.6079814 -32 93 C-32.66 92.67 -33.32 92.34 -34 92 C-30.01075708 81.81569749 -25.89533189 71.710067 -21.49926758 61.69360352 C-15.79506261 48.65962445 -10.95730672 35.66047285 -7 22 C-6.51358476 20.3461882 -6.02661754 18.69253864 -5.5390625 17.0390625 C-4.88389848 14.81555217 -4.23147642 12.59175322 -3.59594727 10.36254883 C-2.57944443 6.81668177 -1.44079069 3.39661516 0 0 Z " fill="#FAFAFA" transform="translate(143,161)"/>
<path d="M0 0 C2.625 -0.1875 2.625 -0.1875 5 0 C5.28875 1.17046875 5.5775 2.3409375 5.875 3.546875 C8.43308642 11.21512935 13.46240061 17.64551932 18 24.25 C19.37772537 26.27652106 20.75249603 28.30501928 22.12670898 30.33392334 C22.97764714 31.58794372 23.83117825 32.84020998 24.68774414 34.09039307 C31.63507603 44.2523172 31.63507603 44.2523172 31 51 C29.90625 54.74609375 29.90625 54.74609375 28.5 58.4375 C28.26152344 59.07365234 28.02304688 59.70980469 27.77734375 60.36523438 C27.19509076 61.91402732 26.59898931 63.45760253 26 65 C25.01 65 24.02 65 23 65 C21.18123808 62.74202329 19.54948503 60.52303305 17.9375 58.125 C14.74614354 53.34060917 14.74614354 53.34060917 11 49 C11.03325354 45.61922339 11.56917484 42.36043621 12 39 C8.04 38.67 4.08 38.34 0 38 C-4.78762932 27.53963343 -6.64461734 16.48373858 -6 5 C-5.38125 4.731875 -4.7625 4.46375 -4.125 4.1875 C-1.7004767 3.04443152 -1.7004767 3.04443152 0 0 Z " fill="#FBFBFB" transform="translate(92,163)"/>
<path d="M0 0 C2.21513707 0.62980561 2.21513707 0.62980561 5.1875 0.4375 C8.0625 0.5 8.0625 0.5 10.0625 2.5 C10.165625 3.11875 10.26875 3.7375 10.375 4.375 C11.37851357 7.47676921 13.47685978 8.64364292 16.0625 10.5 C15.75 12.375 15.75 12.375 15.0625 14.5 C7.80681009 19.33712661 -2.37635889 19.93956413 -10.9375 20.5 C-13.64732836 17.11271455 -15.23490918 14.77549982 -15.375 10.375 C-14.93520608 6.47968242 -14.74375816 5.11272312 -11.9375 2.5 C-7.87596352 -0.49271109 -4.90273985 -1.26522319 0 0 Z " fill="#FBFBFB" transform="translate(123.9375,52.5)"/>
<path d="M0 0 C0.99 0 1.98 0 3 0 C4.69892783 4.01675897 6.38929215 8.03698397 8.07202148 12.06054688 C8.6449101 13.4270761 9.22007386 14.79265393 9.79760742 16.15722656 C10.63028183 18.12575795 11.45454781 20.09763519 12.27734375 22.0703125 C12.77484131 23.25383301 13.27233887 24.43735352 13.78491211 25.65673828 C14.92825627 28.80260022 15.57448758 31.68849921 16 35 C14.68 35.66 13.36 36.32 12 37 C12 40.63 12 44.26 12 48 C3.75 48 -4.5 48 -13 48 C-13 43 -13 43 -11.11328125 40.953125 C-6.98804121 38.36514505 -2.69605177 36.5655242 1.8125 34.75 C2.69615234 34.38648438 3.57980469 34.02296875 4.49023438 33.6484375 C6.65724959 32.75820422 8.82706969 31.87567275 11 31 C8.69002859 23.64132849 5.78843021 16.63745707 2.69726562 9.578125 C2.34986328 8.77117187 2.00246094 7.96421875 1.64453125 7.1328125 C1.32846924 6.40980957 1.01240723 5.68680664 0.68676758 4.94189453 C0 3 0 3 0 0 Z " fill="#121113" transform="translate(204,208)"/>
<path d="M0 0 C2.375 1.75 2.375 1.75 4.375 3.75 C4.5 6.875 4.5 6.875 4.375 9.75 C6.025 9.09 7.675 8.43 9.375 7.75 C7.91895875 11.4461047 6.10896739 12.83829279 2.75 14.875 C0.33252911 16.30317819 0.33252911 16.30317819 -1.625 17.75 C-1.625 18.41 -1.625 19.07 -1.625 19.75 C-1.01011719 19.73839844 -0.39523438 19.72679687 0.23828125 19.71484375 C1.04652344 19.70582031 1.85476562 19.69679687 2.6875 19.6875 C3.88826172 19.67009766 3.88826172 19.67009766 5.11328125 19.65234375 C7.375 19.75 7.375 19.75 10.375 20.75 C10.375 21.41 10.375 22.07 10.375 22.75 C6.745 22.42 3.115 22.09 -0.625 21.75 C-1.615 25.71 -2.605 29.67 -3.625 33.75 C-4.285 33.75 -4.945 33.75 -5.625 33.75 C-5.16677532 30.28058454 -4.73368317 27.07604951 -3.625 23.75 C-4.48996094 23.64171875 -5.35492188 23.5334375 -6.24609375 23.421875 C-13.98601058 21.88283952 -21.58251824 17.87301356 -26.625 11.75 C-26.295 11.09 -25.965 10.43 -25.625 9.75 C-24.65175781 10.40355469 -23.67851563 11.05710938 -22.67578125 11.73046875 C-18.35959466 14.19453196 -14.68666313 14.25273187 -9.8125 14.0625 C-9.05001953 14.05283203 -8.28753906 14.04316406 -7.50195312 14.03320312 C-3.43040847 14.01413073 -3.43040847 14.01413073 0.375 12.75 C-2.595 9.78 -5.565 6.81 -8.625 3.75 C-7.965 3.42 -7.305 3.09 -6.625 2.75 C-6.625 2.09 -6.625 1.43 -6.625 0.75 C-3.84503542 -1.20627137 -3.16611013 -1.50767149 0 0 Z " fill="#131314" transform="translate(143.625,139.25)"/>
<path d="M0 0 C0.33 1.32 0.66 2.64 1 4 C1.67804687 4.17015625 2.35609375 4.3403125 3.0546875 4.515625 C15.53767035 7.76604159 26.56649023 13.15557565 38 19 C38 19.33 38 19.66 38 20 C28.76 20 19.52 20 10 20 C10 18.02 10 16.04 10 14 C9.45730469 13.74605469 8.91460937 13.49210938 8.35546875 13.23046875 C7.28232422 12.71419922 7.28232422 12.71419922 6.1875 12.1875 C5.47980469 11.85105469 4.77210937 11.51460937 4.04296875 11.16796875 C1.94058516 9.96603244 0.51691585 8.88551222 -1 7 C-1.25 3.875 -1.25 3.875 -1 1 C-0.67 0.67 -0.34 0.34 0 0 Z " fill="#121112" transform="translate(27,236)"/>
<path d="M0 0 C15.43522982 1.98002948 31.59561519 16.02104478 41.22265625 27.6953125 C52 42.15911215 52 42.15911215 52 47 C51.01 47.33 50.02 47.66 49 48 C48.67128906 47.33355469 48.34257812 46.66710937 48.00390625 45.98046875 C38.92350763 28.38565841 24.63964483 14.81982241 7 6 C7 8.64 7 11.28 7 14 C6.34 14 5.68 14 5 14 C4.67 10.7 4.34 7.4 4 4 C1.525 3.01 1.525 3.01 -1 2 C-0.67 1.34 -0.34 0.68 0 0 Z " fill="#161618" transform="translate(154,161)"/>
<path d="M0 0 C1.03405665 4.2654837 1 7.37316973 1 12 C-5.93 12 -12.86 12 -20 12 C-19.67 10.35 -19.34 8.7 -19 7 C-16.19921875 5.48828125 -16.19921875 5.48828125 -12.6875 4.3125 C-0.14332248 0 -0.14332248 0 0 0 Z " fill="#F8F8F8" transform="translate(213,244)"/>
<path d="M0 0 C0.66 0.33 1.32 0.66 2 1 C1 4 1 4 -1.125 6.0625 C-8.81852628 13.537468 -13.30238703 23.18397794 -17.6875 32.8125 C-18.51991211 34.58463867 -18.51991211 34.58463867 -19.36914062 36.39257812 C-22.92285974 44.10427537 -25.72217862 51.82113109 -28 60 C-29.06201172 58.24121094 -29.06201172 58.24121094 -30 56 C-28.09530198 48.59117465 -24.81768037 41.62229064 -21.71386719 34.64501953 C-20.88498742 32.77256181 -20.07528408 30.89255089 -19.265625 29.01171875 C-14.48917833 18.12868474 -8.66257794 8.29585771 0 0 Z " fill="#1B1A1D" transform="translate(57,180)"/>
<path d="M0 0 C2.375 1.75 2.375 1.75 4.375 3.75 C4.5 6.875 4.5 6.875 4.375 9.75 C6.025 9.09 7.675 8.43 9.375 7.75 C8.32625002 10.37187494 7.72568687 11.54371361 5.25 13 C4.63125 13.2475 4.0125 13.495 3.375 13.75 C-1.63702555 10.76665146 -5.01248484 7.31048012 -8.625 2.75 C-7.965 2.75 -7.305 2.75 -6.625 2.75 C-6.625 2.09 -6.625 1.43 -6.625 0.75 C-3.84503542 -1.20627137 -3.16611013 -1.50767149 0 0 Z " fill="#1F1F1F" transform="translate(143.625,139.25)"/>
<path d="M0 0 C-0.75 2.375 -0.75 2.375 -2 5 C-2.680625 5.309375 -3.36125 5.61875 -4.0625 5.9375 C-4.701875 6.288125 -5.34125 6.63875 -6 7 C-6.81584568 10.05908413 -6.81584568 10.05908413 -7 13 C-7.99 11.68 -8.98 10.36 -10 9 C-10.54938232 9.26216309 -11.09876465 9.52432617 -11.66479492 9.79443359 C-14.17160174 10.98956068 -16.67953751 12.18230011 -19.1875 13.375 C-20.48397461 13.99375 -20.48397461 13.99375 -21.80664062 14.625 C-22.64775391 15.02460938 -23.48886719 15.42421875 -24.35546875 15.8359375 C-25.51018677 16.38580322 -25.51018677 16.38580322 -26.68823242 16.94677734 C-29.09754093 18.04443886 -31.53479932 19.03527336 -34 20 C-33.02824258 17.56119206 -32.38380292 16.24451757 -30.13989258 14.81494141 C-29.39892334 14.49702637 -28.6579541 14.17911133 -27.89453125 13.8515625 C-26.66573242 13.30242187 -26.66573242 13.30242187 -25.41210938 12.7421875 C-24.55423828 12.37351563 -23.69636719 12.00484375 -22.8125 11.625 C-16.95600348 9.10414062 -12.06567688 6.63209233 -7.3815918 2.24755859 C-4.75285117 -0.12615842 -3.74908402 0 0 0 Z " fill="#0C0B0D" transform="translate(92,162)"/>
<path d="M0 0 C0.33 0 0.66 0 1 0 C1.11275269 0.87567627 1.11275269 0.87567627 1.2277832 1.76904297 C1.58082396 4.47221973 1.94660075 7.17353489 2.3125 9.875 C2.43044922 10.7928125 2.54839844 11.710625 2.66992188 12.65625 C3.54047775 18.99568254 4.98248849 24.92848683 7 31 C7.74781738 31.06711182 8.49563477 31.13422363 9.26611328 31.20336914 C10.1270459 31.28063232 10.98797852 31.35789551 11.875 31.4375 C12.77992187 31.51871094 13.68484375 31.59992188 14.6171875 31.68359375 C17 32 17 32 19 33 C18.88590407 34.45922693 18.75834456 35.91740598 18.625 37.375 C18.55539063 38.18710938 18.48578125 38.99921875 18.4140625 39.8359375 C18 42 18 42 16 44 C16.33 41.03 16.66 38.06 17 35 C14.75390625 35.03255208 12.5078125 35.06510417 10.26171875 35.09765625 C8 35 8 35 5 34 C2.57114266 28.3326662 1.3906156 22.47172447 0.25 16.4375 C0.11013672 15.72980469 -0.02972656 15.02210938 -0.17382812 14.29296875 C-1.06460596 9.25610978 -0.84021362 5.04695883 0 0 Z " fill="#262626" transform="translate(85,169)"/>
<path d="M0 0 C4.40958108 0.66607439 8.26572186 2.26624729 12.3125 4.0625 C13.28026367 4.48499023 13.28026367 4.48499023 14.26757812 4.91601562 C15.84698358 5.6062743 17.42376493 6.30253198 19 7 C19 7.33 19 7.66 19 8 C12.4 8 5.8 8 -1 8 C-1 2 -1 2 0 0 Z " fill="#F8F8F8" transform="translate(41,248)"/>
<path d="M0 0 C0.66 0.66 1.32 1.32 2 2 C1.61444311 9.69370059 -1.64543156 17.41409955 -4.125 24.625 C-4.49753906 25.72457031 -4.87007812 26.82414062 -5.25390625 27.95703125 C-6.16376565 30.63995 -7.07921081 33.32081699 -8 36 C-9.66811958 33.48254071 -10.06929598 32.38436502 -9.52441406 29.36206055 C-9.19151367 28.38019775 -8.85861328 27.39833496 -8.515625 26.38671875 C-8.15726563 25.30326172 -7.79890625 24.21980469 -7.4296875 23.10351562 C-7.04039062 21.97623047 -6.65109375 20.84894531 -6.25 19.6875 C-5.50447249 17.462486 -4.75966138 15.23723182 -4.015625 13.01171875 C-3.66306641 11.97063965 -3.31050781 10.92956055 -2.94726562 9.85693359 C-1.86498052 6.59278404 -0.90021158 3.3183331 0 0 Z " fill="#2E2E2E" transform="translate(137,171)"/>
<path d="M0 0 C0.66 0 1.32 0 2 0 C2.02898097 4.10415189 2.0467922 8.20827753 2.0625 12.3125 C2.07087891 13.47974609 2.07925781 14.64699219 2.08789062 15.84960938 C2.09111328 16.96787109 2.09433594 18.08613281 2.09765625 19.23828125 C2.10289307 20.26993408 2.10812988 21.30158691 2.11352539 22.36450195 C2 25 2 25 1 28 C-0.65 28.33 -2.3 28.66 -4 29 C-3.34 28.67 -2.68 28.34 -2 28 C-1.52832732 25.1836191 -1.52832732 25.1836191 -1.3671875 21.77734375 C-1.28339844 20.51728516 -1.19960937 19.25722656 -1.11328125 17.95898438 C-1.03364862 16.61850178 -0.95422426 15.27800679 -0.875 13.9375 C-0.78863643 12.5930424 -0.70140805 11.24864005 -0.61328125 9.90429688 C-0.40031445 6.60331151 -0.19629661 3.30201189 0 0 Z " fill="#242424" transform="translate(159,175)"/>
<path d="M0 0 C0.33 0 0.66 0 1 0 C0.93039063 1.16015625 0.93039063 1.16015625 0.859375 2.34375 C0.64334085 8.57787832 0.77196792 12.98322348 4.22265625 18.28125 C5.24061011 20.53200226 4.7954721 21.71864606 4 24 C0.47086025 18.98627748 -1.61471495 15.16456078 -2 9 C-3.65 9 -5.3 9 -7 9 C-7.33 8.34 -7.66 7.68 -8 7 C-4.535 6.505 -4.535 6.505 -1 6 C-0.67 4.02 -0.34 2.04 0 0 Z " fill="#161617" transform="translate(99,154)"/>
<path d="M0 0 C0.66 0.33 1.32 0.66 2 1 C1.505 1.680625 1.01 2.36125 0.5 3.0625 C-1.63648203 7.24644398 -1.3590198 10.75612627 -0.625 15.34375 C-0.27378257 17.5973952 0.02732235 19.7185838 0 22 C-1.625 24.0625 -1.625 24.0625 -4 25 C-6.75 25.1875 -6.75 25.1875 -9 25 C-9.33 24.01 -9.66 23.02 -10 22 C-7.36 22 -4.72 22 -2 22 C-2.33 21.236875 -2.66 20.47375 -3 19.6875 C-4.34127953 14.74153172 -4.66542101 10.09124446 -4 5 C-2 1.8125 -2 1.8125 0 0 Z " fill="#191919" transform="translate(146,104)"/>
<path d="M0 0 C-1.42609159 3.36202939 -3.14348515 5.23675579 -5.9375 7.5625 C-8.39732014 9.6269098 -10.76368922 11.69358543 -13 14 C-12.58539598 8.71379876 -11.71677318 5.82609003 -8 2 C-4.77208445 -0.1519437 -3.71599191 -0.20086443 0 0 Z " fill="#D0C1EC" transform="translate(106,67)"/>
<path d="M0 0 C-0.33 0.99 -0.66 1.98 -1 3 C-4.30748777 4.41812984 -7.67656363 5.49565085 -11.09375 6.62109375 C-14.14532701 7.67297495 -14.14532701 7.67297495 -14.90625 10.16015625 C-14.9371875 10.76730469 -14.968125 11.37445313 -15 12 C-15.66 12 -16.32 12 -17 12 C-17.3125 9.75 -17.3125 9.75 -17 7 C-13.70414392 3.37455831 -4.88689586 -2.44344793 0 0 Z " fill="#1B1B1B" transform="translate(208,244)"/>
<path d="M0 0 C0 4.62540578 -2.98155739 6.53380704 -6.125 9.6875 C-6.69476563 10.29400391 -7.26453125 10.90050781 -7.8515625 11.52539062 C-12.18846269 15.90664548 -12.18846269 15.90664548 -16.4296875 16.39453125 C-17.27789062 16.26433594 -18.12609375 16.13414062 -19 16 C-19 15.34 -19 14.68 -19 14 C-18.12859375 13.78472656 -17.2571875 13.56945312 -16.359375 13.34765625 C-12.42388525 11.7688842 -10.06815892 9.48595168 -7.25 6.4375 C-2.18206522 1.09103261 -2.18206522 1.09103261 0 0 Z " fill="#0A0A0A" transform="translate(125,240)"/>
<path d="M0 0 C0.33 0 0.66 0 1 0 C0.81895467 7.73557339 -1.14832768 13.3199779 -5 20 C-5.99 20 -6.98 20 -8 20 C-7.401875 18.906875 -6.80375 17.81375 -6.1875 16.6875 C-3.99192391 12.34306221 -2.77372058 7.9357255 -1.61328125 3.22265625 C-1 1 -1 1 0 0 Z " fill="#18171A" transform="translate(160,127)"/>
<path d="M0 0 C-0.75 2.375 -0.75 2.375 -2 5 C-2.680625 5.309375 -3.36125 5.61875 -4.0625 5.9375 C-4.701875 6.288125 -5.34125 6.63875 -6 7 C-6.81584568 10.05908413 -6.81584568 10.05908413 -7 13 C-9 10 -9 10 -9 8 C-9.66 7.67 -10.32 7.34 -11 7 C-5.34042553 0 -5.34042553 0 0 0 Z " fill="#090909" transform="translate(92,162)"/>
<path d="M0 0 C0.99 0.33 1.98 0.66 3 1 C1.90912656 3.81833877 0.80325527 6.62902949 -0.3125 9.4375 C-0.62123047 10.23994141 -0.92996094 11.04238281 -1.24804688 11.86914062 C-1.55419922 12.63291016 -1.86035156 13.39667969 -2.17578125 14.18359375 C-2.45333252 14.89056396 -2.73088379 15.59753418 -3.0168457 16.32592773 C-4 18 -4 18 -7 19 C-5.17778624 12.38757278 -2.94776396 6.19479329 0 0 Z " fill="#1B1B1B" transform="translate(114,235)"/>
<path d="M0 0 C4.62 0 9.24 0 14 0 C11.23776722 2.76223278 8.79293383 2.57856291 5 3 C5.33 4.32 5.66 5.64 6 7 C2.58841744 5.86280581 1.88145399 4.95657056 0 2 C0 1.34 0 0.68 0 0 Z " fill="#141414" transform="translate(143,202)"/>
<path d="M0 0 C1.45823212 -0.0270043 2.91660675 -0.04639787 4.375 -0.0625 C5.18710938 -0.07410156 5.99921875 -0.08570313 6.8359375 -0.09765625 C9 0 9 0 11 1 C10.88590407 2.45922693 10.75834456 3.91740598 10.625 5.375 C10.55539063 6.18710938 10.48578125 6.99921875 10.4140625 7.8359375 C10 10 10 10 8 12 C8.33 9.03 8.66 6.06 9 3 C6.03 3 3.06 3 0 3 C0 2.01 0 1.02 0 0 Z " fill="#474747" transform="translate(93,201)"/>
<path d="M0 0 C1.32 0 2.64 0 4 0 C4.79953138 3.28696233 5.09658936 4.71023192 4 8 C3.01 8.33 2.02 8.66 1 9 C0.34 8.34 -0.32 7.68 -1 7 C-0.625 3.375 -0.625 3.375 0 0 Z " fill="#101010" transform="translate(122,108)"/>
<path d="M0 0 C1.35814777 4.0744433 -0.05254238 6.81468116 -1.4375 10.6875 C-1.68048828 11.38939453 -1.92347656 12.09128906 -2.17382812 12.81445312 C-2.7744944 14.54578532 -3.38619719 16.27328137 -4 18 C-5.109375 16.3828125 -5.109375 16.3828125 -6 14 C-5.390625 11.0546875 -5.390625 11.0546875 -4.25 7.875 C-3.88390625 6.82054687 -3.5178125 5.76609375 -3.140625 4.6796875 C-2 2 -2 2 0 0 Z " fill="#282828" transform="translate(133,189)"/>
<path d="M0 0 C0.33 0 0.66 0 1 0 C1 1.98 1 3.96 1 6 C-5.435 7.98 -5.435 7.98 -12 10 C-11 7 -11 7 -9.2578125 5.9375 C-8.55398437 5.628125 -7.85015625 5.31875 -7.125 5 C-4.14750188 3.68155065 -2.23900951 2.35967469 0 0 Z " fill="#C2B4DC" transform="translate(97,154)"/>
<path d="M0 0 C0.66 1.65 1.32 3.3 2 5 C1.4225 4.649375 0.845 4.29875 0.25 3.9375 C-2.4388193 2.81715862 -3.31641572 2.9936559 -6 4 C-7.3479743 4.63654342 -8.68596724 5.29605388 -10 6 C-7.83322503 -0.036016 -6.28508493 -0.13663228 0 0 Z " fill="#1E1E1E" transform="translate(127,99)"/>
<path d="M0 0 C0.66 0.33 1.32 0.66 2 1 C1.505 1.639375 1.01 2.27875 0.5 2.9375 C-1.50950277 7.04023483 -1.26385672 10.51443582 -1 15 C-1.99 15.33 -2.98 15.66 -4 16 C-4.63019694 6.00437637 -4.63019694 6.00437637 -2 1.8125 C-1.34 1.214375 -0.68 0.61625 0 0 Z " fill="#2C2C2C" transform="translate(146,104)"/>
<path d="M0 0 C0.66 0.33 1.32 0.66 2 1 C-3.51886792 7.99056604 -3.51886792 7.99056604 -8.125 9.625 C-8.84945312 9.88539063 -9.57390625 10.14578125 -10.3203125 10.4140625 C-11.15175781 10.70410156 -11.15175781 10.70410156 -12 11 C-12 10.01 -12 9.02 -12 8 C-11.20335938 7.63648438 -11.20335938 7.63648438 -10.390625 7.265625 C-6.26007376 5.30587441 -3.02889453 3.53371028 0 0 Z " fill="#121113" transform="translate(84,164)"/>
<path d="M0 0 C0.99 0.33 1.98 0.66 3 1 C3 2.98 3 4.96 3 7 C1.68 7.33 0.36 7.66 -1 8 C-1.625 5.125 -1.625 5.125 -2 2 C-1.34 1.34 -0.68 0.68 0 0 Z " fill="#111111" transform="translate(152,109)"/>
<path d="M0 0 C0.66 0 1.32 0 2 0 C2.350625 1.134375 2.70125 2.26875 3.0625 3.4375 C3.79385681 5.39305564 3.79385681 5.39305564 5 7 C8.58863524 8.0615942 8.58863524 8.0615942 12 8 C12 8.33 12 8.66 12 9 C8.7 9 5.4 9 2 9 C0.11656068 5.23312136 -0.22057835 3.97041037 0 0 Z " fill="#1E1E1E" transform="translate(88,194)"/>
<path d="M0 0 C1 3 1 3 0.00390625 5.04296875 C-0.47175781 5.75066406 -0.94742188 6.45835937 -1.4375 7.1875 C-1.91058594 7.90292969 -2.38367188 8.61835938 -2.87109375 9.35546875 C-3.24363281 9.89816406 -3.61617187 10.44085938 -4 11 C-4.66 10.67 -5.32 10.34 -6 10 C-2.62068966 1.31034483 -2.62068966 1.31034483 0 0 Z " fill="#2E2E2E" transform="translate(149,208)"/>
<path d="M0 0 C0.66 0.33 1.32 0.66 2 1 C0.61918777 5.1424367 -1.59825558 6.32203099 -5 9 C-5 5 -5 5 -2.5 2.25 C-1.675 1.5075 -0.85 0.765 0 0 Z " fill="#232226" transform="translate(57,180)"/>
<path d="M0 0 C3.875 1.875 3.875 1.875 5 3 C5.04063832 4.66617115 5.042721 6.33388095 5 8 C3.68 7.67 2.36 7.34 1 7 C1 6.01 1 5.02 1 4 C0.6937566 2.66018514 0.36548445 1.32488113 0 0 Z " fill="#D2D2D2" transform="translate(141,141)"/>
<path d="M0 0 C1.65 0.33 3.3 0.66 5 1 C5.33 2.32 5.66 3.64 6 5 C5.05125 4.835 4.1025 4.67 3.125 4.5 C0.19831099 3.9473365 0.19831099 3.9473365 -2 4 C-1.34 2.68 -0.68 1.36 0 0 Z " fill="#151515" transform="translate(151,100)"/>
<path d="M0 0 C0.66 0 1.32 0 2 0 C0.125 3.875 0.125 3.875 -1 5 C-2.99958364 5.04080783 -5.00045254 5.04254356 -7 5 C-7 4.34 -7 3.68 -7 3 C-5.5459375 2.5359375 -5.5459375 2.5359375 -4.0625 2.0625 C-1.15934208 1.30476658 -1.15934208 1.30476658 0 0 Z " fill="#121212" transform="translate(113,251)"/>
<path d="M0 0 C0.99 0.33 1.98 0.66 3 1 C2.01 4.3 1.02 7.6 0 11 C-2 7 -2 7 -1.125 3.25 C-0.75375 2.1775 -0.3825 1.105 0 0 Z " fill="#313033" transform="translate(29,229)"/>
<path d="M0 0 C0.93065133 2.60582371 1.14917407 3.64198224 0.0625 6.25 C-0.4634375 7.11625 -0.4634375 7.11625 -1 8 C-1.66 8 -2.32 8 -3 8 C-3.1875 5.125 -3.1875 5.125 -3 2 C-2.01 1.34 -1.02 0.68 0 0 Z " fill="#0C0C0C" transform="translate(118,227)"/>
<path d="M0 0 C0.66 0 1.32 0 2 0 C1.44271087 3.34373475 0.64826111 6.03312999 -1 9 C-1.66 9 -2.32 9 -3 9 C-2.01 6.03 -1.02 3.06 0 0 Z " fill="#141316" transform="translate(33,220)"/>
<path d="M0 0 C0.33 0 0.66 0 1 0 C0.67 2.97 0.34 5.94 0 9 C-0.99 9.33 -1.98 9.66 -3 10 C-2.01 6.7 -1.02 3.4 0 0 Z " fill="#222222" transform="translate(110,244)"/>
<path d="M0 0 C0.99 0 1.98 0 3 0 C3.99 1.98 4.98 3.96 6 6 C4.125 5.8125 4.125 5.8125 2 5 C0.75 2.4375 0.75 2.4375 0 0 Z " fill="#292929" transform="translate(116,196)"/>
<path d="M0 0 C0.66 0.66 1.32 1.32 2 2 C1.625 5.125 1.625 5.125 1 8 C0.01 8.33 -0.98 8.66 -2 9 C-1.34 6.03 -0.68 3.06 0 0 Z " fill="#3A3A3A" transform="translate(134,181)"/>
<path d="M0 0 C1.98 0.99 1.98 0.99 4 2 C4 3.98 4 5.96 4 8 C3.34 8 2.68 8 2 8 C1.34 5.36 0.68 2.72 0 0 Z " fill="#313131" transform="translate(144,141)"/>
</svg>
