<?xml version="1.0" encoding="UTF-8"?>
<svg version="1.1" xmlns="http://www.w3.org/2000/svg" width="256" height="256">
<path d="M0 0 C84.48 0 168.96 0 256 0 C256 84.48 256 168.96 256 256 C171.52 256 87.04 256 0 256 C0 171.52 0 87.04 0 0 Z " fill="#A4BBFE" transform="translate(0,0)"/>
<path d="M0 0 C1.5625 1.125 1.5625 1.125 2.5625 3.125 C2.602492 5.12460012 2.60596799 7.12547242 2.5625 9.125 C3.56410156 8.83625 4.56570312 8.5475 5.59765625 8.25 C6.93997197 7.87452707 8.28242749 7.49955369 9.625 7.125 C10.28177734 6.93421875 10.93855469 6.7434375 11.61523438 6.546875 C17.05038897 5.04752201 22.19406971 3.94078486 27.4375 6.5625 C29.5625 8.125 29.5625 8.125 30.5625 9.125 C31.05478387 12.64131336 31.23347511 15.11364684 29.22265625 18.14453125 C27.72565728 19.87400536 26.19654169 21.52500084 24.5625 23.125 C25.243125 23.599375 25.92375 24.07375 26.625 24.5625 C28.72033529 27.3337499 28.88482905 27.83020288 28.6875 31.125 C27.88045386 36.2816001 25.55805212 40.51625922 23.03515625 45.03515625 C18.8385368 53.84026496 19.21623946 62.74055452 19.171875 72.30664062 C18.9502549 82.82743924 16.83303246 91.67735539 9.4453125 99.46484375 C6.68176874 101.90157839 3.86720561 103.50636868 0.5625 105.125 C1.38492188 105.41632813 2.20734375 105.70765625 3.0546875 106.0078125 C10.44172607 108.72037401 16.96901898 111.85060541 23.5625 116.125 C24.91596738 116.95946861 26.27010126 117.79285746 27.625 118.625 C28.93979879 119.45470166 30.2522288 120.28816664 31.5625 121.125 C32.305 121.59808594 33.0475 122.07117188 33.8125 122.55859375 C56.83255082 137.52940383 68.66365525 163.01512425 74.53808594 189.19262695 C75.66948756 194.57521222 76.5625 199.58468395 76.5625 205.125 C13.2025 205.125 -50.1575 205.125 -115.4375 205.125 C-115.4375 198.56515443 -115.01323525 194.00876324 -113.4375 187.875 C-113.21674805 187.01237549 -112.99599609 186.14975098 -112.76855469 185.26098633 C-106.46836967 161.73759592 -95.08466584 136.34043988 -73.4375 123.125 C-72.11045969 122.39149853 -70.78073913 121.66283707 -69.44921875 120.9375 C-61.0159345 116.29160777 -54.93208753 112.6367105 -49.78515625 104.27734375 C-48.4375 102.125 -48.4375 102.125 -46.4375 101.125 C-46.95398735 93.33691437 -47.88626534 85.77574958 -49.4375 78.125 C-50.4275 78.785 -51.4175 79.445 -52.4375 80.125 C-55.25 80.3125 -55.25 80.3125 -58.4375 79.125 C-64.20061498 72.82341216 -69.57498562 62.99253286 -70 54.375 C-69.69533022 49.98463028 -68.27279453 46.49092227 -65.4375 43.125 C-64.16515047 42.03944221 -62.87169026 40.97833134 -61.5625 39.9375 C-58.05389641 37.05681993 -56.34494456 34.36195017 -54.4375 30.25 C-47.87076955 16.11034654 -35.43986813 8.10272508 -21.4375 2.125 C-14.56791025 -0.31466739 -7.13571903 -2.56154016 0 0 Z " fill="#020203" transform="translate(142.4375,50.875)"/>
<path d="M0 0 C0.66 0 1.32 0 2 0 C2.29390625 1.58167969 2.29390625 1.58167969 2.59375 3.1953125 C3.8665928 7.62133404 6.72910859 9.51297484 10.5 11.875 C11.76896483 12.72288732 13.03456763 13.57582645 14.296875 14.43359375 C14.92271484 14.85753418 15.54855469 15.28147461 16.19335938 15.71826172 C21.38774169 19.40346539 26.4590288 23.6885432 30 29 C33.12106825 28.31144269 33.12106825 28.31144269 34.359375 25.84765625 C34.81828125 24.92855469 35.2771875 24.00945312 35.75 23.0625 C43.2463916 8.72401532 43.2463916 8.72401532 49 4 C55.42548505 4 60.4590337 6.97866827 66 10 C66 10.66 66 11.32 66 12 C65.16855469 12.18175781 64.33710938 12.36351562 63.48046875 12.55078125 C62.39378906 12.80214844 61.30710937 13.05351562 60.1875 13.3125 C59.10855469 13.55613281 58.02960938 13.79976562 56.91796875 14.05078125 C53.26016412 15.2406695 51.8043816 16.45413084 50.05078125 19.82421875 C49.80714844 20.43910156 49.56351562 21.05398437 49.3125 21.6875 C48.879375 22.780625 48.44625 23.87375 48 25 C47.04287109 25.07347656 47.04287109 25.07347656 46.06640625 25.1484375 C45.24011719 25.22320312 44.41382813 25.29796875 43.5625 25.375 C42.32693359 25.47941406 42.32693359 25.47941406 41.06640625 25.5859375 C40.38449219 25.72257812 39.70257813 25.85921875 39 26 C37.53349044 28.93301912 37.83461526 31.56154861 37.79467773 34.83642578 C37.78464501 35.55034422 37.77461229 36.26426266 37.76427555 36.99981499 C37.73284764 39.31494762 37.7081018 41.63009734 37.68359375 43.9453125 C37.66519426 45.37297123 37.64635779 46.80062441 37.6270752 48.22827148 C37.55858134 53.52711511 37.49855815 58.82606548 37.4375 64.125 C37.293125 75.96375 37.14875 87.8025 37 100 C3.01 100 -30.98 100 -66 100 C-62.0997757 74.64854207 -55.39563682 51.52177021 -38 32 C-37.26265625 31.15695313 -36.5253125 30.31390625 -35.765625 29.4453125 C-29.41062809 22.61265243 -22.35054721 18.01813965 -14 14 C-13.34 14 -12.68 14 -12 14 C-12.74267288 18.08470085 -13.84512718 22.0142804 -15 26 C-13.96359375 25.55527344 -12.9271875 25.11054688 -11.859375 24.65234375 C-10.48983065 24.08013686 -9.12002512 23.50855483 -7.75 22.9375 C-7.06808594 22.64294922 -6.38617188 22.34839844 -5.68359375 22.04492188 C-1.98465172 20.51865939 0.20062091 19.70075329 4 21 C6.06721833 22.1951106 8.01847453 23.51241257 10 24.84375 C12.0117197 26.00677545 13.731127 26.55432852 16 27 C16 26.34 16 25.68 16 25 C15.38511719 24.81824219 14.77023438 24.63648438 14.13671875 24.44921875 C13.32847656 24.19785156 12.52023438 23.94648438 11.6875 23.6875 C10.88699219 23.44386719 10.08648437 23.20023438 9.26171875 22.94921875 C7 22 7 22 5.453125 20.3828125 C4.97359375 19.92648438 4.4940625 19.47015625 4 19 C-0.6347334 19.22070159 -3.93824772 19.74347096 -8 22 C-8.99 22 -9.98 22 -11 22 C-10.48998124 16.8841195 -8.66238664 13.09388139 -6.0625 8.75 C-5.70220703 8.12609375 -5.34191406 7.5021875 -4.97070312 6.859375 C-3.47903824 4.31008399 -2.09669771 2.09669771 0 0 Z " fill="#FDFDFD" transform="translate(95,156)"/>
<path d="M0 0 C0.63808594 0.33966797 1.27617187 0.67933594 1.93359375 1.02929688 C20.49741609 11.18435306 31.94087275 32.95256509 38.40625 52.41796875 C44.5 73.24392361 44.5 73.24392361 44.5 82.3125 C17.11 82.3125 -10.28 82.3125 -38.5 82.3125 C-38.520625 70.453125 -38.54125 58.59375 -38.5625 46.375 C-38.571604 42.62519775 -38.58070801 38.87539551 -38.59008789 35.01196289 C-38.59460449 30.44616699 -38.59460449 30.44616699 -38.59544373 28.31126404 C-38.59698308 26.8146383 -38.60050784 25.31801383 -38.60557556 23.82139587 C-38.61285459 21.55937533 -38.61390737 19.29743082 -38.61352539 17.03540039 C-38.615746 15.75854874 -38.61796661 14.48169708 -38.62025452 13.16615295 C-38.5 10.3125 -38.5 10.3125 -37.5 9.3125 C-35.81391034 9.24044489 -34.12499341 9.22863932 -32.4375 9.25 C-31.51839844 9.25902344 -30.59929687 9.26804688 -29.65234375 9.27734375 C-28.94207031 9.28894531 -28.23179687 9.30054688 -27.5 9.3125 C-27.34144531 8.61382812 -27.18289062 7.91515625 -27.01953125 7.1953125 C-25.10304672 -0.280036 -25.10304672 -0.280036 -22.1875 -2.25 C-21.300625 -2.394375 -20.41375 -2.53875 -19.5 -2.6875 C-18.530625 -2.89375 -17.56125 -3.1 -16.5625 -3.3125 C-9.91905598 -4.12598294 -5.84046047 -3.28599645 0 0 Z " fill="#FCFCFC" transform="translate(172.5,173.6875)"/>
<path d="M0 0 C4.44835937 2.22417969 6.61043594 4.64757974 9 9 C10.47251945 14.64465791 10.86340071 21.40979787 9 27 C8.360625 26.67 7.72125 26.34 7.0625 26 C2.98763159 24.66943072 -0.75190425 24.83340801 -5 25 C-5 25.99 -5 26.98 -5 28 C-4.39671875 27.98839844 -3.7934375 27.97679688 -3.171875 27.96484375 C-1.97304687 27.95130859 -1.97304687 27.95130859 -0.75 27.9375 C0.03890625 27.92589844 0.8278125 27.91429688 1.640625 27.90234375 C3.91397859 27.99643951 5.81129768 28.41648066 8 29 C7.9182358 33.29239483 7.80547284 37.58345974 7.6875 41.875 C7.66494141 43.07898438 7.64238281 44.28296875 7.61914062 45.5234375 C7.2515179 57.82208873 5.13154856 66.7087899 -3.5703125 75.60546875 C-8.16108361 79.28014428 -12.89571679 79.47978212 -18.5625 79.5625 C-19.28284424 79.57732422 -20.00318848 79.59214844 -20.74536133 79.60742188 C-26.19785483 79.50260223 -29.4625259 77.99914516 -34 75 C-34 75.99 -34 76.98 -34 78 C-32.948125 78.37125 -32.948125 78.37125 -31.875 78.75 C-29 80 -29 80 -26.1875 81.9375 C-22.52941492 84.30449623 -19.10920304 85.58303343 -15 87 C-15.56627435 91.65406731 -17.62437662 95.17947166 -20 99.125 C-22.8636866 103.88410997 -22.8636866 103.88410997 -25 109 C-25.66 109 -26.32 109 -27 109 C-28.2199707 107.47412109 -28.2199707 107.47412109 -29.61328125 105.3984375 C-32.8989801 100.87049903 -36.6541482 97.8422174 -41.1875 94.625 C-41.89841797 94.10550781 -42.60933594 93.58601563 -43.34179688 93.05078125 C-46.19341067 90.97444158 -49.06457115 88.95695256 -52 87 C-52.70776367 84.23779297 -52.70776367 84.23779297 -53.16796875 80.7421875 C-53.33876953 79.47632813 -53.50957031 78.21046875 -53.68554688 76.90625 C-53.80917603 75.91238281 -53.80917603 75.91238281 -53.93530273 74.8984375 C-54.18415741 72.90181838 -54.4542442 70.90788276 -54.72460938 68.9140625 C-55.55669745 62.56577662 -56.23624323 56.40300611 -56 50 C-59.27773504 50.75150023 -59.27773504 50.75150023 -61 54 C-63.9375 54.4375 -63.9375 54.4375 -67 54 C-70.8241871 50.58554723 -71.81188916 45.45695792 -72.19140625 40.5 C-72.29308712 35.944697 -72.28986502 32.07087115 -70 28 C-68 26 -68 26 -65.125 25.9375 C-61.23039388 27.26166608 -60.51158152 28.65065927 -58.74609375 32.2109375 C-57.95024819 34.11930015 -57.32728939 35.95444131 -57 38 C-56.835 37.29875 -56.67 36.5975 -56.5 35.875 C-54.59871902 32.23087812 -52.20362096 30.7871904 -48.87109375 28.48828125 C-46.76666415 27.03317548 -46.76666415 27.03317548 -45.625 24.1875 C-44 22 -44 22 -41.88671875 21.609375 C-40.14026236 21.4927679 -38.39271138 21.39171257 -36.64453125 21.3046875 C-31.71355741 20.73656939 -27.4875888 18.4875888 -24 15 C-22.15234375 14.54296875 -22.15234375 14.54296875 -19.9375 14.1875 C-12.52605965 12.65739619 -6.23151796 9.43190729 -2 3 C-1.34 2.01 -0.68 1.02 0 0 Z " fill="#F8F8F8" transform="translate(152,75)"/>
<path d="M0 0 C0.66 0 1.32 0 2 0 C2.1959375 1.05445313 2.391875 2.10890625 2.59375 3.1953125 C3.8665928 7.62133404 6.72910859 9.51297484 10.5 11.875 C11.76896483 12.72288732 13.03456763 13.57582645 14.296875 14.43359375 C14.92271484 14.85753418 15.54855469 15.28147461 16.19335938 15.71826172 C21.38774169 19.40346539 26.4590288 23.6885432 30 29 C33.12106825 28.31144269 33.12106825 28.31144269 34.359375 25.84765625 C34.81828125 24.92855469 35.2771875 24.00945312 35.75 23.0625 C43.2463916 8.72401532 43.2463916 8.72401532 49 4 C55.42548505 4 60.4590337 6.97866827 66 10 C66 10.66 66 11.32 66 12 C65.16855469 12.18175781 64.33710938 12.36351562 63.48046875 12.55078125 C62.39378906 12.80214844 61.30710937 13.05351562 60.1875 13.3125 C59.10855469 13.55613281 58.02960938 13.79976562 56.91796875 14.05078125 C53.26016412 15.2406695 51.8043816 16.45413084 50.05078125 19.82421875 C49.80714844 20.43910156 49.56351563 21.05398437 49.3125 21.6875 C48.879375 22.780625 48.44625 23.87375 48 25 C47.04287109 25.07347656 47.04287109 25.07347656 46.06640625 25.1484375 C45.24011719 25.22320312 44.41382813 25.29796875 43.5625 25.375 C42.73878906 25.44460937 41.91507813 25.51421875 41.06640625 25.5859375 C40.38449219 25.72257812 39.70257813 25.85921875 39 26 C37.53349044 28.93301912 37.83461526 31.56154861 37.79467773 34.83642578 C37.78477814 35.53897491 37.77487854 36.24152405 37.76467896 36.96536255 C37.7330432 39.29197803 37.70829841 41.61861394 37.68359375 43.9453125 C37.66302601 45.55671729 37.64202958 47.16811666 37.62062073 48.7795105 C37.56538146 53.02422706 37.51598039 57.26899247 37.46777344 61.51379395 C37.41757194 65.84387568 37.36187883 70.17388635 37.30664062 74.50390625 C37.19903635 83.00254576 37.0981038 91.50124551 37 100 C32.38 100 27.76 100 23 100 C22.67 76.9 22.34 53.8 22 30 C20.02 29.01 18.04 28.02 16 27 C16 26.34 16 25.68 16 25 C15.38511719 24.81824219 14.77023438 24.63648438 14.13671875 24.44921875 C13.32847656 24.19785156 12.52023438 23.94648438 11.6875 23.6875 C10.88699219 23.44386719 10.08648437 23.20023438 9.26171875 22.94921875 C7 22 7 22 5.453125 20.3828125 C4.97359375 19.92648438 4.4940625 19.47015625 4 19 C-0.6347334 19.22070159 -3.93824772 19.74347096 -8 22 C-8.99 22 -9.98 22 -11 22 C-10.48998124 16.8841195 -8.66238664 13.09388139 -6.0625 8.75 C-5.52206055 7.81414062 -5.52206055 7.81414062 -4.97070312 6.859375 C-3.47903824 4.31008399 -2.09669771 2.09669771 0 0 Z " fill="#3B3B3B" transform="translate(95,156)"/>
<path d="M0 0 C0.66 0.66 1.32 1.32 2 2 C1.80184309 3.57654509 1.58733282 5.15205402 1.31103516 6.71679688 C0.9341209 9.48359604 0.87392023 12.19244842 0.82421875 14.984375 C0.80037109 16.08523437 0.77652344 17.18609375 0.75195312 18.3203125 C0.7092815 20.59095992 0.67787082 22.86184932 0.65820312 25.1328125 C0.39448886 35.65685157 -1.72652024 44.5492486 -9.1171875 52.33984375 C-11.88073126 54.77657839 -14.69529439 56.38136868 -18 58 C-17.17757812 58.29132813 -16.35515625 58.58265625 -15.5078125 58.8828125 C-8.12077393 61.59537401 -1.59348102 64.72560541 5 69 C6.35346738 69.83446861 7.70760126 70.66785746 9.0625 71.5 C10.37729879 72.32970166 11.6897288 73.16316664 13 74 C14.11375 74.70962891 14.11375 74.70962891 15.25 75.43359375 C38.27005082 90.40440383 50.10115525 115.89012425 55.97558594 142.06762695 C58.24424585 152.8606603 58.24424585 152.8606603 58 158 C57.34 158 56.68 158 56 158 C55.84966309 157.29617187 55.69932617 156.59234375 55.54443359 155.8671875 C50.34222345 131.77108488 44.04214165 107.70111119 27 89 C26.175 88.0925 25.35 87.185 24.5 86.25 C17.95669278 80.3610235 9.9926588 73.22934867 0.8359375 72.87890625 C-2.15882021 73.10843148 -5.04729724 73.454486 -8 74 C-8.72960937 74.07863281 -9.45921875 74.15726562 -10.2109375 74.23828125 C-12.24355991 74.88705001 -12.24355991 74.88705001 -13.265625 77.28515625 C-13.59046875 78.20167969 -13.9153125 79.11820312 -14.25 80.0625 C-14.58515625 80.98160156 -14.9203125 81.90070313 -15.265625 82.84765625 C-15.50796875 83.55792969 -15.7503125 84.26820313 -16 85 C-20.95 85.495 -20.95 85.495 -26 86 C-26.33 109.76 -26.66 133.52 -27 158 C-27.66 158 -28.32 158 -29 158 C-29.04627819 148.51653985 -29.08184612 139.03311839 -29.10362434 129.54957008 C-29.11407518 125.14628749 -29.12825796 120.74308198 -29.15087891 116.33984375 C-29.17256112 112.09290176 -29.18455883 107.84603404 -29.18975449 103.59904099 C-29.19345858 101.97626958 -29.20069146 100.35350238 -29.21146011 98.73076248 C-29.2259138 96.46315883 -29.22798054 94.19586472 -29.22705078 91.92822266 C-29.231492 90.63582672 -29.23593323 89.34343079 -29.24050903 88.01187134 C-29 85 -29 85 -27 83 C-24.8359375 82.5859375 -24.8359375 82.5859375 -22.375 82.375 C-21.14910156 82.26285156 -21.14910156 82.26285156 -19.8984375 82.1484375 C-19.27195313 82.09945312 -18.64546875 82.05046875 -18 82 C-17.566875 80.906875 -17.13375 79.81375 -16.6875 78.6875 C-15.55540422 75.8303059 -14.47893278 73.8700721 -12 72 C-9.08203125 71.26953125 -9.08203125 71.26953125 -5.8125 70.8125 C-4.18248047 70.57466797 -4.18248047 70.57466797 -2.51953125 70.33203125 C-1.27236328 70.16767578 -1.27236328 70.16767578 0 70 C0 69.34 0 68.68 0 68 C-0.845625 67.731875 -1.69125 67.46375 -2.5625 67.1875 C-6 66 -6 66 -9.5625 64.3125 C-12.78843313 62.89200431 -12.78843313 62.89200431 -15.5625 62.8125 C-22.33444898 66.11165463 -25.92907379 75.10947439 -29.484375 81.36328125 C-30.58792365 83.2831146 -31.77167034 85.15750551 -33 87 C-33.8059864 84.68799055 -34.17023401 83.45815256 -33.30322266 81.12475586 C-32.9272998 80.49448486 -32.55137695 79.86421387 -32.1640625 79.21484375 C-31.75929687 78.51939453 -31.35453125 77.82394531 -30.9375 77.10742188 C-30.504375 76.39134766 -30.07125 75.67527344 -29.625 74.9375 C-28.78174672 73.51035771 -27.9405168 72.08201745 -27.1015625 70.65234375 C-26.72338379 70.02320068 -26.34520508 69.39405762 -25.95556641 68.74584961 C-24.85184805 66.85236084 -24.85184805 66.85236084 -24 64 C-24.66 63.9175 -25.32 63.835 -26 63.75 C-32.15056945 62.21235764 -38.02531885 58.88267797 -43 55 C-43.66015625 52.875 -43.66015625 52.875 -44 51 C-43.030625 51.66 -42.06125 52.32 -41.0625 53 C-34.41984244 56.27988617 -26.21163307 56.31986825 -19 55 C-12.19423459 52.16078498 -7.83264103 47.72752245 -5 41 C-2.84646746 34.04671228 -2.60908142 27.37326887 -2.4375 20.125 C-2.37775292 17.87749271 -2.31415243 15.63008346 -2.24609375 13.3828125 C-2.22216553 12.39684082 -2.1982373 11.41086914 -2.17358398 10.39501953 C-2 8 -2 8 -1 6 C-5.29 5.67 -9.58 5.34 -14 5 C-14.33 4.01 -14.66 3.02 -15 2 C-13.43966377 0.43966377 -11.91052864 0.79292441 -9.75 0.75 C-5.70209821 0.77582393 -3.27047003 1.4680232 0 4 C0 2.68 0 1.36 0 0 Z " fill="#151617" transform="translate(161,98)"/>
<path d="M0 0 C3.14340842 3.41674829 3.65504062 6.42928825 4 11 C3.67 11.33 3.34 11.66 3 12 C2.92851801 13.35243917 2.91600546 14.70834367 2.9375 16.0625 C2.958125 17.361875 2.97875 18.66125 3 20 C3.99 20 4.98 20 6 20 C5.98259766 18.19402344 5.98259766 18.19402344 5.96484375 16.3515625 C5.95546566 14.77604321 5.94636548 13.20052225 5.9375 11.625 C5.92912109 10.8309375 5.92074219 10.036875 5.91210938 9.21875 C5.88671875 3.2265625 5.88671875 3.2265625 7 1 C7.66 1 8.32 1 9 1 C12.03901852 6.82478551 12.3540919 11.48208608 12 18 C13.65 18.33 15.3 18.66 17 19 C18.52211919 31.83653846 18.52211919 31.83653846 14.9140625 36.96484375 C7.30888253 43.84518985 7.30888253 43.84518985 3 44 C0.74609375 42.671875 0.74609375 42.671875 -1.5625 40.75 C-2.32691406 40.12609375 -3.09132812 39.5021875 -3.87890625 38.859375 C-4.57886719 38.24578125 -5.27882812 37.6321875 -6 37 C-6.58007812 36.53851563 -7.16015625 36.07703125 -7.7578125 35.6015625 C-9.55685433 33.28204316 -9.36410109 31.52259994 -9.3125 28.625 C-9.30863281 27.68914062 -9.30476562 26.75328125 -9.30078125 25.7890625 C-8.98646823 22.87452354 -8.21206166 20.65591201 -7 18 C-5.35 18 -3.7 18 -2 18 C-1.95745644 16.00045254 -1.95919217 13.99958364 -2 12 C-2.33 11.67 -2.66 11.34 -3 11 C-3.50555836 6.57636432 -2.13503265 3.82526683 0 0 Z " fill="#0F0F0F" transform="translate(154,187)"/>
<path d="M0 0 C1.72046505 2.2939534 3.4094295 4.61414424 5 7 C5.804375 6.01 6.60875 5.02 7.4375 4 C8.283125 3.01 9.12875 2.02 10 1 C10.33 1 10.66 1 11 1 C11 22.45 11 43.9 11 66 C7.37 66 3.74 66 0 66 C0 44.22 0 22.44 0 0 Z " fill="#F8F8F8" transform="translate(121,190)"/>
<path d="M0 0 C0.99 0 1.98 0 3 0 C3.1043335 1.08941895 3.20866699 2.17883789 3.31616211 3.30126953 C3.71646037 7.36541317 4.17107907 11.42198193 4.6418457 15.47851562 C4.83757158 17.23051277 5.01878197 18.98419775 5.18481445 20.73925781 C5.76539982 30.72150634 5.76539982 30.72150634 10.01513672 39.37792969 C12.29025274 40.88142703 14.48582492 41.95837773 17 43 C22.63406297 47.14179765 27.91471831 51.28060563 32 57 C32 57.66 32 58.32 32 59 C32.66 59.33 33.32 59.66 34 60 C32.515 60.495 32.515 60.495 31 61 C30.505 60.154375 30.01 59.30875 29.5 58.4375 C23.81218541 49.96544051 14.23523769 44.45525688 5.875 38.9375 C4 37 4 37 3.6875 33.75 C3.790625 32.8425 3.89375 31.935 4 31 C0.16326608 34.53905629 -2.33166427 37.94519085 -4.75 42.5625 C-5.34296875 43.67753906 -5.9359375 44.79257813 -6.546875 45.94140625 C-7.69720162 48.36265826 -8.51437314 50.38656073 -9 53 C-8.33613281 52.71125 -7.67226562 52.4225 -6.98828125 52.125 C-6.10527344 51.75375 -5.22226563 51.3825 -4.3125 51 C-3.44238281 50.62875 -2.57226562 50.2575 -1.67578125 49.875 C1.10469796 48.965763 3.09807456 48.70148828 6 49 C7.69672386 50.29486821 9.3603279 51.63360658 11 53 C12.2344018 53.556794 13.48569592 54.07742007 14.75 54.5625 C16.35875 55.2740625 16.35875 55.2740625 18 56 C18.33 56.99 18.66 57.98 19 59 C10.77603583 56.63493841 10.77603583 56.63493841 7.25 53.75 C5.16488654 51.70782408 5.16488654 51.70782408 2.6796875 52.26171875 C-0.92587155 53.25508706 -4.26123147 54.6936262 -7.6953125 56.16015625 C-10 57 -10 57 -13 57 C-12.48898407 52.65636456 -11.70656894 49.01668054 -10 45 C-34.07006757 57.09612532 -48.33438189 76.56205053 -57.09765625 101.94921875 C-59.05089375 108.55302172 -60.51759352 115.27781725 -62 122 C-62.22945312 123.01964844 -62.45890625 124.03929687 -62.6953125 125.08984375 C-63.13691662 127.05840297 -63.56993895 129.02888684 -64 131 C-64.66 131 -65.32 131 -66 131 C-66.22263671 124.90532003 -65.51467554 119.64608002 -64 113.75 C-63.77924805 112.88737549 -63.55849609 112.02475098 -63.33105469 111.13598633 C-57.03086967 87.61259592 -45.64716584 62.21543988 -24 49 C-22.67295969 48.26649853 -21.34323913 47.53783707 -20.01171875 46.8125 C-11.5784345 42.16660777 -5.49458753 38.5117105 -0.34765625 30.15234375 C1 28 1 28 3 27 C2.48351265 19.21191437 1.55123466 11.65074958 0 4 C-0.99 4.66 -1.98 5.32 -3 6 C-5.1875 5.625 -5.1875 5.625 -7 5 C-6.21625 4.731875 -5.4325 4.46375 -4.625 4.1875 C-1.71885077 3.15185568 -1.71885077 3.15185568 0 0 Z " fill="#141518" transform="translate(93,125)"/>
<path d="M0 0 C0.66 0 1.32 0 2 0 C2.1959375 1.05445313 2.391875 2.10890625 2.59375 3.1953125 C3.8666461 7.62151938 6.72927616 9.51258288 10.5 11.875 C11.76888889 12.7243105 13.0344921 13.57854905 14.296875 14.4375 C14.92271484 14.86160156 15.54855469 15.28570312 16.19335938 15.72265625 C21.44244461 19.43390138 27.6097847 23.83576053 30 30 C30.125 32.75 30.125 32.75 30 35 C28 32 28 32 27 30 C25.03173396 29.01974835 25.03173396 29.01974835 22.6328125 28.16015625 C21.74722656 27.81919922 20.86164063 27.47824219 19.94921875 27.12695312 C18.07453594 26.4203818 16.19953832 25.71464516 14.32421875 25.00976562 C13.43605469 24.66751953 12.54789063 24.32527344 11.6328125 23.97265625 C10.81699707 23.66593994 10.00118164 23.35922363 9.16064453 23.04321289 C7 22 7 22 5.45654297 20.36499023 C4.97588379 19.91454346 4.49522461 19.46409668 4 19 C-0.6347334 19.22070159 -3.93824772 19.74347096 -8 22 C-8.99 22 -9.98 22 -11 22 C-10.48998124 16.8841195 -8.66238664 13.09388139 -6.0625 8.75 C-5.52206055 7.81414062 -5.52206055 7.81414062 -4.97070312 6.859375 C-3.47903824 4.31008399 -2.09669771 2.09669771 0 0 Z " fill="#F5F5F5" transform="translate(95,156)"/>
<path d="M0 0 C1.38026906 11.02511211 1.38026906 11.02511211 -2.00390625 15.8671875 C-4.24729667 18.06493774 -6.51001887 20.0880502 -9 22 C-10.66895527 21.00382427 -12.33521952 20.00313695 -14 19 C-14.67804688 18.60941406 -15.35609375 18.21882813 -16.0546875 17.81640625 C-18.19683986 16.34080345 -19.57477907 15.19492481 -21 13 C-21.30026289 8.87533612 -20.7797741 5.04958313 -20 1 C-18.79601562 1.01160156 -17.59203125 1.02320313 -16.3515625 1.03515625 C-14.77604321 1.04453434 -13.20052225 1.05363452 -11.625 1.0625 C-10.43390625 1.07506836 -10.43390625 1.07506836 -9.21875 1.08789062 C-6.00439301 1.10151078 -2.90623835 0 0 0 Z " fill="#FCFCFC" transform="translate(168,207)"/>
<path d="M0 0 C4.7916288 1.705495 9.2263677 3.87997112 13.6875 6.3125 C13.6875 6.9725 13.6875 7.6325 13.6875 8.3125 C12.85605469 8.49425781 12.02460938 8.67601562 11.16796875 8.86328125 C9.53794922 9.24033203 9.53794922 9.24033203 7.875 9.625 C6.25658203 9.99044922 6.25658203 9.99044922 4.60546875 10.36328125 C0.94766412 11.5531695 -0.5081184 12.76663084 -2.26171875 16.13671875 C-2.50535156 16.75160156 -2.74898437 17.36648437 -3 18 C-3.433125 19.093125 -3.86625 20.18625 -4.3125 21.3125 C-4.90417969 21.291875 -5.49585938 21.27125 -6.10546875 21.25 C-8.7147047 21.31810404 -10.82196099 21.50735087 -13.3125 22.3125 C-15.10963054 24.29395162 -16.23210731 26.21616861 -17.4375 28.59765625 C-17.870625 29.44650391 -17.870625 29.44650391 -18.3125 30.3125 C-18.6425 30.3125 -18.9725 30.3125 -19.3125 30.3125 C-18.49001415 19.59668433 -12.4221812 9.32823522 -5.015625 1.5546875 C-3.3125 0.3125 -3.3125 0.3125 0 0 Z " fill="#F6F6F6" transform="translate(147.3125,159.6875)"/>
<path d="M0 0 C1.98 0 3.96 0 6 0 C6 0.66 6 1.32 6 2 C4.35 2.33 2.7 2.66 1 3 C0.37625226 7.15831829 0.14276743 10.86511349 1 15 C3.91088281 18.37049589 7.20696577 20.69708636 11 23 C12.12588014 22.04270084 13.2506715 21.08412105 14.375 20.125 C15.31472656 19.32449219 15.31472656 19.32449219 16.2734375 18.5078125 C19.34759311 15.99050994 19.34759311 15.99050994 20.30859375 12.25 C20.39452722 10.0834349 20.47786091 7.91676512 20.55859375 5.75 C20.70425781 4.8425 20.84992188 3.935 21 3 C21.99 2.34 22.98 1.68 24 1 C25.52211919 13.83653846 25.52211919 13.83653846 21.9140625 18.96484375 C14.30888253 25.84518985 14.30888253 25.84518985 10 26 C7.74609375 24.671875 7.74609375 24.671875 5.4375 22.75 C4.67308594 22.12609375 3.90867188 21.5021875 3.12109375 20.859375 C2.42113281 20.24578125 1.72117188 19.6321875 1 19 C0.41992188 18.53851563 -0.16015625 18.07703125 -0.7578125 17.6015625 C-2.55685433 15.28204316 -2.36410109 13.52259994 -2.3125 10.625 C-2.30863281 9.68914062 -2.30476562 8.75328125 -2.30078125 7.7890625 C-1.98646823 4.87452354 -1.21206166 2.65591201 0 0 Z " fill="#2A2A2A" transform="translate(147,205)"/>
<path d="M0 0 C0.66 0 1.32 0 2 0 C1.28815797 3.93347763 0.22429585 7.67703403 -0.9375 11.5 C-3.79211375 21.4084057 -5.07931381 31.26873673 -5.75390625 41.5390625 C-6 44 -6 44 -7 47 C-7.99 47 -8.98 47 -10 47 C-9.55330992 31.00849524 -7.93966768 14.18727504 0 0 Z " fill="#212121" transform="translate(68,209)"/>
<path d="M0 0 C9.8687645 8.93494593 14.29527812 27.14204458 16 40 C16.11196073 42.67810075 16.04625299 45.31732686 16 48 C15.34 48 14.68 48 14 48 C13.79020508 46.96782349 13.79020508 46.96782349 13.57617188 45.91479492 C10.72819137 32.15680549 7.44588783 19.30880996 1.5390625 6.53515625 C0 3 0 3 0 0 Z " fill="#171717" transform="translate(176,208)"/>
<path d="M0 0 C0.99 0 1.98 0 3 0 C2.5625 1.75 2.125 3.5 1.6875 5.25 C1.41421875 6.34441406 1.1409375 7.43882812 0.859375 8.56640625 C0.30976706 10.76233979 -0.24209781 12.95771047 -0.796875 15.15234375 C-2.29308426 21.08374473 -3.70464379 27.0214329 -5 33 C-5.66 33 -6.32 33 -7 33 C-7.28519815 26.53801043 -6.27943166 21.04450242 -4.625 14.8125 C-4.40328125 13.93658203 -4.1815625 13.06066406 -3.953125 12.15820312 C-2.87688369 7.98301991 -1.75172425 3.95365799 0 0 Z " fill="#202328" transform="translate(34,223)"/>
<path d="M0 0 C0.66 0.33 1.32 0.66 2 1 C1.505 1.680625 1.01 2.36125 0.5 3.0625 C-1.63648203 7.24644398 -1.3590198 10.75612627 -0.625 15.34375 C-0.27378257 17.5973952 0.02732235 19.7185838 0 22 C-1.625 24.0625 -1.625 24.0625 -4 25 C-6.75 25.1875 -6.75 25.1875 -9 25 C-9.33 24.01 -9.66 23.02 -10 22 C-7.36 22 -4.72 22 -2 22 C-2.33 21.236875 -2.66 20.47375 -3 19.6875 C-4.34127953 14.74153172 -4.66542101 10.09124446 -4 5 C-2 1.8125 -2 1.8125 0 0 Z " fill="#191919" transform="translate(146,104)"/>
<path d="M0 0 C0.66 0.66 1.32 1.32 2 2 C1.625 5.625 1.625 5.625 1 9 C0.34 8.34 -0.32 7.68 -1 7 C-3.19291082 6.54337847 -5.40585889 6.179588 -7.625 5.875 C-8.81351563 5.70742187 -10.00203125 5.53984375 -11.2265625 5.3671875 C-12.14179688 5.24601562 -13.05703125 5.12484375 -14 5 C-14.33 4.01 -14.66 3.02 -15 2 C-13.43966377 0.43966377 -11.91052864 0.79292441 -9.75 0.75 C-5.70209821 0.77582393 -3.27047003 1.4680232 0 4 C0 2.68 0 1.36 0 0 Z " fill="#131315" transform="translate(161,98)"/>
<path d="M0 0 C1.75570312 0.04060547 1.75570312 0.04060547 3.546875 0.08203125 C4.43890625 0.11683594 5.3309375 0.15164062 6.25 0.1875 C4.375 4.0625 4.375 4.0625 3.25 5.1875 C0.89686445 5.26021741 -1.45833668 5.27120868 -3.8125 5.25 C-5.10285156 5.24097656 -6.39320312 5.23195313 -7.72265625 5.22265625 C-8.72167969 5.21105469 -9.72070312 5.19945313 -10.75 5.1875 C-10.75 3.1875 -10.75 3.1875 -9.171875 1.57421875 C-5.96470552 -0.26214442 -3.66978533 -0.11009356 0 0 Z " fill="#0C0C0C" transform="translate(126.75,98.8125)"/>
<path d="M0 0 C1.69672386 1.29486821 3.3603279 2.63360658 5 4 C6.2344018 4.556794 7.48569592 5.07742007 8.75 5.5625 C9.8225 6.036875 10.895 6.51125 12 7 C12.33 7.99 12.66 8.98 13 10 C4.77603583 7.63493841 4.77603583 7.63493841 1.25 4.75 C-0.85607792 2.70794227 -0.85607792 2.70794227 -3.5 3.1875 C-4.7375 3.5896875 -4.7375 3.5896875 -6 4 C-7.66666667 4.33333333 -9.33333333 4.66666667 -11 5 C-11 4.01 -11 3.02 -11 2 C-3.97959184 -0.6122449 -3.97959184 -0.6122449 0 0 Z " fill="#1C1C1C" transform="translate(99,174)"/>
<path d="M0 0 C3.34333458 2.22888972 3.42608443 2.49390971 4.16796875 6.17578125 C4.33876953 7.00400391 4.50957031 7.83222656 4.68554688 8.68554688 C4.93401367 9.98588867 4.93401367 9.98588867 5.1875 11.3125 C5.36474609 12.16779297 5.54199219 13.02308594 5.72460938 13.90429688 C6.54205199 17.97888534 7.24981734 21.8220204 7 26 C6.34 26 5.68 26 5 26 C4.15731913 22.60641656 3.32752099 19.20980915 2.5 15.8125 C2.26152344 14.85279297 2.02304688 13.89308594 1.77734375 12.90429688 C1.43896484 11.50727539 1.43896484 11.50727539 1.09375 10.08203125 C0.88427734 9.22843018 0.67480469 8.3748291 0.45898438 7.49536133 C-0.01093734 4.94053693 -0.08117627 2.59155241 0 0 Z " fill="#27292E" transform="translate(212,230)"/>
<path d="M0 0 C0.33 0 0.66 0 1 0 C2.53363229 12.93363229 2.53363229 12.93363229 -1.2265625 18 C-3.72621626 20.1968788 -6.22253191 22.16984692 -9 24 C-9.99 23.67 -10.98 23.34 -12 23 C-11.36191406 22.48953125 -10.72382813 21.9790625 -10.06640625 21.453125 C-4.88020011 16.95995481 -4.88020011 16.95995481 -2.25 10.80078125 C-2.12863574 8.70471934 -2.07352483 6.6033401 -2.09765625 4.50390625 C-2 2 -2 2 0 0 Z " fill="#3A3A3A" transform="translate(170,206)"/>
<path d="M0 0 C3.375 1 3.375 1 6 2 C5.01 3.485 5.01 3.485 4 5 C3.03900391 4.87431641 3.03900391 4.87431641 2.05859375 4.74609375 C-3.23075314 4.12335395 -7.77045499 3.97682815 -13 5 C-13.66 3.68 -14.32 2.36 -15 1 C-14.071875 1.20625 -13.14375 1.4125 -12.1875 1.625 C-7.67579919 2.15578833 -4.92160386 -0.38600815 0 0 Z " fill="#242424" transform="translate(143,138)"/>
<path d="M0 0 C0.66 0.33 1.32 0.66 2 1 C1.32508713 5.14292672 -0.84700352 8.49940601 -2.9375 12.0625 C-3.29779297 12.68705078 -3.65808594 13.31160156 -4.02929688 13.95507812 C-5.61588491 16.69289209 -7.24423972 19.36635959 -9 22 C-9.89753304 19.53847306 -10.14514362 18.38006044 -9.19555664 15.89355469 C-8.77137451 15.16040039 -8.34719238 14.42724609 -7.91015625 13.671875 C-7.45576172 12.87265625 -7.00136719 12.0734375 -6.53320312 11.25 C-6.04787109 10.425 -5.56253906 9.6 -5.0625 8.75 C-4.58103516 7.90953125 -4.09957031 7.0690625 -3.60351562 6.203125 C-2.41316035 4.12884253 -1.21180052 2.06180335 0 0 Z " fill="#181818" transform="translate(137,163)"/>
<path d="M0 0 C0.99 0 1.98 0 3 0 C3.33 4.62 3.66 9.24 4 14 C3.01 14.495 3.01 14.495 2 15 C1.34 11.37 0.68 7.74 0 4 C-0.99 4.66 -1.98 5.32 -3 6 C-5.1875 5.625 -5.1875 5.625 -7 5 C-6.21625 4.731875 -5.4325 4.46375 -4.625 4.1875 C-1.71885077 3.15185568 -1.71885077 3.15185568 0 0 Z " fill="#222429" transform="translate(93,125)"/>
<path d="M0 0 C3.2828117 5.69020694 3.10993482 11.62378015 3 18 C2.34 18 1.68 18 1 18 C0.01 12.72 -0.98 7.44 -2 2 C-1.34 2 -0.68 2 0 2 C0 1.34 0 0.68 0 0 Z " fill="#1E1E1E" transform="translate(189,238)"/>
<path d="M0 0 C0.33 0 0.66 0 1 0 C1 4.62 1 9.24 1 14 C0.01 14 -0.98 14 -2 14 C-3.10643764 8.16605611 -3.27137992 5.23420787 0 0 Z " fill="#D2D2D2" transform="translate(159,193)"/>
<path d="M0 0 C1.32 0 2.64 0 4 0 C4.79953138 3.28696233 5.09658936 4.71023192 4 8 C3.01 8.33 2.02 8.66 1 9 C0.34 8.34 -0.32 7.68 -1 7 C-0.625 3.375 -0.625 3.375 0 0 Z " fill="#101010" transform="translate(122,108)"/>
<path d="M0 0 C3 1 3 1 4.1875 3.25 C4.99938294 5.99791147 5.16260121 8.15447889 5 11 C4.01 11 3.02 11 2 11 C2.66 12.32 3.32 13.64 4 15 C3.01 14.67 2.02 14.34 1 14 C1.0928125 12.63875 1.0928125 12.63875 1.1875 11.25 C0.98327924 7.71017358 0.35448165 6.55068845 -2 4 C-0.02 4.99 -0.02 4.99 2 6 C1.34 4.02 0.68 2.04 0 0 Z " fill="#1C1C1C" transform="translate(87,107)"/>
<path d="M0 0 C0.66 0 1.32 0 2 0 C1.85879286 1.93784265 1.71187127 3.87526955 1.5625 5.8125 C1.48128906 6.89144531 1.40007813 7.97039062 1.31640625 9.08203125 C1 12 1 12 0 15 C-0.66 15 -1.32 15 -2 15 C-2.19392201 9.47322267 -1.7479503 5.24385089 0 0 Z " fill="#121318" transform="translate(29,241)"/>
<path d="M0 0 C1.98 0 3.96 0 6 0 C6 0.66 6 1.32 6 2 C4.35 2.33 2.7 2.66 1 3 C1 5.64 1 8.28 1 11 C0.01 11.33 -0.98 11.66 -2 12 C-2.17835515 7.45194365 -1.99785435 4.1205746 0 0 Z " fill="#323232" transform="translate(147,205)"/>
<path d="M0 0 C0.66 0 1.32 0 2 0 C1.34728444 3.51705958 0.48606976 6.89325077 -0.5625 10.3125 C-0.83191406 11.19550781 -1.10132812 12.07851562 -1.37890625 12.98828125 C-1.58386719 13.65214844 -1.78882812 14.31601563 -2 15 C-2.99 14.34 -3.98 13.68 -5 13 C-4.54554036 11.58208592 -4.08625056 10.16571954 -3.625 8.75 C-3.24214844 7.56664062 -3.24214844 7.56664062 -2.8515625 6.359375 C-2.04826333 4.13372042 -1.10288338 2.09068328 0 0 Z " fill="#292929" transform="translate(68,209)"/>
<path d="M0 0 C0.66 0.33 1.32 0.66 2 1 C1.505 1.639375 1.01 2.27875 0.5 2.9375 C-1.50950277 7.04023483 -1.26385672 10.51443582 -1 15 C-1.99 15.33 -2.98 15.66 -4 16 C-4.63019694 6.00437637 -4.63019694 6.00437637 -2 1.8125 C-1.34 1.214375 -0.68 0.61625 0 0 Z " fill="#2C2C2C" transform="translate(146,104)"/>
<path d="M0 0 C2.3125 0.25 2.3125 0.25 5 1 C5.99 2.32 6.98 3.64 8 5 C4.37 5.33 0.74 5.66 -3 6 C-2.67 5.01 -2.34 4.02 -2 3 C-1.01 3 -0.02 3 1 3 C0.67 2.01 0.34 1.02 0 0 Z " fill="#141518" transform="translate(160,165)"/>
<path d="M0 0 C0.99 0.33 1.98 0.66 3 1 C3 2.98 3 4.96 3 7 C1.68 7.33 0.36 7.66 -1 8 C-1.625 5.125 -1.625 5.125 -2 2 C-1.34 1.34 -0.68 0.68 0 0 Z " fill="#111111" transform="translate(152,109)"/>
<path d="M0 0 C2 1 2 1 2.6328125 2.890625 C3.48563453 6.97875601 4.27121668 10.79614144 4 15 C3.34 15 2.68 15 2 15 C1.66048381 13.43883181 1.32867456 11.87598662 1 10.3125 C0.814375 9.44238281 0.62875 8.57226562 0.4375 7.67578125 C0.01027953 5.06287036 -0.07616201 2.64186962 0 0 Z " fill="#1A1B1F" transform="translate(215,241)"/>
<path d="M0 0 C0.94875 0.04125 1.8975 0.0825 2.875 0.125 C2.545 0.785 2.215 1.445 1.875 2.125 C0.555 2.455 -0.765 2.785 -2.125 3.125 C-2.455 8.075 -2.785 13.025 -3.125 18.125 C-3.455 18.125 -3.785 18.125 -4.125 18.125 C-4.34619939 15.50049914 -4.55246669 12.87629514 -4.75 10.25 C-4.81445312 9.50363281 -4.87890625 8.75726563 -4.9453125 7.98828125 C-5.08587365 6.0379953 -5.11259849 4.08030533 -5.125 2.125 C-3.125 0.125 -3.125 0.125 0 0 Z " fill="#343434" transform="translate(137.125,180.875)"/>
<path d="M0 0 C-1 3 -1 3 -2.875 4.1875 C-5 5 -5 5 -8 5 C-8 3.68 -8 2.36 -8 1 C-5.29120665 -0.35439668 -2.99066732 -0.06501451 0 0 Z " fill="#0C0C0C" transform="translate(88,177)"/>
<path d="M0 0 C0.99 0 1.98 0 3 0 C6 5.75 6 5.75 6 8 C5.01 8 4.02 8 3 8 C0 2.25 0 2.25 0 0 Z " fill="#1D1F25" transform="translate(201,204)"/>
<path d="M0 0 C-5.625 4 -5.625 4 -9 4 C-9 3.01 -9 2.02 -9 1 C-3.375 -1.125 -3.375 -1.125 0 0 Z " fill="#272727" transform="translate(97,175)"/>
<path d="M0 0 C3 1 3 1 4.1875 3.375 C5 6 5 6 5 9 C4.34 9 3.68 9 3 9 C2.01 6.03 1.02 3.06 0 0 Z " fill="#101012" transform="translate(205,212)"/>
<path d="M0 0 C0.66 0.33 1.32 0.66 2 1 C1.40072174 4.35595828 0.15377564 6.37801226 -2 9 C-2.66 8.34 -3.32 7.68 -4 7 C-2.68 4.69 -1.36 2.38 0 0 Z " fill="#252525" transform="translate(137,163)"/>
<path d="M0 0 C0.99 0 1.98 0 3 0 C3 4.62 3 9.24 3 14 C2.67 14 2.34 14 2 14 C1.92652344 12.84371094 1.92652344 12.84371094 1.8515625 11.6640625 C1.77679688 10.66117188 1.70203125 9.65828125 1.625 8.625 C1.55539063 7.62726563 1.48578125 6.62953125 1.4140625 5.6015625 C1.23636036 2.84491121 1.23636036 2.84491121 -1 1 C-0.67 0.67 -0.34 0.34 0 0 Z " fill="#000000" transform="translate(167,205)"/>
<path d="M0 0 C0.99 0 1.98 0 3 0 C2.34 2.31 1.68 4.62 1 7 C0.01 7 -0.98 7 -2 7 C-1.34 4.69 -0.68 2.38 0 0 Z " fill="#191B21" transform="translate(34,223)"/>
<path d="M0 0 C6.75 0.875 6.75 0.875 9 2 C8.67 2.99 8.34 3.98 8 5 C5.36 3.68 2.72 2.36 0 1 C0 0.67 0 0.34 0 0 Z " fill="#27272A" transform="translate(165,170)"/>
<path d="M0 0 C-0.99 1.485 -0.99 1.485 -2 3 C-4.64 2.34 -7.28 1.68 -10 1 C-6.42181037 -1.33958553 -4.07775191 -0.9267618 0 0 Z " fill="#363636" transform="translate(149,140)"/>
<path d="M0 0 C1.42944945 2.35438733 2.08661261 3.48032433 1.625 6.25 C1.41875 6.8275 1.2125 7.405 1 8 C0.34 8 -0.32 8 -1 8 C-1.33 6.02 -1.66 4.04 -2 2 C-1.34 2 -0.68 2 0 2 C0 1.34 0 0.68 0 0 Z " fill="#434343" transform="translate(189,238)"/>
<path d="M0 0 C0.33 0 0.66 0 1 0 C1 3.3 1 6.6 1 10 C0.01 9.01 -0.98 8.02 -2 7 C-1.56521739 1.56521739 -1.56521739 1.56521739 0 0 Z " fill="#171717" transform="translate(62,231)"/>
<path d="M0 0 C0 3 0 3 -1.875 5.1875 C-4 7 -4 7 -6 7 C-4.60667426 3.63279613 -3.0210714 2.0140476 0 0 Z " fill="#101114" transform="translate(55,188)"/>
<path d="M0 0 C0.28875 0.598125 0.5775 1.19625 0.875 1.8125 C2.04742026 4.19327792 2.04742026 4.19327792 4 7 C3.01 7 2.02 7 1 7 C0.34 6.34 -0.32 5.68 -1 5 C-0.625 2.375 -0.625 2.375 0 0 Z " fill="#191919" transform="translate(146,216)"/>
<path d="M0 0 C0.33 0.99 0.66 1.98 1 3 C0.67 3.66 0.34 4.32 0 5 C-1.98 5 -3.96 5 -6 5 C-4.62308038 2.24616077 -2.63279958 1.48516899 0 0 Z " fill="#070707" transform="translate(145,178)"/>
<path d="M0 0 C0.66 0.33 1.32 0.66 2 1 C1.67 1.33 1.34 1.66 1 2 C1.99 2.66 2.98 3.32 4 4 C1.36 4.33 -1.28 4.66 -4 5 C-4 4.34 -4 3.68 -4 3 C-2 1.375 -2 1.375 0 0 Z " fill="#2D2D2D" transform="translate(120,99)"/>
</svg>
