<?xml version="1.0" encoding="UTF-8"?>
<svg version="1.1" xmlns="http://www.w3.org/2000/svg" width="256" height="256">
<path d="M0 0 C84.48 0 168.96 0 256 0 C256 84.48 256 168.96 256 256 C171.52 256 87.04 256 0 256 C0 171.52 0 87.04 0 0 Z " fill="#FEC7D7" transform="translate(0,0)"/>
<path d="M0 0 C4.37979324 1.21660923 8.25991078 3.00465506 12.375 4.9375 C11.715 7.9075 11.055 10.8775 10.375 13.9375 C11.035 13.9375 11.695 13.9375 12.375 13.9375 C12.375 12.2875 12.375 10.6375 12.375 8.9375 C13.365 9.9275 13.365 9.9275 14.375 10.9375 C14.705 10.2775 15.035 9.6175 15.375 8.9375 C16.365 9.4325 16.365 9.4325 17.375 9.9375 C17.375 10.5975 17.375 11.2575 17.375 11.9375 C18.49648438 12.07285156 18.49648438 12.07285156 19.640625 12.2109375 C27.59770925 14.32524846 32.3553202 24.76940782 36.28881836 31.48779297 C37.32902976 33.29818501 38.35654151 35.11479753 39.375 36.9375 C40.02662109 38.10345703 40.02662109 38.10345703 40.69140625 39.29296875 C43.96764657 45.52424936 47.60760198 52.50662082 47.125 59.625 C46.75375 60.7696875 46.75375 60.7696875 46.375 61.9375 C47.035 61.6075 47.695 61.2775 48.375 60.9375 C48.045 62.5875 47.715 64.2375 47.375 65.9375 C48.365 66.2675 49.355 66.5975 50.375 66.9375 C52.355 76.8375 52.355 76.8375 54.375 86.9375 C31.77462586 87.05320238 9.17432295 87.14245116 -13.42628765 87.19656086 C-23.91995508 87.22235179 -34.41343521 87.25751939 -44.90698242 87.31469727 C-54.05226398 87.36450491 -63.19740991 87.39678454 -72.34282333 87.40794247 C-77.18613937 87.4144657 -82.02906737 87.4298156 -86.87225914 87.46615028 C-91.43018756 87.50006807 -95.98756779 87.51056152 -100.54561043 87.50303841 C-102.21898756 87.50441485 -103.89238287 87.51437269 -105.56565094 87.53352737 C-107.85044634 87.55840127 -110.13317139 87.55242814 -112.41801453 87.53877258 C-113.6965414 87.54338155 -114.97506826 87.54799051 -116.29233837 87.55273914 C-120.48969916 86.7778688 -121.78799428 85.01520512 -124.625 81.9375 C-128.33500718 81.51918596 -128.33500718 81.51918596 -131.625 81.9375 C-131.30463789 68.1910533 -126.15246017 55.35664456 -120.625 42.9375 C-119.965 42.9375 -119.305 42.9375 -118.625 42.9375 C-118.25375 41.4834375 -118.25375 41.4834375 -117.875 40 C-116.625 36.9375 -116.625 36.9375 -114.75 35.8125 C-112.625 35.9375 -112.625 35.9375 -110.375 37.875 C-109.7975 38.555625 -109.22 39.23625 -108.625 39.9375 C-109.18862302 37.88913118 -109.18862302 37.88913118 -110.625 35.9375 C-113.68408413 35.12165432 -113.68408413 35.12165432 -116.625 34.9375 C-116.295 34.2775 -115.965 33.6175 -115.625 32.9375 C-110.08653846 33.55288462 -110.08653846 33.55288462 -107.75 35.5 C-107.37875 35.974375 -107.0075 36.44875 -106.625 36.9375 C-106.955 35.9475 -107.285 34.9575 -107.625 33.9375 C-111.13690809 32.70780122 -111.13690809 32.70780122 -114.625 31.9375 C-109.84980712 22.59473133 -103.00210634 14.26307009 -94.625 7.9375 C-93.965 7.9375 -93.305 7.9375 -92.625 7.9375 C-92.13 8.9275 -92.13 8.9275 -91.625 9.9375 C-91.068125 9.1125 -90.51125 8.2875 -89.9375 7.4375 C-87.625 4.9375 -87.625 4.9375 -85.0625 4.4375 C-82.15075854 5.0347803 -81.27124552 5.46813172 -79.625 7.9375 C-78.9375 11.125 -78.9375 11.125 -78.625 13.9375 C-77.965 13.9375 -77.305 13.9375 -76.625 13.9375 C-77.22022337 12.49627387 -77.82657619 11.05964132 -78.4375 9.625 C-78.77394531 8.82449219 -79.11039063 8.02398437 -79.45703125 7.19921875 C-80.60700704 4.97234255 -81.76126961 3.58762233 -83.625 1.9375 C-76.58835905 1.26734372 -73.2020643 2.25811254 -67.5703125 6.52734375 C-64.24913565 8.93486352 -61.29817614 9.1213477 -57.3125 9.1875 C-56.38824219 9.21328125 -55.46398437 9.2390625 -54.51171875 9.265625 C-51.52040005 9.10907213 -51.52040005 9.10907213 -48.81640625 7.40625 C-44.60362306 5.46744158 -41.40963251 5.77526068 -36.875 6.1875 C-35.72451172 6.26677734 -35.72451172 6.26677734 -34.55078125 6.34765625 C-28.95962733 6.77018634 -28.95962733 6.77018634 -26.625 7.9375 C-24.75443209 8.1650015 -22.87814042 8.34712811 -21 8.5 C-19.99710937 8.58378906 -18.99421875 8.66757813 -17.9609375 8.75390625 C-16.80464844 8.84478516 -16.80464844 8.84478516 -15.625 8.9375 C-16.5840625 10.2678125 -16.5840625 10.2678125 -17.5625 11.625 C-19.43329757 14.62961428 -20.21923966 16.4885371 -20.625 19.9375 C-19.965 19.9375 -19.305 19.9375 -18.625 19.9375 C-18.7075 19.03 -18.79 18.1225 -18.875 17.1875 C-18.625 13.9375 -18.625 13.9375 -16.9375 11.5 C-14.625 9.9375 -14.625 9.9375 -12.0625 10 C-9.44246887 11.00770428 -8.19962244 11.61700377 -6.625 13.9375 C-6.4375 16.625 -6.4375 16.625 -6.625 18.9375 C-5.965 18.9375 -5.305 18.9375 -4.625 18.9375 C-5.615 14.9775 -5.615 14.9775 -6.625 10.9375 C-9.265 10.2775 -11.905 9.6175 -14.625 8.9375 C-12.63456313 7.61054209 -10.63454842 6.29783335 -8.625 5 C-5.68873456 3.18280393 -5.68873456 3.18280393 -4.125 1.125 C-2.625 -0.0625 -2.625 -0.0625 0 0 Z " fill="#F9F9F9" transform="translate(162.625,169.0625)"/>
<path d="M0 0 C10.75627863 6.49435691 20.03430124 15.65991739 23.8515625 27.734375 C25.19775079 33.35404225 25.00209763 39.00421105 24.9375 44.75 C24.9365332 46.38388672 24.9365332 46.38388672 24.93554688 48.05078125 C24.9038114 53.88305708 24.56453042 59.47883096 23.75 65.25 C23.29722408 71.88490864 23.48313394 76.34451135 26.75 82.25 C30.17760606 94.85943562 30.17760606 94.85943562 27.75 100.625 C27.42 101.16125 27.09 101.6975 26.75 102.25 C27.74 101.92 28.73 101.59 29.75 101.25 C29.40210084 107.16428569 28.04149018 109.28704496 23.75 113.25 C24.78898438 113.78367187 25.82796875 114.31734375 26.8984375 114.8671875 C51.2058158 127.69527064 63.38187728 149.93178728 71.39453125 175.44921875 C76.75 193.59262208 76.75 193.59262208 76.75 202.25 C76.09 202.25 75.43 202.25 74.75 202.25 C74.10220924 199.85468067 73.45670991 197.45878252 72.8125 195.0625 C72.63009766 194.38896484 72.44769531 193.71542969 72.25976562 193.02148438 C71.48390088 190.12962488 70.75454109 187.27636647 70.24609375 184.32421875 C70.08238281 183.63972656 69.91867188 182.95523438 69.75 182.25 C69.09 181.92 68.43 181.59 67.75 181.25 C67.75 179.93 67.75 178.61 67.75 177.25 C67.42 178.9 67.09 180.55 66.75 182.25 C66.42 182.25 66.09 182.25 65.75 182.25 C65.62095943 176.70125563 65.62095943 176.70125563 66.40234375 173.96875 C67.84159258 162.71350072 55.76494665 145.75149831 49.3828125 136.8671875 C45.43768151 131.77969534 43.07381836 129.00121124 36.75 127.25 C36.42 126.92 36.09 126.59 35.75 126.25 C35.29625 126.745 34.8425 127.24 34.375 127.75 C32.75 129.25 32.75 129.25 30.75 129.25 C30.5 123.625 30.5 123.625 32.75 120.25 C29.76603357 119.19566519 26.76488538 118.21198646 23.75 117.25 C22.71875 116.899375 21.6875 116.54875 20.625 116.1875 C16.63516504 116.27423554 15.05648009 118.10183235 12.265625 120.8046875 C10.75 122.25 10.75 122.25 8.75 123.25 C9.53375 123.683125 10.3175 124.11625 11.125 124.5625 C13.75 126.25 13.75 126.25 15.75 129.25 C15.875 131.9375 15.875 131.9375 15.75 134.25 C15.09 134.25 14.43 134.25 13.75 134.25 C13.481875 133.30125 13.21375 132.3525 12.9375 131.375 C12.00013412 127.99732727 12.00013412 127.99732727 8.75 126.25 C6.10367713 126.5621764 6.10367713 126.5621764 3.75 127.25 C2.76 131.21 2.76 131.21 1.75 135.25 C1.09 135.25 0.43 135.25 -0.25 135.25 C0.5 128.625 0.5 128.625 2.75 125.25 C2.12351562 125.18941406 1.49703125 125.12882812 0.8515625 125.06640625 C-0.37433594 124.94072266 -0.37433594 124.94072266 -1.625 124.8125 C-2.84316406 124.69068359 -2.84316406 124.69068359 -4.0859375 124.56640625 C-6.25 124.25 -6.25 124.25 -8.25 123.25 C-11.00794498 122.93580374 -13.73348887 122.69063354 -16.5 122.5 C-17.25152344 122.43167969 -18.00304687 122.36335938 -18.77734375 122.29296875 C-23.88309975 121.94545656 -26.68902553 122.72677183 -31.25 125.25 C-38.39325396 126.39250892 -44.2595497 125.25799912 -50.25 121.25 C-50.91 120.6725 -51.57 120.095 -52.25 119.5 C-55.47135135 117.4866554 -58.51023152 118.06301158 -62.25 118.25 C-61.0434375 119.301875 -61.0434375 119.301875 -59.8125 120.375 C-57.01566189 123.51291593 -56.53691249 125.13758763 -56.25 129.25 C-56.91 129.25 -57.57 129.25 -58.25 129.25 C-58.724375 128.115625 -59.19875 126.98125 -59.6875 125.8125 C-60.88622083 122.49259834 -60.88622083 122.49259834 -62.25 121.25 C-64.66537838 120.83282721 -64.66537838 120.83282721 -67.25 121.25 C-69.52436849 123.60860436 -70.87660359 126.29191542 -72.25 129.25 C-72.25 127.27 -72.25 125.29 -72.25 123.25 C-80.68272784 129.18879343 -88.57103322 136.89206645 -93.25 146.25 C-92.13625 146.683125 -91.0225 147.11625 -89.875 147.5625 C-86.25 149.25 -86.25 149.25 -84.25 152.25 C-84.125 154.9375 -84.125 154.9375 -84.25 157.25 C-85.99627478 154.63058783 -86.63722388 153.21175123 -87.25 150.25 C-88.24 150.25 -89.23 150.25 -90.25 150.25 C-89.734375 150.6625 -89.21875 151.075 -88.6875 151.5 C-88.213125 152.0775 -87.73875 152.655 -87.25 153.25 C-87.5625 155.4375 -87.5625 155.4375 -88.25 157.25 C-88.5903125 156.2909375 -88.5903125 156.2909375 -88.9375 155.3125 C-90.10250896 152.97806339 -90.10250896 152.97806339 -92.875 152.5 C-93.65875 152.4175 -94.4425 152.335 -95.25 152.25 C-95.91 154.56 -96.57 156.87 -97.25 159.25 C-98.24 158.92 -99.23 158.59 -100.25 158.25 C-100.92291712 160.26875136 -101.59449625 162.2879531 -102.26171875 164.30859375 C-102.97516908 166.43202496 -103.70958898 168.54845042 -104.45703125 170.66015625 C-107.51623825 179.44959992 -109.649479 188.07628205 -111.25 197.25 C-109.60837891 196.92902344 -109.60837891 196.92902344 -107.93359375 196.6015625 C-104.25 196.25 -104.25 196.25 -101.3125 198.625 C-99.25 201.25 -99.25 201.25 -99.25 202.25 C-104.2 202.25 -109.15 202.25 -114.25 202.25 C-115.14845388 177.8794384 -102.91257463 149.42170083 -86.5 131.625 C-84.76744634 129.81645714 -83.01827465 128.02363306 -81.25 126.25 C-80.77498047 125.77336914 -80.29996094 125.29673828 -79.81054688 124.80566406 C-78.62576187 123.61837951 -77.43817051 122.43389651 -76.25 121.25 C-78.725 121.745 -78.725 121.745 -81.25 122.25 C-80.41719338 113.34406801 -80.41719338 113.34406801 -77.62890625 110.73046875 C-75.75 109.6875 -75.75 109.6875 -72.25 108.25 C-71.59 107.92 -70.93 107.59 -70.25 107.25 C-71.57 106.92 -72.89 106.59 -74.25 106.25 C-75.375 101.5 -75.375 101.5 -74.25 99.25 C-74.29911228 95.47728402 -74.4466998 91.7190583 -74.60546875 87.94921875 C-74.18956639 83.62109198 -73.51278188 82.09501888 -70.25 79.25 C-67.015625 78.32421875 -67.015625 78.32421875 -63.5 77.9375 C-62.32953125 77.79699219 -61.1590625 77.65648437 -59.953125 77.51171875 C-58.61507812 77.38216797 -58.61507812 77.38216797 -57.25 77.25 C-58.178125 76.569375 -59.10625 75.88875 -60.0625 75.1875 C-64.19209454 71.68271409 -65.88884148 68.07238696 -66.56640625 62.77734375 C-67.2054411 48.45059464 -60.13449051 36.48961125 -50.7734375 26.1875 C-48.82717905 23.71225849 -47.39719079 21.06759646 -45.875 18.3125 C-36.59757177 2.12247819 -18.36988725 -7.92837154 0 0 Z " fill="#040404" transform="translate(142.25,53.75)"/>
<path d="M0 0 C9.28501931 -0.41450979 18.23295217 1.57312706 25.44140625 7.59765625 C31.92326363 13.81399176 31.92326363 13.81399176 32.1953125 18.3828125 C32.18783068 21.21467993 32.16067143 24.0451367 32.10400391 26.87646484 C32.07403384 28.51988247 32.05413109 30.16349432 32.04052734 31.80712891 C31.7654048 59.16550069 31.7654048 59.16550069 22.0625 70.15234375 C15.94581878 75.53768265 8.70015363 76.14022269 0.87109375 75.6875 C-4.74556497 74.89828744 -7.91149969 73.05350684 -11.9375 69.15234375 C-12.70578125 68.4253125 -13.4740625 67.69828125 -14.265625 66.94921875 C-20.02804818 61.0341486 -23.76304776 54.74254045 -26.9375 47.15234375 C-27.2778125 46.37632813 -27.618125 45.6003125 -27.96875 44.80078125 C-30.02426926 39.26229879 -30.2679818 33.75071215 -30.375 27.90234375 C-30.39739746 27.13325684 -30.41979492 26.36416992 -30.44287109 25.57177734 C-30.42103646 20.28205096 -29.35610085 17.37931412 -25.9375 13.15234375 C-25.43089844 12.51167969 -24.92429687 11.87101562 -24.40234375 11.2109375 C-17.82096979 4.22559173 -9.48586349 0.74586427 0 0 Z " fill="#FBFBFB" transform="translate(127.9375,78.84765625)"/>
<path d="M0 0 C0.66 0 1.32 0 2 0 C2 0.66 2 1.32 2 2 C2.99 2.33 3.98 2.66 5 3 C4.34 5.31 3.68 7.62 3 10 C2.67 10 2.34 10 2 10 C2 8.02 2 6.04 2 4 C-6.43272784 9.93879343 -14.32103322 17.64206645 -19 27 C-17.88625 27.433125 -16.7725 27.86625 -15.625 28.3125 C-12 30 -12 30 -10 33 C-9.875 35.6875 -9.875 35.6875 -10 38 C-11.74627478 35.38058783 -12.38722388 33.96175123 -13 31 C-13.99 31 -14.98 31 -16 31 C-15.484375 31.4125 -14.96875 31.825 -14.4375 32.25 C-13.963125 32.8275 -13.48875 33.405 -13 34 C-13.3125 36.1875 -13.3125 36.1875 -14 38 C-14.3403125 37.0409375 -14.3403125 37.0409375 -14.6875 36.0625 C-15.85250896 33.72806339 -15.85250896 33.72806339 -18.625 33.25 C-19.40875 33.1675 -20.1925 33.085 -21 33 C-21.66 35.31 -22.32 37.62 -23 40 C-24.485 39.505 -24.485 39.505 -26 39 C-26.67291712 41.01875136 -27.34449625 43.0379531 -28.01171875 45.05859375 C-28.72516908 47.18202496 -29.45958898 49.29845042 -30.20703125 51.41015625 C-33.26623825 60.19959992 -35.399479 68.82628205 -37 78 C-35.90558594 77.78601563 -34.81117187 77.57203125 -33.68359375 77.3515625 C-30 77 -30 77 -27.0625 79.375 C-25 82 -25 82 -25 83 C-29.95 83 -34.9 83 -40 83 C-40.8990438 58.613437 -28.64244325 30.25128663 -12.3125 12.375 C-9.58026082 9.48489811 -6.80780795 6.8004648 -3.73046875 4.2890625 C-0.97997882 2.29172136 -0.97997882 2.29172136 0 0 Z " fill="#1B1919" transform="translate(68,173)"/>
<path d="M0 0 C8.21349327 0.94827187 13.97095552 8.55447752 19.0625 14.5625 C34.03681654 34.15591015 42.3559783 58.64124687 45 83 C44.34 83 43.68 83 43 83 C42.35220924 80.60468067 41.70670991 78.20878252 41.0625 75.8125 C40.88009766 75.13896484 40.69769531 74.46542969 40.50976562 73.77148438 C39.73390088 70.87962488 39.00454109 68.02636647 38.49609375 65.07421875 C38.33238281 64.38972656 38.16867188 63.70523438 38 63 C37.01 62.505 37.01 62.505 36 62 C36 60.68 36 59.36 36 58 C35.67 59.65 35.34 61.3 35 63 C34.67 63 34.34 63 34 63 C33.87095943 57.45125563 33.87095943 57.45125563 34.65234375 54.71875 C36.09159258 43.46350072 24.01494665 26.50149831 17.6328125 17.6171875 C13.68768151 12.52969534 11.32381836 9.75121124 5 8 C4.67 7.67 4.34 7.34 4 7 C3.54625 7.495 3.0925 7.99 2.625 8.5 C1 10 1 10 -1 10 C-1.08004482 6.4780279 -1.04005702 3.38018531 0 0 Z " fill="#191616" transform="translate(174,173)"/>
<path d="M0 0 C3.75042642 3.20036388 6.03002473 6.12880553 7 11 C6.27554688 10.51789063 5.55109375 10.03578125 4.8046875 9.5390625 C3.83789062 8.90742187 2.87109375 8.27578125 1.875 7.625 C0.92367187 6.99851562 -0.02765625 6.37203125 -1.0078125 5.7265625 C-6.69912538 2.44254123 -11.74427193 1.6366229 -18.25 1.6875 C-19.37716431 1.69595947 -19.37716431 1.69595947 -20.52709961 1.70458984 C-30.51876746 1.92205746 -37.39947755 4.43977252 -45 11 C-45.66 10.67 -46.32 10.34 -47 10 C-35.45857513 -5.18608535 -16.76740846 -9.90688831 0 0 Z " fill="#ECECEC" transform="translate(150,77)"/>
<path d="M0 0 C3 1 3 1 4 3 C7.54518884 1.60240095 7.54518884 1.60240095 11 0 C13.8125 -0.375 13.8125 -0.375 17 0 C19.57285724 2.172635 21.48996919 3.97993838 23 7 C23.039992 8.99960012 23.04346799 11.00047242 23 13 C22.34 13 21.68 13 21 13 C20.34 10.36 19.68 7.72 19 5 C18.67 5 18.34 5 18 5 C18.33 6.98 18.66 8.96 19 11 C16.48916886 9.74458443 16.12874554 8.49936512 15 6 C13.35 6.33 11.7 6.66 10 7 C8.49758946 12.75924041 9.53060555 15.89428502 11.87890625 21.2734375 C15.55241774 30.20762224 16.55213079 39.42486515 17 49 C16.34 49 15.68 49 15 49 C14.87471924 48.37134033 14.74943848 47.74268066 14.62036133 47.0949707 C11.53376844 31.79078925 7.6411883 18.27363572 0.91796875 4.14453125 C0 2 0 2 0 0 Z " fill="#0F0F0F" transform="translate(175,207)"/>
<path d="M0 0 C2.9375 1.625 2.9375 1.625 5 4 C5.3125 7.25 5.3125 7.25 5 10 C1.85069107 11.04976964 -0.38814456 11.10131595 -3.6875 11.0625 C-4.68136719 11.05347656 -5.67523438 11.04445313 -6.69921875 11.03515625 C-7.83810547 11.01775391 -7.83810547 11.01775391 -9 11 C-10.39935013 8.20129973 -10.25265405 6.09501208 -10 3 C-7.71588862 -1.03078478 -4.21879674 -0.50916512 0 0 Z " fill="#E3E3E3" transform="translate(75,245)"/>
<path d="M0 0 C0.33 0.66 0.66 1.32 1 2 C1.66 2 2.32 2 3 2 C1.68 8.27 0.36 14.54 -1 21 C2.465 20.505 2.465 20.505 6 20 C8.9375 22.375 8.9375 22.375 11 25 C11 25.33 11 25.66 11 26 C6.05 26 1.1 26 -4 26 C-4.22615016 19.83740819 -3.44149898 14.48027281 -2 8.5 C-1.71382812 7.26636719 -1.71382812 7.26636719 -1.421875 6.0078125 C-0.95572696 4.00337593 -0.47897024 2.00141137 0 0 Z " fill="#2B2527" transform="translate(32,230)"/>
<path d="M0 0 C0.66 0 1.32 0 2 0 C1.51611999 3.09683208 0.73174362 5.68768486 -0.4140625 8.625 C-2.07926461 13.01084924 -3.12993001 17.4091429 -4.0625 22 C-4.23168945 22.81509033 -4.40087891 23.63018066 -4.57519531 24.4699707 C-6.14415513 32.26564532 -7.17136374 40.09524616 -8 48 C-8.66 48 -9.32 48 -10 48 C-10.16051911 41.26979025 -9.78666751 34.83748648 -8.75 28.1875 C-8.61722656 27.32310303 -8.48445313 26.45870605 -8.34765625 25.56811523 C-6.91052557 16.71542321 -5.21496095 7.48292574 0 0 Z " fill="#292929" transform="translate(69,208)"/>
<path d="M0 0 C-3.75 3.875 -3.75 3.875 -6 5 C-5.21625 5.433125 -4.4325 5.86625 -3.625 6.3125 C-1 8 -1 8 1 11 C1.125 13.6875 1.125 13.6875 1 16 C0.34 16 -0.32 16 -1 16 C-1.268125 15.05125 -1.53625 14.1025 -1.8125 13.125 C-2.74986588 9.74732727 -2.74986588 9.74732727 -6 8 C-8.64632287 8.3121764 -8.64632287 8.3121764 -11 9 C-11.66 11.64 -12.32 14.28 -13 17 C-13.66 17 -14.32 17 -15 17 C-14.25 10.375 -14.25 10.375 -12 7 C-14.97 6.67 -17.94 6.34 -21 6 C-17.65097903 2.65097903 -14.92329088 1.86214171 -10.5 0.75 C-9.82324219 0.564375 -9.14648438 0.37875 -8.44921875 0.1875 C-5.10849056 -0.68227539 -3.33990261 -1.11330087 0 0 Z " fill="#252525" transform="translate(157,172)"/>
<path d="M0 0 C4.56877037 0.4903868 6.74016568 2.14846997 10.0625 5.25 C11.31740234 6.40242187 11.31740234 6.40242187 12.59765625 7.578125 C14.93184169 9.93128756 16.98304595 12.37283583 19 15 C18.34 15.66 17.68 16.32 17 17 C16.63648438 16.51789063 16.27296875 16.03578125 15.8984375 15.5390625 C12.59465975 11.38816225 10.34217807 9.24236699 5 8 C4.67 7.67 4.34 7.34 4 7 C3.54625 7.495 3.0925 7.99 2.625 8.5 C1 10 1 10 -1 10 C-1.08004482 6.4780279 -1.04005702 3.38018531 0 0 Z " fill="#242122" transform="translate(174,173)"/>
<path d="M0 0 C2.18415822 1.55759162 4.04543731 3.14830903 6 5 C5.67 5.66 5.34 6.32 5 7 C4.0409375 6.13375 4.0409375 6.13375 3.0625 5.25 C-5.78217611 -1.24812939 -15.48753538 -3.0291408 -26.26171875 -1.7265625 C-34.24934075 -0.24892213 -40.90873461 3.69470433 -47 9 C-47.33 8.01 -47.66 7.02 -48 6 C-46.34284104 4.98432193 -44.67266041 3.98994188 -43 3 C-42.31035156 2.59007813 -41.62070313 2.18015625 -40.91015625 1.7578125 C-40.15605469 1.32210937 -39.40195313 0.88640625 -38.625 0.4375 C-37.91601562 0.02371094 -37.20703125 -0.39007813 -36.4765625 -0.81640625 C-25.62915696 -6.00057641 -10.43631173 -6.29396064 0 0 Z " fill="#2F2F2F" transform="translate(150,82)"/>
<path d="M0 0 C3.41057082 2.27371388 3.48453084 2.72135179 4.3515625 6.5078125 C4.56296875 7.41273438 4.774375 8.31765625 4.9921875 9.25 C5.20101562 10.19875 5.40984375 11.1475 5.625 12.125 C5.8415625 13.05054688 6.058125 13.97609375 6.28125 14.9296875 C7.50432929 20.27499701 8.42267013 25.54744012 9 31 C8.34 31 7.68 31 7 31 C6.35220924 28.60468067 5.70670991 26.20878252 5.0625 23.8125 C4.78889648 22.80219727 4.78889648 22.80219727 4.50976562 21.77148438 C3.73390088 18.87962488 3.00454109 16.02636647 2.49609375 13.07421875 C2.33238281 12.38972656 2.16867188 11.70523438 2 11 C1.34 10.67 0.68 10.34 0 10 C0 8.68 0 7.36 0 6 C-0.33 7.65 -0.66 9.3 -1 11 C-1.33 11 -1.66 11 -2 11 C-2.19622241 6.78121808 -1.80230168 3.82989106 0 0 Z " fill="#1E1C1C" transform="translate(210,225)"/>
<path d="M0 0 C3.36008858 1.14385994 4.36214938 1.84929875 5.9375 5 C6.125 7.75 6.125 7.75 5.9375 10 C4.79319741 8.28354611 3.66032777 6.55904417 2.5625 4.8125 C2.02625 4.214375 1.49 3.61625 0.9375 3 C-0.3825 3 -1.7025 3 -3.0625 3 C-1.61495745 4.44754255 -0.02287087 4.55733561 1.9375 5 C2.2675 6.32 2.5975 7.64 2.9375 9 C-0.84437881 10.83691257 -3.00818308 11.15837626 -7.0625 10 C-7.38607362 6.44069018 -7.4505551 4.58208265 -5.4375 1.5625 C-3.0625 0 -3.0625 0 0 0 Z " fill="#3F3F3F" transform="translate(51.0625,229)"/>
<path d="M0 0 C2.7682485 1.81368005 2.97690674 2.89293126 3.6875 6.1875 C3.790625 7.115625 3.89375 8.04375 4 9 C3.34 9 2.68 9 2 9 C1.34 7.02 0.68 5.04 0 3 C-2.97 2.505 -2.97 2.505 -6 2 C-4.99582818 3.18216948 -4.99582818 3.18216948 -3.0625 3.4375 C-1 4 -1 4 1 6 C1 6.99 1 7.98 1 9 C-0.65 9 -2.3 9 -4 9 C-4.33 7.68 -4.66 6.36 -5 5 C-5 6.65 -5 8.3 -5 10 C-6.32 10 -7.64 10 -9 10 C-9.36090226 2.66165414 -9.36090226 2.66165414 -7.875 -0.0625 C-4.96809988 -1.51595006 -3.0525661 -0.89033178 0 0 Z " fill="#313131" transform="translate(157,230)"/>
<path d="M0 0 C3.02245069 0.08792584 4.0062956 0.29784214 6.625 2 C8.50456836 4.97598323 8.43924507 6.91830418 8.125 10.375 C7.83625 9.776875 7.5475 9.17875 7.25 8.5625 C6.07757974 6.18172208 6.07757974 6.18172208 4.125 3.375 C0.54142759 3.12484127 0.54142759 3.12484127 -2.875 3.375 C-2.875 3.705 -2.875 4.035 -2.875 4.375 C-2.545 4.045 -2.215 3.715 -1.875 3.375 C0.5625 3.1875 0.5625 3.1875 3.125 3.375 C3.785 4.035 4.445 4.695 5.125 5.375 C4.75 7.5 4.75 7.5 4.125 9.375 C3.795 8.385 3.465 7.395 3.125 6.375 C1.475 6.045 -0.175 5.715 -1.875 5.375 C-1.875 6.035 -1.875 6.695 -1.875 7.375 C-0.555 7.375 0.765 7.375 2.125 7.375 C2.125 8.035 2.125 8.695 2.125 9.375 C-0.515 9.705 -3.155 10.035 -5.875 10.375 C-6.0703125 4.3203125 -6.0703125 4.3203125 -5.875 2.375 C-3.875 0.375 -3.875 0.375 0 0 Z " fill="#1E1E1E" transform="translate(174.875,244.625)"/>
<path d="M0 0 C2.57285724 2.172635 4.48996919 3.97993838 6 7 C6.039992 8.99960012 6.04346799 11.00047242 6 13 C5.34 13 4.68 13 4 13 C3.89042969 12.43410156 3.78085938 11.86820313 3.66796875 11.28515625 C3.50941406 10.55167969 3.35085937 9.81820312 3.1875 9.0625 C3.03667969 8.33160156 2.88585937 7.60070312 2.73046875 6.84765625 C2.48941406 6.23792969 2.24835938 5.62820312 2 5 C-2.00211819 3.6659606 -4.07963644 4.59987016 -8 6 C-9.90170054 7.47761659 -9.90170054 7.47761659 -11 9 C-11 7.68 -11 6.36 -11 5 C-11.66 4.67 -12.32 4.34 -13 4 C-5.16961498 -1.01144641 -5.16961498 -1.01144641 0 0 Z " fill="#595959" transform="translate(192,207)"/>
<path d="M0 0 C5.76671034 8.6500655 6.65874474 20.88178149 7 31 C6.34 31 5.68 31 5 31 C4.18507328 27.29219569 3.3734916 23.58366684 2.5625 19.875 C2.33240234 18.82828125 2.10230469 17.7815625 1.86523438 16.703125 C-1.24031181 2.48062362 -1.24031181 2.48062362 0 0 Z " fill="#1E1E1E" transform="translate(185,225)"/>
<path d="M0 0 C1.76462683 3.08809695 2 4.23312136 2 8 C1.34 8 0.68 8 0 8 C-0.33 7.01 -0.66 6.02 -1 5 C-1.99 6.485 -1.99 6.485 -3 8 C-3.33 7.01 -3.66 6.02 -4 5 C-4.66 5 -5.32 5 -6 5 C-6 5.66 -6 6.32 -6 7 C-7.32 7.33 -8.64 7.66 -10 8 C-10.1875 5.125 -10.1875 5.125 -10 2 C-6.3558226 -0.4294516 -4.28758728 -0.16179575 0 0 Z " fill="#979797" transform="translate(89,211)"/>
<path d="M0 0 C2.375 0.8125 2.375 0.8125 4.375 2.8125 C4.375 4.1325 4.375 5.4525 4.375 6.8125 C0.415 6.8125 -3.545 6.8125 -7.625 6.8125 C-6.625 2.8125 -6.625 2.8125 -4.875 1 C-2.625 -0.1875 -2.625 -0.1875 0 0 Z " fill="#353535" transform="translate(140.625,249.1875)"/>
<path d="M0 0 C3.125 0.375 3.125 0.375 5.5 2.125 C7.125 4.375 7.125 4.375 7.125 8.375 C2.375 6.5 2.375 6.5 0.125 5.375 C-0.205 6.365 -0.535 7.355 -0.875 8.375 C-1.205 7.055 -1.535 5.735 -1.875 4.375 C-2.205 6.025 -2.535 7.675 -2.875 9.375 C-3.535 9.375 -4.195 9.375 -4.875 9.375 C-5 6 -5 6 -4.875 2.375 C-2.875 0.375 -2.875 0.375 0 0 Z " fill="#282828" transform="translate(151.875,203.625)"/>
<path d="M0 0 C3.625 0.3125 3.625 0.3125 5.5625 2.0625 C6.625 4.3125 6.625 4.3125 6.625 8.3125 C4.21954362 9.51522819 2.67503047 9.41321472 0 9.375 C-1.22589844 9.36146484 -1.22589844 9.36146484 -2.4765625 9.34765625 C-3.41628906 9.33025391 -3.41628906 9.33025391 -4.375 9.3125 C-4.045 8.6525 -3.715 7.9925 -3.375 7.3125 C-1.725 7.3125 -0.075 7.3125 1.625 7.3125 C1.625 6.6525 1.625 5.9925 1.625 5.3125 C0.305 5.3125 -1.015 5.3125 -2.375 5.3125 C-2.375 4.6525 -2.375 3.9925 -2.375 3.3125 C-0.725 3.3125 0.925 3.3125 2.625 3.3125 C2.625 2.9825 2.625 2.6525 2.625 2.3125 C0.25125139 1.97824265 0.25125139 1.97824265 -2.375 2.3125 C-4.21815671 4.2129467 -4.21815671 4.2129467 -5.375 6.3125 C-4.31367697 0.39941453 -4.31367697 0.39941453 0 0 Z " fill="#DFDFDF" transform="translate(175.375,246.6875)"/>
<path d="M0 0 C2.91320408 0.73225202 4.65067852 2.22417871 6.36328125 4.67578125 C7.7923346 8.02424939 7.46974324 10.95175971 7.16015625 14.54296875 C6.50015625 14.54296875 5.84015625 14.54296875 5.16015625 14.54296875 C5.01320313 13.49496094 5.01320313 13.49496094 4.86328125 12.42578125 C4.71375 11.51570312 4.56421875 10.605625 4.41015625 9.66796875 C4.2709375 8.76304687 4.13171875 7.858125 3.98828125 6.92578125 C3.37771404 4.42174166 3.37771404 4.42174166 1.2734375 3.21484375 C-1.78429011 2.24270115 -3.7880117 2.63391239 -6.83984375 3.54296875 C-8.65347367 5.3499115 -8.65347367 5.3499115 -9.83984375 7.54296875 C-10.49984375 8.53296875 -11.15984375 9.52296875 -11.83984375 10.54296875 C-12.34693804 6.99330874 -11.97022361 5.73222984 -9.90234375 2.73046875 C-6.33221875 0.18037946 -4.30626829 -0.26599654 0 0 Z " fill="#222222" transform="translate(122.83984375,224.45703125)"/>
<path d="M0 0 C3.18882208 0.2311502 4.67962127 0.68844069 7.5625 2.25 C9.93723207 5.06999433 10.31460718 6.98923871 10.5625 10.625 C9.9025 10.625 9.2425 10.625 8.5625 10.625 C8.294375 9.67625 8.02625 8.7275 7.75 7.75 C6.81263412 4.37232727 6.81263412 4.37232727 3.5625 2.625 C-0.52491805 2.13303014 -0.52491805 2.13303014 -4.08203125 3.8515625 C-5.77566182 6.0674365 -5.92490671 7.55121265 -6.125 10.3125 C-6.22361328 11.52486328 -6.22361328 11.52486328 -6.32421875 12.76171875 C-6.36160156 13.37660156 -6.39898437 13.99148437 -6.4375 14.625 C-7.0975 14.625 -7.7575 14.625 -8.4375 14.625 C-8.7516159 10.0703195 -8.74807242 7.38117632 -7 3.125 C-4.22755553 0.42017612 -3.67355551 0.18367778 0 0 Z " fill="#272727" transform="translate(151.4375,200.375)"/>
<path d="M0 0 C5.53026034 3.33902511 5.53026034 3.33902511 6.59765625 7.11328125 C6.875 9.3125 6.875 9.3125 7 13 C6.34 13 5.68 13 5 13 C4.57682292 10.98177083 4.15364583 8.96354167 3.73046875 6.9453125 C3.07691162 4.62953451 3.07691162 4.62953451 0 3 C-3.4103976 2.78685015 -5.74531799 2.915106 -9 4 C-9.80212628 5.87387216 -9.80212628 5.87387216 -10.1875 8.0625 C-10.34605469 8.79597656 -10.50460938 9.52945313 -10.66796875 10.28515625 C-10.83232422 11.13400391 -10.83232422 11.13400391 -11 12 C-11.33 12 -11.66 12 -12 12 C-12.35671933 8.16526716 -12.29771416 6.44657125 -10.125 3.1875 C-6.82949019 -0.20493657 -4.68335942 -0.54038763 0 0 Z " fill="#1F1F1F" transform="translate(88,207)"/>
<path d="M0 0 C0.86625 -0.02835937 1.7325 -0.05671875 2.625 -0.0859375 C5 0.375 5 0.375 6.8125 2.3984375 C7.204375 3.05070312 7.59625 3.70296875 8 4.375 C7.67 4.705 7.34 5.035 7 5.375 C5.03834283 5.28423676 3.079559 5.12733127 1.125 4.9375 C-1.94283639 4.64550111 -4.91770628 4.375 -8 4.375 C-8 3.715 -8 3.055 -8 2.375 C-4.80254858 0.24336572 -3.71242084 0.05524436 0 0 Z " fill="#121212" transform="translate(123,99.625)"/>
<path d="M0 0 C0.33 0 0.66 0 1 0 C0.85775413 2.52108103 0.71129879 5.04180403 0.5625 7.5625 C0.52318359 8.26697266 0.48386719 8.97144531 0.44335938 9.69726562 C0.17481721 14.1798541 -0.30616197 18.56293497 -1 23 C-1.66 23 -2.32 23 -3 23 C-3.29862397 15.50122022 -2.6547456 8.33161007 -1 1 C-0.67 0.67 -0.34 0.34 0 0 Z " fill="#202020" transform="translate(62,233)"/>
<path d="M0 0 C1.134375 0.020625 2.26875 0.04125 3.4375 0.0625 C4.0975 1.7125 4.7575 3.3625 5.4375 5.0625 C1.4775 5.0625 -2.4825 5.0625 -6.5625 5.0625 C-4.06692478 0.07134956 -4.06692478 0.07134956 0 0 Z " fill="#A2A2A2" transform="translate(206.5625,250.9375)"/>
<path d="M0 0 C1.546875 0.185625 1.546875 0.185625 3.125 0.375 C4.115 2.025 5.105 3.675 6.125 5.375 C2.165 5.375 -1.795 5.375 -5.875 5.375 C-3.40988372 0.44476744 -3.40988372 0.44476744 0 0 Z " fill="#5D5D5D" transform="translate(102.875,250.625)"/>
<path d="M0 0 C2.9375 1.6875 2.9375 1.6875 5 4 C5.3125 6.75 5.3125 6.75 5 9 C4.34 9 3.68 9 3 9 C2.67 7.02 2.34 5.04 2 3 C-0.97 2.67 -3.94 2.34 -7 2 C-7.33 4.64 -7.66 7.28 -8 10 C-8.66 9.67 -9.32 9.34 -10 9 C-10.35789474 3.63157895 -10.35789474 3.63157895 -8.9375 1.125 C-5.8385295 -0.67440223 -3.50712967 -0.42327427 0 0 Z " fill="#323232" transform="translate(75,245)"/>
<path d="M0 0 C2.0625 1.25 2.0625 1.25 3 3 C2.6875 5.1875 2.6875 5.1875 2 7 C1.773125 6.360625 1.54625 5.72125 1.3125 5.0625 C0.14749104 2.72806339 0.14749104 2.72806339 -2.625 2.25 C-3.40875 2.1675 -4.1925 2.085 -5 2 C-5.4125 2.825 -5.825 3.65 -6.25 4.5 C-6.8275 5.325 -7.405 6.15 -8 7 C-9.32 7 -10.64 7 -12 7 C-11.39816251 4.97954558 -10.72693904 2.97888961 -10 1 C-6.8181784 -0.5909108 -3.46363796 -0.39584434 0 0 Z " fill="#0F0E0E" transform="translate(52,204)"/>
<path d="M0 0 C0.66 0 1.32 0 2 0 C2 5.28 2 10.56 2 16 C0.35 16 -1.3 16 -3 16 C-2.67 15.01 -2.34 14.02 -2 13 C-1.34 13 -0.68 13 0 13 C-0.33 12.34 -0.66 11.68 -1 11 C-1.09499503 9.50243129 -1.12987198 8.00057068 -1.125 6.5 C-1.12757813 5.7059375 -1.13015625 4.911875 -1.1328125 4.09375 C-1 2 -1 2 0 0 Z " fill="#181818" transform="translate(141,113)"/>
<path d="M0 0 C1.32 0 2.64 0 4 0 C4.79953138 3.28696233 5.09658936 4.71023192 4 8 C3.01 8.33 2.02 8.66 1 9 C0.34 8.34 -0.32 7.68 -1 7 C-0.625 3.375 -0.625 3.375 0 0 Z " fill="#101010" transform="translate(122,108)"/>
<path d="M0 0 C0.99 0.66 1.98 1.32 3 2 C3 2.66 3 3.32 3 4 C2.030625 3.979375 1.06125 3.95875 0.0625 3.9375 C-2.87465895 3.64381501 -2.87465895 3.64381501 -4 5 C-5.66617115 5.04063832 -7.33388095 5.042721 -9 5 C-8.625 3.0625 -8.625 3.0625 -8 1 C-5.22899606 -0.38550197 -3.0665294 -0.1877467 0 0 Z " fill="#1D1D1D" transform="translate(156,101)"/>
<path d="M0 0 C0.99 0 1.98 0 3 0 C3.99 5.61 4.98 11.22 6 17 C5.34 17 4.68 17 4 17 C3.33030409 14.5424552 2.6641232 12.08405076 2 9.625 C1.80921875 8.92632812 1.6184375 8.22765625 1.421875 7.5078125 C0 2.2265625 0 2.2265625 0 0 Z " fill="#282324" transform="translate(213,239)"/>
<path d="M0 0 C2.29013653 3.4352048 2.17842973 4.985331 2 9 C1.34 9 0.68 9 0 9 C-0.33 7.02 -0.66 5.04 -1 3 C-3.31 3 -5.62 3 -8 3 C-8.33 4.65 -8.66 6.3 -9 8 C-9.33 8 -9.66 8 -10 8 C-10.21917317 5.29686424 -10.32851983 3.56041618 -8.9375 1.1875 C-5.91496844 -0.66501934 -3.45067281 -0.37643703 0 0 Z " fill="#1C1C1C" transform="translate(124,228)"/>
<path d="M0 0 C2 0.6875 2 0.6875 4 2.6875 C4 3.6775 4 4.6675 4 5.6875 C1.03 5.6875 -1.94 5.6875 -5 5.6875 C-4.625 3.25 -4.625 3.25 -4 0.6875 C-2 -0.3125 -2 -0.3125 0 0 Z " fill="#636363" transform="translate(78,176.3125)"/>
<path d="M0 0 C1.67542976 0.28604898 3.34385343 0.61781233 5 1 C5.33 2.32 5.66 3.64 6 5 C3.36 5.33 0.72 5.66 -2 6 C-1.125 1.125 -1.125 1.125 0 0 Z " fill="#585858" transform="translate(112,197)"/>
<path d="M0 0 C2.375 -0.125 2.375 -0.125 5 0 C5.66 0.66 6.32 1.32 7 2 C6.625 4.125 6.625 4.125 6 6 C5.67 5.01 5.34 4.02 5 3 C3.35 2.67 1.7 2.34 0 2 C0 2.66 0 3.32 0 4 C1.32 4 2.64 4 4 4 C4 4.66 4 5.32 4 6 C1.36 6.33 -1.28 6.66 -4 7 C-2.68 4.69 -1.36 2.38 0 0 Z " fill="#4E4E4E" transform="translate(173,248)"/>
<path d="M0 0 C2.5 0.125 2.5 0.125 5 1 C6.3125 3.0625 6.3125 3.0625 7 5 C6.01 5.33 5.02 5.66 4 6 C4 5.34 4 4.68 4 4 C3.34 4 2.68 4 2 4 C2 4.99 2 5.98 2 7 C1.34 7 0.68 7 0 7 C-0.66 5.35 -1.32 3.7 -2 2 C-1.34 1.34 -0.68 0.68 0 0 Z " fill="#8D8D8D" transform="translate(47,205)"/>
<path d="M0 0 C2.875 -0.4375 2.875 -0.4375 6 0 C8.375 2 8.375 2 10 4 C9.01 5.485 9.01 5.485 8 7 C7.34 5.68 6.68 4.36 6 3 C3.55519921 3.18828772 3.55519921 3.18828772 1 4 C-0.36020151 5.96758273 -0.36020151 5.96758273 -1 8 C-1.625 5.6875 -1.625 5.6875 -2 3 C-1.34 2.01 -0.68 1.02 0 0 Z " fill="#D3D3D3" transform="translate(110,195)"/>
<path d="M0 0 C0.598125 0.20625 1.19625 0.4125 1.8125 0.625 C2.9375 4.375 2.9375 4.375 1.8125 6.625 C-0.1875 6.625 -0.1875 6.625 -1.8125 5.125 C-2.26625 4.63 -2.72 4.135 -3.1875 3.625 C-3.5175 4.285 -3.8475 4.945 -4.1875 5.625 C-4.5175 4.305 -4.8475 2.985 -5.1875 1.625 C-2.1875 -0.375 -2.1875 -0.375 0 0 Z " fill="#969696" transform="translate(189.1875,212.375)"/>
<path d="M0 0 C2.5625 0.375 2.5625 0.375 4.375 2.375 C4.766875 3.035 5.15875 3.695 5.5625 4.375 C2.5625 4.375 2.5625 4.375 0.5 3.8125 C-1.5049281 3.14486497 -1.5049281 3.14486497 -3.4375 4.375 C-4.16443904 6.35388961 -4.83566251 8.35454558 -5.4375 10.375 C-6.0975 10.045 -6.7575 9.715 -7.4375 9.375 C-3.8599924 0.59384498 -3.8599924 0.59384498 0 0 Z " fill="#E2E2E2" transform="translate(77.4375,173.625)"/>
<path d="M0 0 C2.31 0.33 4.62 0.66 7 1 C7.33 1.99 7.66 2.98 8 4 C4.7 4 1.4 4 -2 4 C-1.34 2.68 -0.68 1.36 0 0 Z " fill="#AAAAAA" transform="translate(33,252)"/>
<path d="M0 0 C1.2684375 0.12375 1.2684375 0.12375 2.5625 0.25 C4.5625 3.25 4.5625 3.25 4.5625 6.25 C3.9025 6.25 3.2425 6.25 2.5625 6.25 C2.2325 5.26 1.9025 4.27 1.5625 3.25 C-0.45258358 2.51676204 -0.45258358 2.51676204 -2.4375 2.25 C-2.4375 2.91 -2.4375 3.57 -2.4375 4.25 C-1.1175 4.58 0.2025 4.91 1.5625 5.25 C-0.51303648 5.8034764 -2.28115964 6.25 -4.4375 6.25 C-3.37788848 0.3464501 -3.37788848 0.3464501 0 0 Z " fill="#3B3B3B" transform="translate(72.4375,247.75)"/>
<path d="M0 0 C1.76462683 3.08809695 2 4.23312136 2 8 C1.34 8 0.68 8 0 8 C-0.66 6.02 -1.32 4.04 -2 2 C-4.45224694 2.10613836 -4.45224694 2.10613836 -7 3 C-8.37466625 5.47636012 -8.37466625 5.47636012 -9 8 C-9.33 8 -9.66 8 -10 8 C-10.1875 5.125 -10.1875 5.125 -10 2 C-6.3558226 -0.4294516 -4.28758728 -0.16179575 0 0 Z " fill="#191919" transform="translate(89,211)"/>
<path d="M0 0 C0.99 0.33 1.98 0.66 3 1 C3 2.98 3 4.96 3 7 C1.68 7.33 0.36 7.66 -1 8 C-1.625 5.125 -1.625 5.125 -2 2 C-1.34 1.34 -0.68 0.68 0 0 Z " fill="#111111" transform="translate(152,109)"/>
<path d="M0 0 C0.99 0 1.98 0 3 0 C3.6875 3.3125 3.6875 3.3125 4 7 C2.6875 8.9375 2.6875 8.9375 1 10 C0.34 10 -0.32 10 -1 10 C-1.08004482 6.4780279 -1.04005702 3.38018531 0 0 Z " fill="#3C3B3B" transform="translate(174,173)"/>
<path d="M0 0 C5.625387 3.30185759 5.625387 3.30185759 7.375 6.5625 C8 9 8 9 8 12 C7.34 12 6.68 12 6 12 C5.4121875 10.3603125 5.4121875 10.3603125 4.8125 8.6875 C3.2974477 5.08925078 1.60153162 3.65475777 -2 2 C-1.34 1.34 -0.68 0.68 0 0 Z " fill="#4A4A4A" transform="translate(78,171)"/>
<path d="M0 0 C0.66 0 1.32 0 2 0 C1.33501617 4.38889325 -0.18757677 7.9811485 -2 12 C-2.66 12 -3.32 12 -4 12 C-3.53680089 7.27536912 -2.90108294 3.82942948 0 0 Z " fill="#1A1A1A" transform="translate(69,208)"/>
<path d="M0 0 C1.010625 0.0825 2.02125 0.165 3.0625 0.25 C3.7225 1.24 4.3825 2.23 5.0625 3.25 C4.4025 3.91 3.7425 4.57 3.0625 5.25 C2.0725 4.59 1.0825 3.93 0.0625 3.25 C-0.2675 4.24 -0.5975 5.23 -0.9375 6.25 C-1.2675 4.93 -1.5975 3.61 -1.9375 2.25 C-2.2675 3.9 -2.5975 5.55 -2.9375 7.25 C-3.2675 7.25 -3.5975 7.25 -3.9375 7.25 C-3.98004356 5.25045254 -3.97830783 3.24958364 -3.9375 1.25 C-2.9375 0.25 -2.9375 0.25 0 0 Z " fill="#878787" transform="translate(151.9375,205.75)"/>
<path d="M0 0 C1.65 0 3.3 0 5 0 C5.33 1.65 5.66 3.3 6 5 C5.01 5.33 4.02 5.66 3 6 C2.01 5.01 1.02 4.02 0 3 C-0.33 3.66 -0.66 4.32 -1 5 C-0.67 3.35 -0.34 1.7 0 0 Z " fill="#949494" transform="translate(118,230)"/>
<path d="M0 0 C7.26153846 -0.61538462 7.26153846 -0.61538462 11 2.5 C11.66 3.325 12.32 4.15 13 5 C12.01 5.495 12.01 5.495 11 6 C10.608125 5.505 10.21625 5.01 9.8125 4.5 C7.41854121 2.51879272 6.03802209 2.77214834 3 3 C2.01 3 1.02 3 0 3 C0 2.01 0 1.02 0 0 Z " fill="#383838" transform="translate(30,250)"/>
<path d="M0 0 C1.67542976 0.28604898 3.34385343 0.61781233 5 1 C4.67 2.32 4.34 3.64 4 5 C2.68 5 1.36 5 0 5 C-0.5625 3.0625 -0.5625 3.0625 -1 1 C-0.67 0.67 -0.34 0.34 0 0 Z " fill="#2D2D2D" transform="translate(121,179)"/>
<path d="M0 0 C0.33 0 0.66 0 1 0 C1 3.96 1 7.92 1 12 C0.01 12 -0.98 12 -2 12 C-2.28571429 3.42857143 -2.28571429 3.42857143 0 0 Z " fill="#100E0E" transform="translate(30,244)"/>
<path d="M0 0 C3.42146435 0.14559423 5.33818327 0.38230438 7.875 2.75 C9.18152386 5.36304771 9.24038873 7.11533524 9 10 C7.87791213 8.31686819 6.77563716 6.61858318 5.75 4.875 C3.37708732 2.33259355 1.38328859 2.30073676 -2 2 C-1.34 1.34 -0.68 0.68 0 0 Z " fill="#323232" transform="translate(48,229)"/>
<path d="M0 0 C1.8125 2.0625 1.8125 2.0625 3 4 C1.1128125 3.7525 1.1128125 3.7525 -0.8125 3.5 C-3.26456585 3.17841759 -5.51650694 3 -8 3 C-7.67 2.01 -7.34 1.02 -7 0 C-4.24438552 -1.37780724 -2.90228766 -0.92023755 0 0 Z " fill="#E8E8E8" transform="translate(153,180)"/>
<path d="M0 0 C2.375 2 2.375 2 4 4 C3.34 4.66 2.68 5.32 2 6 C1.67 4.68 1.34 3.36 1 2 C-2.3 2.66 -5.6 3.32 -9 4 C-9 3.34 -9 2.68 -9 2 C-5.50875983 -0.32749345 -4.10777749 -0.50299316 0 0 Z " fill="#C1C1C1" transform="translate(88,209)"/>
<path d="M0 0 C-5.1468192 3.16727335 -9.158256 3.35050464 -15 3 C-12.35005657 1.59499644 -9.84288215 0.55703916 -6.9375 -0.1875 C-6.26589844 -0.36667969 -5.59429687 -0.54585937 -4.90234375 -0.73046875 C-3 -1 -3 -1 0 0 Z " fill="#C4C4C4" transform="translate(154,173)"/>
<path d="M0 0 C0.66 0 1.32 0 2 0 C2.680625 1.175625 2.680625 1.175625 3.375 2.375 C5.07651113 5.1235949 6.04519084 5.87921032 9 7 C9 7.66 9 8.32 9 9 C5.45529741 8.70460812 4.21784705 8.22373481 1.6875 5.625 C0 3 0 3 0 0 Z " fill="#1F1F1F" transform="translate(127,134)"/>
<path d="M0 0 C1.134375 0.020625 2.26875 0.04125 3.4375 0.0625 C4.0975 1.7125 4.7575 3.3625 5.4375 5.0625 C4.7775 5.0625 4.1175 5.0625 3.4375 5.0625 C2.7775 4.0725 2.1175 3.0825 1.4375 2.0625 C-1.03516765 2.40694881 -1.03516765 2.40694881 -3.5625 3.0625 C-3.8925 3.7225 -4.2225 4.3825 -4.5625 5.0625 C-5.2225 5.0625 -5.8825 5.0625 -6.5625 5.0625 C-4.14811644 0.07277397 -4.14811644 0.07277397 0 0 Z " fill="#1F1F1F" transform="translate(206.5625,250.9375)"/>
<path d="M0 0 C0.33 0 0.66 0 1 0 C1.14285714 7.42857143 1.14285714 7.42857143 0 11 C-0.66 11 -1.32 11 -2 11 C-2.28571429 3.57142857 -2.28571429 3.57142857 0 0 Z " fill="#121212" transform="translate(62,233)"/>
<path d="M0 0 C2 1 2 1 3 3 C-2.625 7 -2.625 7 -6 7 C-4.02 4.69 -2.04 2.38 0 0 Z " fill="#D5D5D5" transform="translate(109,80)"/>
<path d="M0 0 C2.3125 0.1875 2.3125 0.1875 5 1 C6.875 3.4375 6.875 3.4375 8 6 C7.67 6.66 7.34 7.32 7 8 C6.34 7.67 5.68 7.34 5 7 C4.375 4.9375 4.375 4.9375 4 3 C2.35 3.33 0.7 3.66 -1 4 C-0.67 2.68 -0.34 1.36 0 0 Z " fill="#E1E1E1" transform="translate(48,231)"/>
<path d="M0 0 C2.875 0.1875 2.875 0.1875 6 1 C7.375 3.5625 7.375 3.5625 8 6 C7.1646875 5.2265625 7.1646875 5.2265625 6.3125 4.4375 C4.05914993 2.70523302 4.05914993 2.70523302 1.25 3.3125 C0.5075 3.539375 -0.235 3.76625 -1 4 C-0.67 2.68 -0.34 1.36 0 0 Z " fill="#CECECE" transform="translate(151,231)"/>
<path d="M0 0 C0.66 0.33 1.32 0.66 2 1 C0.72992786 1.9593419 -0.54108919 2.91743294 -1.8125 3.875 C-2.87404297 4.67550781 -2.87404297 4.67550781 -3.95703125 5.4921875 C-5.60456297 6.70814781 -7.29624211 7.86416141 -9 9 C-9.33 8.01 -9.66 7.02 -10 6 C-8.33333333 5 -6.66666667 4 -5 3 C-4.113125 2.4225 -3.22625 1.845 -2.3125 1.25 C-1.549375 0.8375 -0.78625 0.425 0 0 Z " fill="#3C3C3C" transform="translate(112,82)"/>
<path d="M0 0 C0.763125 0.0825 1.52625 0.165 2.3125 0.25 C2.6425 1.57 2.9725 2.89 3.3125 4.25 C0.3425 3.755 0.3425 3.755 -2.6875 3.25 C-3.0175 3.91 -3.3475 4.57 -3.6875 5.25 C-4.3475 4.92 -5.0075 4.59 -5.6875 4.25 C-3.34903846 0.31153846 -3.34903846 0.31153846 0 0 Z " fill="#EDEDED" transform="translate(139.6875,250.75)"/>
<path d="M0 0 C3.375 -0.1875 3.375 -0.1875 7 0 C9 3 9 3 8.625 5.1875 C8.41875 5.785625 8.2125 6.38375 8 7 C7.608125 6.195625 7.21625 5.39125 6.8125 4.5625 C5.23051809 1.76935262 5.23051809 1.76935262 2.3125 1.1875 C1.1678125 1.0946875 1.1678125 1.0946875 0 1 C0 0.67 0 0.34 0 0 Z " fill="#1B1B1B" transform="translate(185,211)"/>
<path d="M0 0 C3.125 0.375 3.125 0.375 6 1 C6 1.33 6 1.66 6 2 C4.02 2.66 2.04 3.32 0 4 C-0.33 5.65 -0.66 7.3 -1 9 C-1.33 9 -1.66 9 -2 9 C-2.125 5.625 -2.125 5.625 -2 2 C-1.34 1.34 -0.68 0.68 0 0 Z " fill="#323232" transform="translate(171,245)"/>
<path d="M0 0 C0.66 0 1.32 0 2 0 C2.99 2.97 3.98 5.94 5 9 C4.01 8.67 3.02 8.34 2 8 C1.26953125 6.15234375 1.26953125 6.15234375 0.8125 3.9375 C0.65394531 3.20402344 0.49539062 2.47054687 0.33203125 1.71484375 C0.22246094 1.14894531 0.11289063 0.58304688 0 0 Z " fill="#120F10" transform="translate(207,217)"/>
<path d="M0 0 C3.35595828 0.59927826 5.37801226 1.84622436 8 4 C7.01 4.495 7.01 4.495 6 5 C3.64018187 4.06421005 1.30368736 3.06652192 -1 2 C-0.67 1.34 -0.34 0.68 0 0 Z " fill="#1A1819" transform="translate(167,169)"/>
<path d="M0 0 C0.33 0.66 0.66 1.32 1 2 C-0.28062485 3.7074998 -1.61767557 5.37373596 -3 7 C-3.66 7 -4.32 7 -5 7 C-3.75023244 3.34683329 -3.32901247 2.21934164 0 0 Z " fill="#110F10" transform="translate(51,193)"/>
</svg>
