<?xml version="1.0" encoding="UTF-8"?>
<svg version="1.1" xmlns="http://www.w3.org/2000/svg" width="256" height="256">
<path d="M0 0 C84.48 0 168.96 0 256 0 C256 84.48 256 168.96 256 256 C171.52 256 87.04 256 0 256 C0 171.52 0 87.04 0 0 Z " fill="#F6D57B" transform="translate(0,0)"/>
<path d="M0 0 C2.80970552 1.54197467 5.52223549 3.18294386 8.19140625 4.95703125 C11.03896348 6.73819559 14.00247053 7.92960748 17.12109375 9.1640625 C17.34776392 10.97436072 17.5513313 12.78755406 17.74609375 14.6015625 C17.86210937 15.61089844 17.978125 16.62023437 18.09765625 17.66015625 C18.1173009 20.59703139 17.87575182 22.48617924 17.171875 25.26171875 C15.46634666 32.24952463 15.72873374 39.41529372 15.64257812 46.5703125 C15.39355912 56.96837432 13.61077795 65.56605642 6.12109375 73.1640625 C3.54409603 75.11242896 0.92928364 76.90061266 -1.8046875 78.62109375 C-4.16553162 80.06987911 -4.16553162 80.06987911 -4.87890625 83.1640625 C-3.99203125 83.0815625 -3.10515625 82.9990625 -2.19140625 82.9140625 C12.14880877 82.99993205 31.26424013 92.03488178 42.12109375 101.1640625 C42.90613281 101.81503906 43.69117188 102.46601563 44.5 103.13671875 C49.83102864 107.94855156 49.83102864 107.94855156 50.61328125 111.2265625 C50.62109375 113.1640625 50.62109375 113.1640625 50.12109375 116.1640625 C50.67796875 116.4115625 51.23484375 116.6590625 51.80859375 116.9140625 C63.50819293 123.23817017 69.0904206 138.44958795 72.90087891 150.66357422 C73.64201153 153.25876141 74.33375057 155.8601961 74.99609375 158.4765625 C75.19920166 159.27562012 75.40230957 160.07467773 75.61157227 160.89794922 C77.07928213 167.08760751 77.5323265 172.68762274 78.12109375 179.1640625 C11.46109375 179.1640625 -55.19890625 179.1640625 -123.87890625 179.1640625 C-121.13767417 157.23420585 -114.86783681 134.88307421 -101.2265625 117.046875 C-99.65626923 114.853016 -98.99951368 112.82723991 -98.51855469 110.18261719 C-96.25195772 103.02986003 -86.26494937 98.9108335 -80.1640625 95.71875 C-78.41416016 94.82542969 -78.41416016 94.82542969 -76.62890625 93.9140625 C-75.47777344 93.30304688 -74.32664063 92.69203125 -73.140625 92.0625 C-65.22838948 87.97703904 -56.95128962 84.1640625 -47.87890625 84.1640625 C-48.42753895 80.24928796 -48.97897013 76.33491871 -49.53295898 72.42089844 C-49.81315858 70.43705636 -50.09116253 68.45290457 -50.36914062 66.46875 C-50.54638672 65.21835938 -50.72363281 63.96796875 -50.90625 62.6796875 C-51.06859131 61.52758789 -51.23093262 60.37548828 -51.39819336 59.18847656 C-51.77929481 56.7907697 -52.23443176 54.50122292 -52.87890625 52.1640625 C-53.86890625 52.8240625 -54.85890625 53.4840625 -55.87890625 54.1640625 C-58.75390625 54.2265625 -58.75390625 54.2265625 -61.87890625 53.1640625 C-67.12559905 48.07127268 -67.85695717 42.6413788 -68.06640625 35.6015625 C-68.01255698 32.04751053 -67.76230074 29.27166341 -65.87890625 26.1640625 C-63.40092732 24.21707906 -62.0458037 24.16058547 -58.87890625 24.2265625 C-55.15994703 25.38873726 -54.10842642 27.05865941 -51.87890625 30.1640625 C-51.21890625 30.1640625 -50.55890625 30.1640625 -49.87890625 30.1640625 C-49.50765625 29.1121875 -49.50765625 29.1121875 -49.12890625 28.0390625 C-46.82066418 22.73010574 -44.10666236 19.20177997 -39.48828125 15.7265625 C-37.40878886 13.70763785 -36.25671831 11.42391322 -34.81640625 8.9140625 C-32.66732212 5.69280837 -31.74670078 4.36750572 -27.9296875 3.47265625 C-25.69529514 3.39068446 -23.45847969 3.36095813 -21.22265625 3.37890625 C-17.50533061 3.14005939 -15.38176537 2.17298211 -12.12890625 0.4140625 C-7.36478743 -1.97836872 -4.87109928 -2.13599006 0 0 Z " fill="#161511" transform="translate(145.87890625,76.8359375)"/>
<path d="M0 0 C2.80970552 1.54197467 5.52223549 3.18294386 8.19140625 4.95703125 C11.03896348 6.73819559 14.00247053 7.92960748 17.12109375 9.1640625 C17.20410872 10.80898868 17.26116841 12.45522582 17.30859375 14.1015625 C17.36080078 15.47634766 17.36080078 15.47634766 17.4140625 16.87890625 C17.15407037 19.79428469 16.65812109 21.58565098 15.640625 24.265625 C13.61094457 29.98672304 13.67174991 35.58433396 13.62109375 41.6015625 C13.51115407 54.61370926 11.84721977 64.26496351 2.55078125 73.76953125 C-2.03998986 77.44420678 -6.77462304 77.64384462 -12.44140625 77.7265625 C-13.16175049 77.74138672 -13.88209473 77.75621094 -14.62426758 77.77148438 C-20.07676108 77.66666473 -23.34143215 76.16320766 -27.87890625 73.1640625 C-27.87890625 74.1540625 -27.87890625 75.1440625 -27.87890625 76.1640625 C-26.82703125 76.5353125 -26.82703125 76.5353125 -25.75390625 76.9140625 C-22.87890625 78.1640625 -22.87890625 78.1640625 -20.31640625 79.9765625 C-15.64048741 83.24600443 -10.15456166 85.08111765 -4.87890625 87.1640625 C-5.20890625 88.8140625 -5.53890625 90.4640625 -5.87890625 92.1640625 C-12.18763381 94.64906151 -17.67731725 95.63780832 -24.44140625 95.5390625 C-25.23998047 95.55066406 -26.03855469 95.56226563 -26.86132812 95.57421875 C-32.190482 95.54815932 -37.33526874 95.17668465 -41.87890625 92.1640625 C-46.99749464 86.33639316 -47.19284663 77.49908708 -48.12890625 70.1640625 C-48.30164063 68.93171875 -48.474375 67.699375 -48.65234375 66.4296875 C-49.48218713 60.29148092 -50.09567546 54.35746844 -49.87890625 48.1640625 C-53.15664129 48.91556273 -53.15664129 48.91556273 -54.87890625 52.1640625 C-58.19140625 51.9765625 -58.19140625 51.9765625 -61.87890625 51.1640625 C-66.5723103 45.37553084 -66.44603528 38.2995768 -65.87890625 31.1640625 C-64.69140625 27.5390625 -64.69140625 27.5390625 -62.87890625 25.1640625 C-60.44140625 24.0390625 -60.44140625 24.0390625 -57.87890625 24.1640625 C-55.69140625 25.9765625 -55.69140625 25.9765625 -53.87890625 28.1640625 C-53.21890625 28.8240625 -52.55890625 29.4840625 -51.87890625 30.1640625 C-51.21890625 30.1640625 -50.55890625 30.1640625 -49.87890625 30.1640625 C-49.63140625 29.4628125 -49.38390625 28.7615625 -49.12890625 28.0390625 C-46.82066418 22.73010574 -44.10666236 19.20177997 -39.48828125 15.7265625 C-37.40878886 13.70763785 -36.25671831 11.42391322 -34.81640625 8.9140625 C-32.66732212 5.69280837 -31.74670078 4.36750572 -27.9296875 3.47265625 C-25.69529514 3.39068446 -23.45847969 3.36095813 -21.22265625 3.37890625 C-17.50533061 3.14005939 -15.38176537 2.17298211 -12.12890625 0.4140625 C-7.36478743 -1.97836872 -4.87109928 -2.13599006 0 0 Z " fill="#FBFBFB" transform="translate(145.87890625,76.8359375)"/>
<path d="M0 0 C3 0.25 3 0.25 6 1.25 C6.66 0.92 7.32 0.59 8 0.25 C15.22164526 -0.19440894 20.18612665 1.93320547 25.859375 6.27734375 C28.9007404 9.08006187 30.41300866 11.4267936 32 15.25 C32 16.57 32 17.89 32 19.25 C32.7425 19.3325 33.485 19.415 34.25 19.5 C37.6751021 20.43411875 38.94355125 21.3557388 41 24.25 C41.74537037 30.21296296 41.74537037 30.21296296 39.5625 33.25 C39.046875 33.91 38.53125 34.57 38 35.25 C37.855625 36.425625 37.71125 37.60125 37.5625 38.8125 C37 42.25 37 42.25 35.3125 44.1875 C32.42775529 45.51292324 30.14610761 45.25 27 45.25 C26.505 45.745 26.01 46.24 25.5 46.75 C24 48.25 24 48.25 21.359375 48.5546875 C17.30947744 48.18737121 14.27718952 46.75816051 10.75 44.875 C10.12609375 44.55789062 9.5021875 44.24078125 8.859375 43.9140625 C6.23829036 42.55832906 4.09815161 41.34815161 2 39.25 C-2.01170356 37.57237851 -4.37316269 36.63362065 -8.515625 38.203125 C-10.35047191 39.13664361 -12.17830072 40.08404649 -14 41.04296875 C-17.44647259 42.42963546 -19.99242913 42.43059713 -23.6875 42.375 C-27.88310298 42.51468714 -29.42445114 42.6987701 -32.49609375 45.640625 C-34.49198142 48.43852992 -36.24320562 51.29893161 -38 54.25 C-39.5859375 56.1015625 -39.5859375 56.1015625 -41 57.25 C-41.66 57.25 -42.32 57.25 -43 57.25 C-43.2475 57.765625 -43.495 58.28125 -43.75 58.8125 C-45.39581616 62.02184151 -47.1976096 65.12585664 -49 68.25 C-49.66 68.25 -50.32 68.25 -51 68.25 C-51.495 69.24 -51.495 69.24 -52 70.25 C-52.37125 69.280625 -52.7425 68.31125 -53.125 67.3125 C-54.70228827 63.98175011 -54.70228827 63.98175011 -58 63.3125 C-61.05248736 63.08087406 -61.05248736 63.08087406 -64 64.25 C-67.68796635 58.56934215 -66.9572287 49.76717057 -66 43.25 C-64.05212573 38.16217699 -61.1211482 33.8404798 -57 30.25 C-56.34 30.25 -55.68 30.25 -55 30.25 C-55.04640625 29.64671875 -55.0928125 29.0434375 -55.140625 28.421875 C-55.43538634 21.8950168 -55.43538634 21.8950168 -53.3125 18.75 C-50.81876259 17.1324406 -48.93785297 16.57642811 -46 16.25 C-45.896875 15.651875 -45.79375 15.05375 -45.6875 14.4375 C-44.87327508 11.84678434 -44.14222119 10.90513779 -42 9.25 C-39.625 9.02734375 -39.625 9.02734375 -37 9.1875 C-32.75114389 9.44437765 -32.75114389 9.44437765 -29 7.25 C-23.5733968 6.81237071 -20.49185344 6.88110992 -16 10.25 C-15.278125 9.46625 -14.55625 8.6825 -13.8125 7.875 C-11.10899475 5.35172843 -9.38113981 4.49568309 -6 3.25 C-5.525625 2.71375 -5.05125 2.1775 -4.5625 1.625 C-3 0.25 -3 0.25 0 0 Z " fill="#020201" transform="translate(145,38.75)"/>
<path d="M0 0 C6.64233594 23.63682312 10.16677913 46.29625261 10.1875 70.875 C10.18858765 71.58103363 10.18967529 72.28706726 10.1907959 73.01449585 C10.1904404 75.04883349 10.18126952 77.08289669 10.16796875 79.1171875 C10.16047607 80.29909668 10.1529834 81.48100586 10.14526367 82.69873047 C10 86 10 86 9 92 C-0.24 92 -9.48 92 -19 92 C-22.125 85.25 -22.125 85.25 -23.15478516 83.01464844 C-25.56777776 77.81558872 -28.21778799 72.7765805 -31.03125 67.78125 C-32.76376677 62.80725023 -31.44387686 58.67853191 -29.29296875 54.0625 C-28.60143416 52.7030506 -27.89941367 51.34888906 -27.1875 50 C-26.84396484 49.32710937 -26.50042969 48.65421875 -26.14648438 47.9609375 C-24.45192155 44.66719063 -22.68253021 41.44038504 -20.80078125 38.25 C-19.38287748 35.69100664 -18.45497116 33.84356974 -18 31 C-18.74121094 30.97421875 -19.48242188 30.9484375 -20.24609375 30.921875 C-29.82872889 30.40579673 -41.30275968 29.34862016 -50 25 C-49.63908725 22.40030034 -49.23931855 21.22768501 -47.3125 19.39453125 C-35.10639614 11.04407168 -22.15779235 4.33836592 -8 0 C-7.29488281 -0.226875 -6.58976562 -0.45375 -5.86328125 -0.6875 C-3.64708869 -1.05918848 -2.12191399 -0.68204378 0 0 Z " fill="#FCFCFC" transform="translate(100,164)"/>
<path d="M0 0 C0.49297529 2.62300058 0.96909587 5.24757965 1.4375 7.875 C1.57220703 8.58269531 1.70691406 9.29039062 1.84570312 10.01953125 C4.64453865 25.993373 4.13468643 42.47158378 4.0625 58.625 C4.0574676 60.61458219 4.05290782 62.60416563 4.04882812 64.59375 C4.03884031 69.39589109 4.0192428 74.19785214 4 79 C-7.55 79 -19.1 79 -31 79 C-31.04898438 76.12796875 -31.09796875 73.2559375 -31.1484375 70.296875 C-31.20281864 67.44022458 -31.25997808 64.58364187 -31.31738281 61.72705078 C-31.35510022 59.77821128 -31.39003926 57.82931555 -31.421875 55.88037109 C-31.76819531 31.7437468 -31.76819531 31.7437468 -35.6328125 7.97265625 C-36.07061067 5.62065543 -36.0581151 3.3868702 -36 1 C-34.515 1.2475 -34.515 1.2475 -33 1.5 C-21.44656827 2.92354784 -11.17001735 0 0 0 Z " fill="#FCFCFC" transform="translate(143,177)"/>
<path d="M0 0 C15.74060408 13.83108818 20.85555849 36.74099498 24.5078125 56.59375 C24.5078125 57.91375 24.5078125 59.23375 24.5078125 60.59375 C5.0378125 60.59375 -14.4321875 60.59375 -34.4921875 60.59375 C-33.68102618 55.7267821 -33.25167792 53.61062185 -30.9921875 49.59375 C-30.20134766 48.18222656 -30.20134766 48.18222656 -29.39453125 46.7421875 C-27.99581398 44.42726733 -26.56879021 42.18503555 -25.05859375 39.9453125 C-24.43791016 39.0171875 -24.43791016 39.0171875 -23.8046875 38.0703125 C-22.98417505 36.85492844 -22.14986688 35.64872221 -21.30078125 34.453125 C-19.58065134 31.91388561 -18.48500935 30.1751803 -18.5234375 27.0625 C-19.72639313 23.99690338 -21.22935839 21.28967023 -22.9296875 18.46875 C-23.54714844 17.43492187 -24.16460937 16.40109375 -24.80078125 15.3359375 C-25.99534095 13.39926104 -27.229993 11.48704175 -28.4921875 9.59375 C-28.5546875 7.65625 -28.5546875 7.65625 -27.4921875 5.59375 C-20.73960519 0.64185631 -7.84009959 -4.42388065 0 0 Z " fill="#FCFCFC" transform="translate(197.4921875,195.40625)"/>
<path d="M0 0 C5.52328189 0.43604857 10.99519858 1.49191413 16.4375 2.5 C18.02884766 2.78617188 18.02884766 2.78617188 19.65234375 3.078125 C22.24858107 3.54591551 24.84349595 4.02000712 27.4375 4.5 C27.05859619 5.17023193 26.67969238 5.84046387 26.28930664 6.53100586 C23.00185304 12.38335011 19.94338612 18.34326859 17 24.375 C16.63390625 25.10001709 16.2678125 25.82503418 15.890625 26.57202148 C15.55675781 27.26755127 15.22289062 27.96308105 14.87890625 28.6796875 C14.57670166 29.29569824 14.27449707 29.91170898 13.96313477 30.54638672 C12.74543155 35.07219311 15.03703318 39.12786905 16.94140625 43.16796875 C17.43447266 44.22564453 17.92753906 45.28332031 18.43554688 46.37304688 C18.95181641 47.46681641 19.46808594 48.56058594 20 49.6875 C21.02552436 51.86689812 22.04783357 54.04781301 23.06640625 56.23046875 C23.52088135 57.19364014 23.97535645 58.15681152 24.44360352 59.14916992 C25.4375 61.5 25.4375 61.5 25.4375 63.5 C7.9475 63.5 -9.5425 63.5 -27.5625 63.5 C-25.01018334 43.08146672 -19.52272592 24.10083339 -8.5625 6.5 C-8.20833008 5.92330566 -7.85416016 5.34661133 -7.48925781 4.75244141 C-5.21327621 1.50008841 -3.9566966 0.55532584 0 0 Z " fill="#FCFCFB" transform="translate(52.5625,192.5)"/>
<path d="M0 0 C17.34310612 1.41000863 34.89455444 9.60575066 47.75 21.1875 C50.26240643 24.32800804 50.23175233 25.16964893 50 29 C49.03320312 29.21914062 48.06640625 29.43828125 47.0703125 29.6640625 C39.19434281 31.54440721 31.21590359 33.47475237 25 39 C24.16767834 40.86650461 24.16767834 40.86650461 24 43 C24.76597233 44.91398312 24.76597233 44.91398312 26.08984375 46.71484375 C26.77143555 47.74448242 26.77143555 47.74448242 27.46679688 48.79492188 C27.95212891 49.50197266 28.43746094 50.20902344 28.9375 50.9375 C33.81108169 58.05540847 33.81108169 58.05540847 34.5390625 61.6953125 C33.8191813 64.77306548 32.42762112 66.48666773 30.4375 68.9375 C24.59513545 76.58549764 20.46208387 85.0254719 17 94 C13.7 94 10.4 94 7 94 C6.98541748 92.89003662 6.97083496 91.78007324 6.95581055 90.63647461 C6.56146722 62.65569316 6.56146722 62.65569316 4.625 34.75 C4.51115967 33.55366943 4.39731934 32.35733887 4.2800293 31.12475586 C3.52830908 24.03230821 2.27086158 17.196793 0.59912109 10.26269531 C-0.04104266 6.77648974 -0.10007449 3.53671061 0 0 Z " fill="#FCFCFC" transform="translate(143,162)"/>
<path d="M0 0 C1 2 1 2 0.08984375 5.8125 C-1.60509874 12.9161986 -1.39100921 20.13905033 -1.47851562 27.40625 C-1.72753463 37.80431182 -3.5103158 46.40199392 -11 54 C-13.57699772 55.94836646 -16.19181011 57.73655016 -18.92578125 59.45703125 C-21.28662537 60.90581661 -21.28662537 60.90581661 -22 64 C-21.113125 63.9175 -20.22625 63.835 -19.3125 63.75 C-4.97228498 63.83586955 14.14314638 72.87081928 25 82 C25.78503906 82.65097656 26.57007813 83.30195313 27.37890625 83.97265625 C32.70993489 88.78448906 32.70993489 88.78448906 33.4921875 92.0625 C33.5 94 33.5 94 33 97 C33.556875 97.2475 34.11375 97.495 34.6875 97.75 C46.38709918 104.07410767 51.96932685 119.28552545 55.77978516 131.49951172 C58.44659004 140.83772949 60.75394979 150.24746438 61 160 C60.34 160 59.68 160 59 160 C58.87471924 159.41210693 58.74943848 158.82421387 58.62036133 158.21850586 C52.63611014 126.10414374 52.63611014 126.10414374 34.41015625 100.16796875 C27.99460725 97.05897499 21.34659497 99.75219487 15 101.9375 C11.9869843 103.0892778 9.70366262 104.19755825 7 106 C7.56711144 110.27275742 9.06905306 113.05017156 11.4375 116.625 C12.05496094 117.56601563 12.67242187 118.50703125 13.30859375 119.4765625 C13.86675781 120.30929688 14.42492187 121.14203125 15 122 C17 125 17 125 16.953125 127.6796875 C15.67821625 132.12096797 13.37042427 135.35970952 10.75 139.125 C6.21116017 145.8567213 2.6843538 152.302875 0 160 C-0.99 160 -1.98 160 -3 160 C-0.91009556 151.38372729 2.6176388 144.44977302 7.98046875 137.39453125 C8.62628906 136.54246094 9.27210938 135.69039062 9.9375 134.8125 C10.84822266 133.67748047 10.84822266 133.67748047 11.77734375 132.51953125 C13.53815186 128.89102892 13.03861578 126.86480931 12 123 C10.65598889 120.45535272 9.05443818 118.14590123 7.375 115.8125 C3.0025438 109.72879979 3.0025438 109.72879979 2.9921875 106.76171875 C6.86856134 99.98557688 16.12646063 97.70835207 23.08203125 95.6640625 C26 95 26 95 30 95 C28.58955076 87.77144764 23.53256481 84.55491772 17.8828125 80.46875 C12.59514224 77.02901986 6.96950721 74.62246608 1.125 72.3125 C0.40650879 72.02697266 -0.31198242 71.74144531 -1.05224609 71.44726562 C-7.23754061 69.09175102 -13.56167222 67.50827958 -20 66 C-19.85900879 66.72251953 -19.71801758 67.44503906 -19.57275391 68.18945312 C-13.63642532 98.97473783 -12.71428494 128.72079489 -13 160 C-13.99 160 -14.98 160 -16 160 C-16.02505615 158.79166504 -16.0501123 157.58333008 -16.07592773 156.33837891 C-16.17160373 151.76457854 -16.27140222 147.19087508 -16.37231445 142.6171875 C-16.41506891 140.65464579 -16.45677194 138.69208084 -16.49731445 136.72949219 C-16.96973997 112.75282802 -16.96973997 112.75282802 -19.0625 88.875 C-19.15337891 88.09769531 -19.24425781 87.32039063 -19.33789062 86.51953125 C-19.55374226 84.67911201 -19.77604792 82.8394511 -20 81 C-20.75023437 81.2165625 -21.50046875 81.433125 -22.2734375 81.65625 C-30.60406819 83.92251729 -38.50670326 85.26487913 -47 83 C-47 82.67 -47 82.34 -47 82 C-45.68644531 81.87882812 -44.37289062 81.75765625 -43.01953125 81.6328125 C-41.28381613 81.46393211 -39.54814108 81.29463961 -37.8125 81.125 C-36.94818359 81.04636719 -36.08386719 80.96773438 -35.19335938 80.88671875 C-30.80953229 80.45001567 -27.00904503 79.97547146 -23 78 C-23 77.34 -23 76.68 -23 76 C-26.465 76.99 -26.465 76.99 -30 78 C-30.66 77.01 -31.32 76.02 -32 75 C-29.03 74.01 -26.06 73.02 -23 72 C-23 70.68 -23 69.36 -23 68 C-23.83402344 67.70867187 -24.66804688 67.41734375 -25.52734375 67.1171875 C-39.828624 61.90778645 -39.828624 61.90778645 -45 57 C-45.734375 54.81640625 -45.734375 54.81640625 -46 53 C-45.030625 53.66 -44.06125 54.32 -43.0625 55 C-36.41984244 58.27988617 -28.21163307 58.31986825 -21 57 C-14.19423459 54.16078498 -9.83264103 49.72752245 -7 43 C-4.56818271 35.14335952 -4.6238264 27.45985111 -4.52148438 19.28710938 C-4.14499767 4.14499767 -4.14499767 4.14499767 0 0 Z " fill="#161514" transform="translate(163,96)"/>
<path d="M0 0 C0.99 0.33 1.98 0.66 3 1 C3.2475 1.639375 3.495 2.27875 3.75 2.9375 C5.3438942 5.56742544 6.88173808 5.83614341 9.77148438 6.59155273 C14.26428137 7.41500249 18.81884783 7.44040703 23.375 7.5625 C25.36210849 7.62213863 27.34910404 7.68571748 29.3359375 7.75390625 C30.64377197 7.78979858 30.64377197 7.78979858 31.97802734 7.82641602 C34 8 34 8 35 9 C36.98 8.34 38.96 7.68 41 7 C40.8125 8.875 40.8125 8.875 40 11 C36.03424799 13.01247117 32.06580343 13.55213787 27.6875 14.125 C26.43324219 14.29257813 25.17898437 14.46015625 23.88671875 14.6328125 C22.93410156 14.75398437 21.98148438 14.87515625 21 15 C21 15.33 21 15.66 21 16 C19.0412957 15.85923685 17.08303907 15.7122324 15.125 15.5625 C14.03445312 15.48128906 12.94390625 15.40007812 11.8203125 15.31640625 C9 15 9 15 7 14 C7.11593506 14.63389648 7.23187012 15.26779297 7.35131836 15.92089844 C7.88591199 18.86289995 8.41172889 21.80640951 8.9375 24.75 C9.11990234 25.74644531 9.30230469 26.74289063 9.49023438 27.76953125 C12.06582237 42.28648179 12.1264584 56.55404928 12.0625 71.25 C12.05747471 73.26692597 12.05291362 75.28385316 12.04882812 77.30078125 C12.03790468 82.20055122 12.02069684 87.10026196 12 92 C11.01 92 10.02 92 9 92 C9.01571045 90.98502441 9.0314209 89.97004883 9.04760742 88.92431641 C9.45810767 59.73217599 7.73610929 32.6411845 0.50317383 4.20117188 C0 2 0 2 0 0 Z " fill="#262626" transform="translate(100,164)"/>
<path d="M0 0 C0.66 0.33 1.32 0.66 2 1 C11.39466464 29.67844994 9.42105807 62.25170785 9 92 C8.01 92 7.02 92 6 92 C5.97494385 90.79166504 5.9498877 89.58333008 5.92407227 88.33837891 C5.82839627 83.76457854 5.72859778 79.19087508 5.62768555 74.6171875 C5.58493109 72.65464579 5.54322806 70.69208084 5.50268555 68.72949219 C5.03026003 44.75282802 5.03026003 44.75282802 2.9375 20.875 C2.84662109 20.09769531 2.75574219 19.32039063 2.66210938 18.51953125 C2.44625774 16.67911201 2.22395208 14.8394511 2 13 C1.24976563 13.2165625 0.49953125 13.433125 -0.2734375 13.65625 C-8.60406819 15.92251729 -16.50670326 17.26487913 -25 15 C-25 14.67 -25 14.34 -25 14 C-23.68644531 13.87882813 -22.37289062 13.75765625 -21.01953125 13.6328125 C-19.28381613 13.46393211 -17.54814108 13.29463961 -15.8125 13.125 C-14.51602539 13.00705078 -14.51602539 13.00705078 -13.19335938 12.88671875 C-8.80953229 12.45001567 -5.00904503 11.97547146 -1 10 C-1 9.34 -1 8.68 -1 8 C-3.31 8.66 -5.62 9.32 -8 10 C-8.66 9.01 -9.32 8.02 -10 7 C-9.36191406 6.82984375 -8.72382813 6.6596875 -8.06640625 6.484375 C-7.24011719 6.24203125 -6.41382813 5.9996875 -5.5625 5.75 C-4.73878906 5.51796875 -3.91507813 5.2859375 -3.06640625 5.046875 C-0.80004532 4.19229321 -0.80004532 4.19229321 -0.21484375 1.890625 C-0.14394531 1.26671875 -0.07304687 0.6428125 0 0 Z " fill="#191919" transform="translate(141,164)"/>
<path d="M0 0 C-0.50831003 4.9996464 -2.22771043 8.59785214 -4.8125 12.8125 C-5.53917016 14.04788804 -6.26313969 15.28486866 -6.984375 16.5234375 C-7.33177734 17.11866211 -7.67917969 17.71388672 -8.03710938 18.32714844 C-9.28677634 20.498223 -10.46385175 22.68604479 -11.5625 24.9375 C-11.87316406 25.56527344 -12.18382813 26.19304687 -12.50390625 26.83984375 C-14.16414517 34.06907306 -10.13681382 40.43565579 -7 46.6875 C-6.08007415 48.54396147 -5.16327756 50.40197768 -4.25 52.26171875 C-3.84265625 53.07600342 -3.4353125 53.89028809 -3.015625 54.72924805 C-2.08001837 56.82109354 -1.47171714 58.76350959 -1 61 C-1.99 61 -2.98 61 -4 61 C-5.88990721 57.13166176 -7.75876726 53.25405004 -9.60913086 49.36669922 C-10.24086636 48.04693014 -10.87817913 46.7298152 -11.52124023 45.41552734 C-12.44709698 43.52078411 -13.35217159 41.6172564 -14.25390625 39.7109375 C-14.80377197 38.56931152 -15.3536377 37.42768555 -15.92016602 36.25146484 C-17.4392008 31.67753194 -16.76600459 28.79739525 -14.90844727 24.4387207 C-14.46557373 23.60945068 -14.0227002 22.78018066 -13.56640625 21.92578125 C-13.08236328 21.01119141 -12.59832031 20.09660156 -12.09960938 19.15429688 C-11.59236328 18.21650391 -11.08511719 17.27871094 -10.5625 16.3125 C-10.05912109 15.36310547 -9.55574219 14.41371094 -9.03710938 13.43554688 C-7.13079043 9.85835077 -5.2498786 6.3748179 -3 3 C-4.32 2.34 -5.64 1.68 -7 1 C-4.50935112 0.31292445 -2.62113708 0 0 0 Z " fill="#1F1F1F" transform="translate(82,195)"/>
<path d="M0 0 C0.33 0 0.66 0 1 0 C1.48565444 2.74898737 1.96356741 5.49898666 2.4375 8.25 C2.57220703 9.00796875 2.70691406 9.7659375 2.84570312 10.546875 C5.21626914 24.42335898 5.12356492 38.21889506 5.0625 52.25 C5.05747471 54.26692597 5.05291362 56.28385316 5.04882812 58.30078125 C5.03790468 63.20055122 5.02069684 68.10026196 5 73 C4.01 73 3.02 73 2 73 C2.01571045 71.98502441 2.0314209 70.97004883 2.04760742 69.92431641 C2.33752156 49.36469923 2.08523802 29.37913594 -1 9 C-1.20052334 7.60305123 -1.39992831 6.20594093 -1.59765625 4.80859375 C-1.73042969 3.88175781 -1.86320312 2.95492187 -2 2 C-1.34 2 -0.68 2 0 2 C0 1.34 0 0.68 0 0 Z " fill="#212121" transform="translate(107,183)"/>
<path d="M0 0 C0 0.99 0 1.98 0 3 C-0.66 3 -1.32 3 -2 3 C-1.95875 4.11375 -1.9175 5.2275 -1.875 6.375 C-2 10 -2 10 -4 12 C-6.25 12.5625 -6.25 12.5625 -9 12 C-10.58928498 10.31851893 -11.9572277 8.51900335 -13.375 6.69140625 C-15.95169256 4.00941616 -18.40169875 3.64769423 -22 3 C-22 2.34 -22 1.68 -22 1 C-14.63959083 0.20274098 -7.40239645 -0.12886183 0 0 Z " fill="#212121" transform="translate(149,135)"/>
<path d="M0 0 C0.33 0 0.66 0 1 0 C1.79383686 6.74752889 2.13808087 13.37280582 2.09765625 20.1640625 C2.0962413 21.08214691 2.09482635 22.00023132 2.09336853 22.94613647 C2.0878322 25.83912608 2.07529219 28.73203433 2.0625 31.625 C2.05747675 33.60286345 2.0529153 35.58072814 2.04882812 37.55859375 C2.03788373 42.37242653 2.02066418 47.18619954 2 52 C1.01 52 0.02 52 -1 52 C-1.19390963 45.39838411 -1.37124225 38.79647139 -1.53710938 32.1940918 C-1.59547312 29.94854681 -1.65761763 27.70309675 -1.72363281 25.45776367 C-1.81791705 22.22852869 -1.89855622 18.99919541 -1.9765625 15.76953125 C-2.00875885 14.76727005 -2.0409552 13.76500885 -2.0741272 12.7323761 C-2.25881313 4.12059937 -2.25881313 4.12059937 0 0 Z " fill="#2E2E2E" transform="translate(148,204)"/>
<path d="M0 0 C3 1 3 1 4.4296875 3.82421875 C4.92808295 5.10563672 5.40850689 6.39412681 5.875 7.6875 C6.13039551 8.38141846 6.38579102 9.07533691 6.64892578 9.7902832 C10.38251184 20.40037189 14.28353533 32.67489654 14 44 C13.34 44 12.68 44 12 44 C11.81207886 43.1181604 11.81207886 43.1181604 11.62036133 42.21850586 C7.85716046 22.98941937 7.85716046 22.98941937 0.85546875 4.7890625 C0 3 0 3 0 0 Z " fill="#1D1B15" transform="translate(210,212)"/>
<path d="M0 0 C1 2 1 2 0.08984375 5.8125 C-1.60509874 12.9161986 -1.39100921 20.13905033 -1.47851562 27.40625 C-1.65859687 34.92573996 -2.62048023 41.24096047 -6 48 C-6.99 47.67 -7.98 47.34 -9 47 C-8.79503906 46.46890625 -8.59007812 45.9378125 -8.37890625 45.390625 C-8.10949219 44.68421875 -7.84007812 43.9778125 -7.5625 43.25 C-7.29566406 42.55390625 -7.02882812 41.8578125 -6.75390625 41.140625 C-5.35406531 37.1659471 -4.86560756 33.68070314 -4.7890625 29.45703125 C-4.76070312 28.38259766 -4.73234375 27.30816406 -4.703125 26.20117188 C-4.65149559 23.9617461 -4.60709381 21.72214073 -4.5703125 19.48242188 C-4.13091333 4.13091333 -4.13091333 4.13091333 0 0 Z " fill="#252421" transform="translate(163,96)"/>
<path d="M0 0 C0.495 1.485 0.495 1.485 1 3 C-4.83870462 6.89246975 -10.72860526 6.44581756 -17.5625 6.375 C-19.24762695 6.39240234 -19.24762695 6.39240234 -20.96679688 6.41015625 C-22.59391602 6.40435547 -22.59391602 6.40435547 -24.25390625 6.3984375 C-25.23689697 6.39505371 -26.2198877 6.39166992 -27.23266602 6.38818359 C-30.44859805 5.93707359 -32.3784628 4.88281917 -35 3 C-35 2.67 -35 2.34 -35 2 C-34.35675781 2.0721875 -33.71351562 2.144375 -33.05078125 2.21875 C-16.16963735 4.14100257 -16.16963735 4.14100257 0 0 Z " fill="#F1F1F1" transform="translate(140,171)"/>
<path d="M0 0 C0.66 0 1.32 0 2 0 C2 12.54 2 25.08 2 38 C1.01 38 0.02 38 -1 38 C-0.67 25.46 -0.34 12.92 0 0 Z " fill="#0E0E0E" transform="translate(110,218)"/>
<path d="M0 0 C0.66 0 1.32 0 2 0 C1.87153687 0.93682617 1.87153687 0.93682617 1.74047852 1.89257812 C1.34733461 4.76165261 0.95491256 7.6308254 0.5625 10.5 C0.42779297 11.48226562 0.29308594 12.46453125 0.15429688 13.4765625 C-0.59791919 18.98058249 -1.32389124 24.48610333 -2 30 C-2.66 30 -3.32 30 -4 30 C-4.2680082 23.80603269 -3.86220811 17.7688672 -3.125 11.625 C-3.04652832 10.93535156 -2.96805664 10.24570313 -2.88720703 9.53515625 C-2.43624444 5.99670123 -1.87029812 3.06477424 0 0 Z " fill="#121212" transform="translate(60,226)"/>
<path d="M0 0 C3 1 3 1 4.0859375 3.1328125 C5.11410978 6.3579341 5.90822956 9.56627179 6.625 12.875 C6.88539063 14.04804688 7.14578125 15.22109375 7.4140625 16.4296875 C8.00347161 20.0211537 8.10218861 23.36765933 8 27 C7.34 27 6.68 27 6 27 C5.18642345 23.43774498 4.37432881 19.8751537 3.5625 16.3125 C3.33240234 15.30509766 3.10230469 14.29769531 2.86523438 13.25976562 C2.64287109 12.28330078 2.42050781 11.30683594 2.19140625 10.30078125 C1.98717041 9.40528564 1.78293457 8.50979004 1.57250977 7.5871582 C1.01417549 5.06405873 0.49755218 2.53571775 0 0 Z " fill="#252525" transform="translate(188,229)"/>
<path d="M0 0 C0.66 0 1.32 0 2 0 C1.84015625 0.71542969 1.6803125 1.43085937 1.515625 2.16796875 C0.08015985 10.05215234 0.70534926 16.72431295 4 24 C6.31 24.33 8.62 24.66 11 25 C11.33 24.34 11.66 23.68 12 23 C12.66 23.33 13.32 23.66 14 24 C12.375 26.0625 12.375 26.0625 10 28 C7.0625 28.1875 7.0625 28.1875 4 27 C-1.23216 21.87975786 -1.97747113 16.49680385 -2.1875 9.4375 C-2.15749773 5.8852317 -1.65357233 3.2037964 0 0 Z " fill="#312C21" transform="translate(80,103)"/>
<path d="M0 0 C-2.88035092 2.24027294 -5.84866512 4.16172132 -9 6 C-8.42365861 10.75481646 -6.44931479 13.97048212 -4 18 C-6.60388898 17.62642278 -7.74294757 17.28877098 -9.51953125 15.29296875 C-9.94621094 14.59816406 -10.37289062 13.90335938 -10.8125 13.1875 C-11.25207031 12.50042969 -11.69164062 11.81335938 -12.14453125 11.10546875 C-13 9 -13 9 -12.91015625 6.9453125 C-11.66351233 4.28081176 -10.07449002 3.28482116 -7.625 1.6875 C-6.83351562 1.15511719 -6.04203125 0.62273437 -5.2265625 0.07421875 C-3 -1 -3 -1 0 0 Z " fill="#191919" transform="translate(179,196)"/>
<path d="M0 0 C0.33 0.66 0.66 1.32 1 2 C1.66 2 2.32 2 3 2 C2.68985608 4.08368538 2.3767948 6.16693668 2.0625 8.25 C1.88847656 9.41015625 1.71445312 10.5703125 1.53515625 11.765625 C1.1272264 14.23106961 0.66098697 16.59424562 0 19 C-0.99 19 -1.98 19 -3 19 C-2.27637073 12.60794144 -1.19656638 6.31972924 0 0 Z " fill="#312E26" transform="translate(25,237)"/>
<path d="M0 0 C0.78246094 0.09023437 1.56492187 0.18046875 2.37109375 0.2734375 C4.5625 0.625 4.5625 0.625 7.5625 1.625 C7.5625 2.285 7.5625 2.945 7.5625 3.625 C2.33504141 4.8313366 -2.20278314 4.38112577 -7.4375 3.625 C-7.1075 2.635 -6.7775 1.645 -6.4375 0.625 C-3.9632021 -0.61214895 -2.72250667 -0.33081362 0 0 Z " fill="#202020" transform="translate(123.4375,99.375)"/>
<path d="M0 0 C0.66 0 1.32 0 2 0 C2.89429374 1.5725165 3.76487427 3.15853741 4.625 4.75 C5.35589844 6.07257813 5.35589844 6.07257813 6.1015625 7.421875 C7 10 7 10 6.3125 12.28125 C5 14 5 14 2.375 14.75 C1.59125 14.8325 0.8075 14.915 0 15 C0 14.01 0 13.02 0 12 C0.99 12 1.98 12 3 12 C2.7834375 11.38511719 2.566875 10.77023438 2.34375 10.13671875 C2.0653125 9.32847656 1.786875 8.52023438 1.5 7.6875 C1.2215625 6.88699219 0.943125 6.08648437 0.65625 5.26171875 C0 3 0 3 0 0 Z " fill="#222222" transform="translate(140,113)"/>
<path d="M0 0 C0.50604924 2.39469729 1.00499517 4.79051717 1.5 7.1875 C1.64308594 7.86103516 1.78617188 8.53457031 1.93359375 9.22851562 C2.68069842 12.87509793 3.17352282 16.27648957 3 20 C2.34 20 1.68 20 1 20 C-0.32 13.73 -1.64 7.46 -3 1 C-1 0 -1 0 0 0 Z " fill="#21201B" transform="translate(221,236)"/>
<path d="M0 0 C-0.60108576 5.65020618 -2.07528683 10.66164461 -4 16 C-4.66 16 -5.32 16 -6 16 C-5.5587029 10.77411334 -5.07351958 5.8788696 -3 1 C-1 0 -1 0 0 0 Z " fill="#1A1813" transform="translate(32,223)"/>
<path d="M0 0 C2 0.6875 2 0.6875 4 2.6875 C3.625 5.3125 3.625 5.3125 3 7.6875 C0.20171644 7.30152985 -0.8205884 6.88613427 -2.75 4.75 C-4 2.6875 -4 2.6875 -4 0.6875 C-2 -0.3125 -2 -0.3125 0 0 Z " fill="#E7E7E7" transform="translate(141,137.3125)"/>
<path d="M0 0 C1.32 0 2.64 0 4 0 C4.79953138 3.28696233 5.09658936 4.71023192 4 8 C3.01 8.33 2.02 8.66 1 9 C0.34 8.34 -0.32 7.68 -1 7 C-0.625 3.375 -0.625 3.375 0 0 Z " fill="#101010" transform="translate(122,108)"/>
<path d="M0 0 C3.63 0 7.26 0 11 0 C11.33 0.66 11.66 1.32 12 2 C11.34 2 10.68 2 10 2 C10.66 3.32 11.32 4.64 12 6 C8.37968443 6 7.04539702 4.8569494 4 3 C1.80869466 2.30420546 1.80869466 2.30420546 0 2 C0 1.34 0 0.68 0 0 Z " fill="#181818" transform="translate(127,136)"/>
<path d="M0 0 C0.66 0.66 1.32 1.32 2 2 C1.67 2.99 1.34 3.98 1 5 C-0.3303125 4.7525 -0.3303125 4.7525 -1.6875 4.5 C-4.53596892 4.07004243 -7.13004802 3.91558965 -10 4 C-10 3.01 -10 2.02 -10 1 C-6.47940432 -0.17353189 -3.693507 -0.20146402 0 0 Z " fill="#1F1F1F" transform="translate(157,100)"/>
<path d="M0 0 C-0.51525603 5.28137429 -2.25477117 8.57221156 -5 13 C-5.66 12.67 -6.32 12.34 -7 12 C-5.94124926 8.59687262 -4.99097846 5.98646769 -3 3 C-4.32 2.34 -5.64 1.68 -7 1 C-4.50935112 0.31292445 -2.62113708 0 0 0 Z " fill="#232323" transform="translate(82,195)"/>
<path d="M0 0 C3 1 3 1 4.1875 3.25 C4.99938294 5.99791147 5.16260121 8.15447889 5 11 C4.01 11 3.02 11 2 11 C2.66 12.32 3.32 13.64 4 15 C3.01 14.67 2.02 14.34 1 14 C1.0928125 12.63875 1.0928125 12.63875 1.1875 11.25 C0.98327924 7.71017358 0.35448165 6.55068845 -2 4 C-0.02 4.99 -0.02 4.99 2 6 C1.34 4.02 0.68 2.04 0 0 Z " fill="#1C1C1C" transform="translate(87,107)"/>
<path d="M0 0 C5.61 0.33 11.22 0.66 17 1 C16.67 1.66 16.34 2.32 16 3 C14.08404032 3.08133791 12.16708068 3.13934367 10.25 3.1875 C8.64898437 3.23970703 8.64898437 3.23970703 7.015625 3.29296875 C4 3 4 3 0 0 Z " fill="#0F0F0F" transform="translate(63,193)"/>
<path d="M0 0 C0.99 0.33 1.98 0.66 3 1 C3 2.98 3 4.96 3 7 C1.68 7.33 0.36 7.66 -1 8 C-1.625 5.125 -1.625 5.125 -2 2 C-1.34 1.34 -0.68 0.68 0 0 Z " fill="#111111" transform="translate(152,109)"/>
<path d="M0 0 C0.99 0.33 1.98 0.66 3 1 C4.16796875 3.50390625 4.16796875 3.50390625 5.1875 6.5625 C5.53167969 7.57441406 5.87585938 8.58632812 6.23046875 9.62890625 C6.48441406 10.41136719 6.73835938 11.19382813 7 12 C6.01 12 5.02 12 4 12 C3.32645501 10.56570999 2.66140299 9.12742943 2 7.6875 C1.62875 6.88699219 1.2575 6.08648437 0.875 5.26171875 C0 3 0 3 0 0 Z " fill="#181818" transform="translate(74,244)"/>
<path d="M0 0 C-2.15002097 1.67223853 -4.28145317 3.16753165 -6.625 4.5625 C-9.07611371 5.91692163 -9.07611371 5.91692163 -11 8 C-11 6.68 -11 5.36 -11 4 C-9.35546875 2.48046875 -9.35546875 2.48046875 -7.1875 1.1875 C-6.47980469 0.74792969 -5.77210938 0.30835938 -5.04296875 -0.14453125 C-3 -1 -3 -1 0 0 Z " fill="#0E0E0E" transform="translate(179,196)"/>
<path d="M0 0 C1.43793392 0.31049726 2.8753318 0.6234776 4.3125 0.9375 C5.11300781 1.11152344 5.91351563 1.28554687 6.73828125 1.46484375 C9 2 9 2 12 3 C12.33 3.99 12.66 4.98 13 6 C8.38 5.01 3.76 4.02 -1 3 C-0.67 2.01 -0.34 1.02 0 0 Z " fill="#22201A" transform="translate(146,160)"/>
<path d="M0 0 C0.33 0.66 0.66 1.32 1 2 C-2.3 2.66 -5.6 3.32 -9 4 C-9.33 3.01 -9.66 2.02 -10 1 C-3.44680851 -1.53191489 -3.44680851 -1.53191489 0 0 Z " fill="#363636" transform="translate(188,193)"/>
<path d="M0 0 C0.33 0 0.66 0 1 0 C1.33 4.29 1.66 8.58 2 13 C1.34 13 0.68 13 0 13 C-0.66 9.7 -1.32 6.4 -2 3 C-1.34 3 -0.68 3 0 3 C0 2.01 0 1.02 0 0 Z " fill="#2E2E2E" transform="translate(194,243)"/>
<path d="M0 0 C0 0.99 0 1.98 0 3 C-5.00890086 2.38487182 -10.00632136 1.7282448 -15 1 C-15 0.67 -15 0.34 -15 0 C-9.77254141 -1.2063366 -5.23471686 -0.75612577 0 0 Z " fill="#383838" transform="translate(65,192)"/>
<path d="M0 0 C0.66 0.33 1.32 0.66 2 1 C-0.55081829 3.97595467 -3.43434437 5.44002566 -7 7 C-7.99 7 -8.98 7 -10 7 C-10 6.34 -10 5.68 -10 5 C-8.38007835 4.13624104 -6.75388139 3.28424146 -5.125 2.4375 C-4.22007813 1.96183594 -3.31515625 1.48617187 -2.3828125 0.99609375 C-1.20332031 0.50302734 -1.20332031 0.50302734 0 0 Z " fill="#100F0B" transform="translate(79,166)"/>
<path d="M0 0 C2.9719385 1.12451727 5.33440687 2.22293791 8 4 C7.67 4.99 7.34 5.98 7 7 C3.535 5.02 3.535 5.02 0 3 C0 2.01 0 1.02 0 0 Z " fill="#22201B" transform="translate(176,171)"/>
<path d="M0 0 C-2.52956528 3.0916909 -5.22454612 3.90931332 -9 5 C-8.8125 3.125 -8.8125 3.125 -8 1 C-4.70594381 -0.82039948 -3.63772813 -1.21257604 0 0 Z " fill="#232019" transform="translate(89,164)"/>
<path d="M0 0 C0.66 0 1.32 0 2 0 C2.33 2.97 2.66 5.94 3 9 C2.01 9 1.02 9 0 9 C0 6.03 0 3.06 0 0 Z " fill="#181818" transform="translate(109,209)"/>
<path d="M0 0 C0.99 0 1.98 0 3 0 C4.32 2.97 5.64 5.94 7 9 C6.01 9 5.02 9 4 9 C2.68 6.03 1.36 3.06 0 0 Z " fill="#0E0C09" transform="translate(205,203)"/>
<path d="M0 0 C0.66 0 1.32 0 2 0 C1.34 4.29 0.68 8.58 0 13 C-2.50200297 7.99599407 -1.96502942 6.3515268 -1 1 C-0.67 0.67 -0.34 0.34 0 0 Z " fill="#494334" transform="translate(80,103)"/>
<path d="M0 0 C1.31625194 2.63250388 0.74813658 3.80179056 0.0625 6.625 C-0.13214844 7.44226563 -0.32679688 8.25953125 -0.52734375 9.1015625 C-0.68332031 9.72804688 -0.83929688 10.35453125 -1 11 C-1.66 10.34 -2.32 9.68 -3 9 C-2.53846154 2.53846154 -2.53846154 2.53846154 0 0 Z " fill="#322F26" transform="translate(163,96)"/>
<path d="M0 0 C0.66 0 1.32 0 2 0 C1.25 4.75 1.25 4.75 -1 7 C-1.66 7 -2.32 7 -3 7 C-1.125 1.125 -1.125 1.125 0 0 Z " fill="#212121" transform="translate(166,241)"/>
<path d="M0 0 C0.33 0 0.66 0 1 0 C0.67 2.97 0.34 5.94 0 9 C-0.66 9 -1.32 9 -2 9 C-1.125 1.125 -1.125 1.125 0 0 Z " fill="#100F0E" transform="translate(160,127)"/>
<path d="M0 0 C0.33 0 0.66 0 1 0 C1.33 3.63 1.66 7.26 2 11 C1.34 11 0.68 11 0 11 C-0.84098656 6.98195309 -1.05404945 3.98196457 0 0 Z " fill="#363226" transform="translate(222,245)"/>
<path d="M0 0 C0.66 0 1.32 0 2 0 C1.67 2.64 1.34 5.28 1 8 C0.01 7.67 -0.98 7.34 -2 7 C-1.125 2.25 -1.125 2.25 0 0 Z " fill="#282828" transform="translate(60,226)"/>
<path d="M0 0 C0.33 0 0.66 0 1 0 C1.33 2.64 1.66 5.28 2 8 C1.01 8.33 0.02 8.66 -1 9 C-1.33 6.69 -1.66 4.38 -2 2 C-1.34 2 -0.68 2 0 2 C0 1.34 0 0.68 0 0 Z " fill="#2C2C2C" transform="translate(107,183)"/>
<path d="M0 0 C0.33 0 0.66 0 1 0 C1 2.31 1 4.62 1 7 C0.01 7 -0.98 7 -2 7 C-1.125 1.125 -1.125 1.125 0 0 Z " fill="#1E1A10" transform="translate(24,249)"/>
<path d="M0 0 C0.66 0 1.32 0 2 0 C2.33 2.64 2.66 5.28 3 8 C2.34 8 1.68 8 1 8 C0.67 5.36 0.34 2.72 0 0 Z " fill="#090909" transform="translate(191,238)"/>
</svg>
